<?xml version="1.0" encoding="UTF-8"?>
<svg width="139px" height="30px" viewBox="0 0 139 30" version="1.1" xmlns="http://www.w3.org/2000/svg" xmlns:xlink="http://www.w3.org/1999/xlink">
    <!-- Generator: Sketch 49.1 (51147) - http://www.bohemiancoding.com/sketch -->
    <title>Best choice</title>
    <desc>Created with Sketch.</desc>
    <defs></defs>
    <g id="Page-1" stroke="none" stroke-width="1" fill="none" fill-rule="evenodd">
        <g id="Trezor-product-page-Copy-14" transform="translate(-702.000000, -4519.000000)">
            <g id="Group-15" transform="translate(193.000000, 4471.000000)">
                <g id="Trezor-One" transform="translate(354.000000, 47.000000)">
                    <g id="Brand-name-Copy" transform="translate(0.000000, 0.424242)">
                        <g id="Group-36">
                            <g id="Best-choice" transform="translate(155.000000, 0.575758)">
                                <path d="M15.7909149,1 C14.3162699,1 12.9168279,1.65095393 11.9668014,2.77879593 L1.8820388,14.7511132 C1.56149239,15.131656 1.56947476,15.6899734 1.9007693,16.0611967 L11.9567995,27.3292132 C12.9054505,28.3921987 14.2625231,29 15.6872606,29 L133,29 C135.761424,29 138,26.7614237 138,24 L138,6 C138,3.23857625 135.761424,1 133,1 L15.7909149,1 Z" id="Rectangle-3" stroke="#F5A623" stroke-width="2"></path>
                                <path d="M32.1875,18.5625 C31.7656229,19.0677109 31.1692747,19.459634 30.3984375,19.7382812 C29.6276003,20.0169285 28.7734422,20.15625 27.8359375,20.15625 C26.8515576,20.15625 25.988285,19.9414084 25.2460938,19.5117188 C24.5039025,19.0820291 23.9309916,18.4583374 23.5273438,17.640625 C23.1236959,16.8229126 22.9166667,15.8619847 22.90625,14.7578125 L22.90625,13.984375 C22.90625,12.8489527 23.0976543,11.8658896 23.4804688,11.0351562 C23.8632832,10.2044229 24.415361,9.56901262 25.1367188,9.12890625 C25.8580765,8.68879988 26.7031202,8.46875 27.671875,8.46875 C29.0208401,8.46875 30.075517,8.79036137 30.8359375,9.43359375 C31.596358,10.0768261 32.0468743,11.0130147 32.1875,12.2421875 L29.90625,12.2421875 C29.8020828,11.5911426 29.5716164,11.1145848 29.2148438,10.8125 C28.8580711,10.5104152 28.3671906,10.359375 27.7421875,10.359375 C26.9453085,10.359375 26.3385437,10.6588512 25.921875,11.2578125 C25.5052063,11.8567738 25.2942709,12.7473899 25.2890625,13.9296875 L25.2890625,14.65625 C25.2890625,15.8489643 25.5156227,16.749997 25.96875,17.359375 C26.4218773,17.968753 27.0859331,18.2734375 27.9609375,18.2734375 C28.8411502,18.2734375 29.4687481,18.0859394 29.84375,17.7109375 L29.84375,15.75 L27.7109375,15.75 L27.7109375,14.0234375 L32.1875,14.0234375 L32.1875,18.5625 Z M33.5859375,15.6953125 C33.5859375,14.8567666 33.7473942,14.1093783 34.0703125,13.453125 C34.3932308,12.7968717 34.8580699,12.2890643 35.4648438,11.9296875 C36.0716176,11.5703107 36.7760377,11.390625 37.578125,11.390625 C38.7187557,11.390625 39.649736,11.7395798 40.3710938,12.4375 C41.0924515,13.1354202 41.4947912,14.0833273 41.578125,15.28125 L41.59375,15.859375 C41.59375,17.1562565 41.2317745,18.1966107 40.5078125,18.9804688 C39.7838505,19.7643268 38.8125061,20.15625 37.59375,20.15625 C36.3749939,20.15625 35.4023474,19.7656289 34.6757812,18.984375 C33.9492151,18.2031211 33.5859375,17.1406317 33.5859375,15.796875 L33.5859375,15.6953125 Z M35.84375,15.859375 C35.84375,16.6614623 35.9947902,17.2747375 36.296875,17.6992188 C36.5989598,18.1237 37.0312472,18.3359375 37.59375,18.3359375 C38.1406277,18.3359375 38.5677068,18.1263042 38.875,17.7070312 C39.1822932,17.2877583 39.3359375,16.6171921 39.3359375,15.6953125 C39.3359375,14.9088502 39.1822932,14.2994813 38.875,13.8671875 C38.5677068,13.4348937 38.1354195,13.21875 37.578125,13.21875 C37.0260389,13.21875 36.5989598,13.4335916 36.296875,13.8632812 C35.9947902,14.2929709 35.84375,14.9583288 35.84375,15.859375 Z M45.3671875,20 L43.1015625,20 L43.1015625,8 L45.3671875,8 L45.3671875,20 Z M46.875,15.7109375 C46.875,14.3932226 47.17057,13.3437539 47.7617188,12.5625 C48.3528675,11.7812461 49.1614532,11.390625 50.1875,11.390625 C51.0104208,11.390625 51.6901015,11.6979136 52.2265625,12.3125 L52.2265625,8 L54.4921875,8 L54.4921875,20 L52.453125,20 L52.34375,19.1015625 C51.7812472,19.804691 51.0572961,20.15625 50.171875,20.15625 C49.1770784,20.15625 48.3789093,19.7643268 47.7773438,18.9804688 C47.1757782,18.1966107 46.875,17.1067778 46.875,15.7109375 Z M49.1328125,15.875 C49.1328125,16.6666706 49.270832,17.2734354 49.546875,17.6953125 C49.822918,18.1171896 50.2239557,18.328125 50.75,18.328125 C51.4479202,18.328125 51.9401027,18.0338571 52.2265625,17.4453125 L52.2265625,14.109375 C51.9453111,13.5208304 51.4583368,13.2265625 50.765625,13.2265625 C49.6770779,13.2265625 49.1328125,14.1093662 49.1328125,15.875 Z M64.8046875,17.6640625 C64.8046875,17.3880195 64.6679701,17.1705737 64.3945312,17.0117188 C64.1210924,16.8528638 63.6822947,16.7109381 63.078125,16.5859375 C61.0676983,16.1640604 60.0625,15.3099023 60.0625,14.0234375 C60.0625,13.2734338 60.3736948,12.6471379 60.9960938,12.1445312 C61.6184927,11.6419246 62.4322866,11.390625 63.4375,11.390625 C64.510422,11.390625 65.3684864,11.6432266 66.0117188,12.1484375 C66.6549511,12.6536484 66.9765625,13.3098918 66.9765625,14.1171875 L64.71875,14.1171875 C64.71875,13.7942692 64.6145844,13.5273448 64.40625,13.3164062 C64.1979156,13.1054677 63.872398,13 63.4296875,13 C63.0494773,13 62.7552094,13.0859366 62.546875,13.2578125 C62.3385406,13.4296884 62.234375,13.6484362 62.234375,13.9140625 C62.234375,14.1640638 62.3528634,14.3658846 62.5898438,14.5195312 C62.8268241,14.6731779 63.2265597,14.805989 63.7890625,14.9179688 C64.3515653,15.0299485 64.8255189,15.1562493 65.2109375,15.296875 C66.4036518,15.7343772 67,16.4921821 67,17.5703125 C67,18.3411497 66.6692741,18.9648414 66.0078125,19.4414062 C65.3463509,19.9179711 64.4921927,20.15625 63.4453125,20.15625 C62.7369756,20.15625 62.1080757,20.0299492 61.5585938,19.7773438 C61.0091118,19.5247383 60.5781266,19.1783876 60.265625,18.7382812 C59.9531234,18.2981749 59.796875,17.8229192 59.796875,17.3125 L61.9375,17.3125 C61.9583334,17.7135437 62.1067695,18.0208323 62.3828125,18.234375 C62.6588555,18.4479177 63.0286435,18.5546875 63.4921875,18.5546875 C63.9244813,18.5546875 64.251301,18.4726571 64.4726562,18.3085938 C64.6940115,18.1445304 64.8046875,17.9296888 64.8046875,17.6640625 Z M71.15625,9.46875 L71.15625,11.546875 L72.6015625,11.546875 L72.6015625,13.203125 L71.15625,13.203125 L71.15625,17.421875 C71.15625,17.7343766 71.2161452,17.9583327 71.3359375,18.09375 C71.4557298,18.2291673 71.6848941,18.296875 72.0234375,18.296875 C72.2734387,18.296875 72.4947907,18.278646 72.6875,18.2421875 L72.6875,19.953125 C72.2447895,20.0885423 71.7890648,20.15625 71.3203125,20.15625 C69.7369712,20.15625 68.9296877,19.3567788 68.8984375,17.7578125 L68.8984375,13.203125 L67.6640625,13.203125 L67.6640625,11.546875 L68.8984375,11.546875 L68.8984375,9.46875 L71.15625,9.46875 Z M78.7578125,20 C78.6536453,19.796874 78.5781252,19.5442723 78.53125,19.2421875 C77.9843723,19.8515655 77.2734419,20.15625 76.3984375,20.15625 C75.5703084,20.15625 74.8841173,19.9166691 74.3398438,19.4375 C73.7955702,18.9583309 73.5234375,18.3541703 73.5234375,17.625 C73.5234375,16.7291622 73.8554654,16.0416691 74.5195312,15.5625 C75.1835971,15.0833309 76.1432229,14.8411459 77.3984375,14.8359375 L78.4375,14.8359375 L78.4375,14.3515625 C78.4375,13.9609355 78.3372406,13.6484387 78.1367188,13.4140625 C77.9361969,13.1796863 77.6197938,13.0625 77.1875,13.0625 C76.8072898,13.0625 76.5091157,13.1536449 76.2929688,13.3359375 C76.0768218,13.5182301 75.96875,13.7682276 75.96875,14.0859375 L73.7109375,14.0859375 C73.7109375,13.5963517 73.8619777,13.1432312 74.1640625,12.7265625 C74.4661473,12.3098938 74.8932264,11.9830741 75.4453125,11.7460938 C75.9973986,11.5091134 76.6171841,11.390625 77.3046875,11.390625 C78.3463594,11.390625 79.173174,11.6523411 79.7851562,12.1757812 C80.3971385,12.6992214 80.703125,13.4348911 80.703125,14.3828125 L80.703125,18.046875 C80.7083334,18.8489623 80.8203114,19.4557271 81.0390625,19.8671875 L81.0390625,20 L78.7578125,20 Z M76.890625,18.4296875 C77.22396,18.4296875 77.5312486,18.3554695 77.8125,18.2070312 C78.0937514,18.058593 78.3020827,17.8593763 78.4375,17.609375 L78.4375,16.15625 L77.59375,16.15625 C76.463536,16.15625 75.8619795,16.5468711 75.7890625,17.328125 L75.78125,17.4609375 C75.78125,17.7421889 75.8802073,17.9739574 76.078125,18.15625 C76.2760427,18.3385426 76.5468733,18.4296875 76.890625,18.4296875 Z M84.515625,11.546875 L84.5859375,12.5234375 C85.1901072,11.7682254 85.9999949,11.390625 87.015625,11.390625 C87.9114628,11.390625 88.5781228,11.6536432 89.015625,12.1796875 C89.4531272,12.7057318 89.6770833,13.4921823 89.6875,14.5390625 L89.6875,20 L87.4296875,20 L87.4296875,14.59375 C87.4296875,14.1145809 87.3255219,13.7669282 87.1171875,13.5507812 C86.9088531,13.3346343 86.5625024,13.2265625 86.078125,13.2265625 C85.4427052,13.2265625 84.9661474,13.4973931 84.6484375,14.0390625 L84.6484375,20 L82.390625,20 L82.390625,11.546875 L84.515625,11.546875 Z M91.046875,15.7109375 C91.046875,14.3932226 91.342445,13.3437539 91.9335938,12.5625 C92.5247425,11.7812461 93.3333282,11.390625 94.359375,11.390625 C95.1822958,11.390625 95.8619765,11.6979136 96.3984375,12.3125 L96.3984375,8 L98.6640625,8 L98.6640625,20 L96.625,20 L96.515625,19.1015625 C95.9531222,19.804691 95.2291711,20.15625 94.34375,20.15625 C93.3489534,20.15625 92.5507843,19.7643268 91.9492188,18.9804688 C91.3476532,18.1966107 91.046875,17.1067778 91.046875,15.7109375 Z M93.3046875,15.875 C93.3046875,16.6666706 93.442707,17.2734354 93.71875,17.6953125 C93.994793,18.1171896 94.3958307,18.328125 94.921875,18.328125 C95.6197952,18.328125 96.1119777,18.0338571 96.3984375,17.4453125 L96.3984375,14.109375 C96.1171861,13.5208304 95.6302118,13.2265625 94.9375,13.2265625 C93.8489529,13.2265625 93.3046875,14.1093662 93.3046875,15.875 Z M105.3125,20 C105.208333,19.796874 105.132813,19.5442723 105.085937,19.2421875 C104.53906,19.8515655 103.828129,20.15625 102.953125,20.15625 C102.124996,20.15625 101.438805,19.9166691 100.894531,19.4375 C100.350258,18.9583309 100.078125,18.3541703 100.078125,17.625 C100.078125,16.7291622 100.410153,16.0416691 101.074219,15.5625 C101.738285,15.0833309 102.69791,14.8411459 103.953125,14.8359375 L104.992187,14.8359375 L104.992187,14.3515625 C104.992187,13.9609355 104.891928,13.6484387 104.691406,13.4140625 C104.490884,13.1796863 104.174481,13.0625 103.742187,13.0625 C103.361977,13.0625 103.063803,13.1536449 102.847656,13.3359375 C102.631509,13.5182301 102.523437,13.7682276 102.523437,14.0859375 L100.265625,14.0859375 C100.265625,13.5963517 100.416665,13.1432312 100.71875,12.7265625 C101.020835,12.3098938 101.447914,11.9830741 102,11.7460938 C102.552086,11.5091134 103.171872,11.390625 103.859375,11.390625 C104.901047,11.390625 105.727862,11.6523411 106.339844,12.1757812 C106.951826,12.6992214 107.257812,13.4348911 107.257812,14.3828125 L107.257812,18.046875 C107.263021,18.8489623 107.374999,19.4557271 107.59375,19.8671875 L107.59375,20 L105.3125,20 Z M103.445312,18.4296875 C103.778648,18.4296875 104.085936,18.3554695 104.367188,18.2070312 C104.648439,18.058593 104.85677,17.8593763 104.992188,17.609375 L104.992188,16.15625 L104.148438,16.15625 C103.018224,16.15625 102.416667,16.5468711 102.34375,17.328125 L102.335938,17.4609375 C102.335938,17.7421889 102.434895,17.9739574 102.632812,18.15625 C102.83073,18.3385426 103.101561,18.4296875 103.445312,18.4296875 Z M113.742188,13.6640625 C113.434894,13.6223956 113.164064,13.6015625 112.929688,13.6015625 C112.075517,13.6015625 111.515626,13.8906221 111.25,14.46875 L111.25,20 L108.992188,20 L108.992188,11.546875 L111.125,11.546875 L111.1875,12.5546875 C111.640627,11.778642 112.268225,11.390625 113.070312,11.390625 C113.320314,11.390625 113.554686,11.4244788 113.773438,11.4921875 L113.742188,13.6640625 Z M114.328125,15.7109375 C114.328125,14.3932226 114.623695,13.3437539 115.214844,12.5625 C115.805993,11.7812461 116.614578,11.390625 117.640625,11.390625 C118.463546,11.390625 119.143226,11.6979136 119.679687,12.3125 L119.679687,8 L121.945312,8 L121.945312,20 L119.90625,20 L119.796875,19.1015625 C119.234372,19.804691 118.510421,20.15625 117.625,20.15625 C116.630203,20.15625 115.832034,19.7643268 115.230469,18.9804688 C114.628903,18.1966107 114.328125,17.1067778 114.328125,15.7109375 Z M116.585937,15.875 C116.585937,16.6666706 116.723957,17.2734354 117,17.6953125 C117.276043,18.1171896 117.677081,18.328125 118.203125,18.328125 C118.901045,18.328125 119.393228,18.0338571 119.679687,17.4453125 L119.679687,14.109375 C119.398436,13.5208304 118.911462,13.2265625 118.21875,13.2265625 C117.130203,13.2265625 116.585937,14.1093662 116.585937,15.875 Z" id="Gold-standard" fill="#F5A623"></path>
                            </g>
                        </g>
                    </g>
                </g>
            </g>
        </g>
    </g>
</svg>