<?xml version="1.0" encoding="UTF-8"?>
<svg width="436px" height="33px" viewBox="0 0 436 33" version="1.1" xmlns="http://www.w3.org/2000/svg" xmlns:xlink="http://www.w3.org/1999/xlink">
    <!-- Generator: Sketch 49.3 (51167) - http://www.bohemiancoding.com/sketch -->
    <title>Group 65</title>
    <desc>Created with Sketch.</desc>
    <defs>
        <circle id="path-1" cx="16" cy="16" r="16"></circle>
        <circle id="path-3" cx="16" cy="16" r="16"></circle>
    </defs>
    <g id="Page-1" stroke="none" stroke-width="1" fill="none" fill-rule="evenodd">
        <g id="Trezor-product-page-Copy-14" transform="translate(-211.000000, -379.000000)">
            <g id="Header-text" transform="translate(208.000000, 223.000000)">
                <g id="Altcoins" transform="translate(3.000000, 155.000000)">
                    <g id="Group-65">
                        <g id="Bitcoin" transform="translate(0.000000, 0.871595)">
                            <g id="Group">
                                <ellipse id="Oval" fill="#F5B300" fill-rule="nonzero" cx="15.85" cy="16.5" rx="15.85" ry="16.0938462"></ellipse>
                                <path d="M11.55,8.27538462 C12.1,8.42769231 12.65,8.52923077 13.2,8.68153846 C13.75,8.83384615 14.3,8.93538462 14.85,9.08769231 C15,9.13846154 15.05,9.08769231 15.1,8.93538462 C15.3,8.07230769 15.5,7.26 15.7,6.39692308 C15.75,6.24461538 15.8,6.19384615 15.95,6.24461538 C16.45,6.39692308 16.9,6.49846154 17.4,6.6 C17.55,6.65076923 17.55,6.70153846 17.5,6.80307692 C17.3,7.61538462 17.1,8.47846154 16.9,9.29076923 C16.9,9.34153846 16.9,9.39230769 16.85,9.49384615 C17.25,9.59538462 17.7,9.69692308 18.1,9.79846154 C18.15,9.79846154 18.2,9.69692308 18.25,9.64615385 C18.4,8.98615385 18.55,8.37692308 18.75,7.71692308 C18.8,7.51384615 18.85,7.31076923 18.9,7.10769231 C18.9,7.00615385 18.95,6.95538462 19.05,7.00615385 C19.55,7.15846154 20.05,7.26 20.6,7.41230769 C20.65,7.41230769 20.65,7.46307692 20.7,7.46307692 C20.55,8.12307692 20.4,8.73230769 20.25,9.34153846 C20.2,9.59538462 20.15,9.84923077 20.05,10.1030769 C20,10.2553846 20.05,10.3061538 20.2,10.3569231 C20.75,10.6107692 21.3,10.8646154 21.85,11.1184615 C22.35,11.4230769 22.8,11.8292308 23.15,12.3369231 C23.6,13.0984615 23.65,13.9107692 23.45,14.7230769 C23.3,15.2815385 23.1,15.7892308 22.7,16.1953846 C22.4,16.5 22,16.7030769 21.6,16.8553846 C21.55,16.8553846 21.5,16.9061538 21.4,16.9061538 C21.6,17.0584615 21.8,17.16 22,17.3123077 C22.6,17.7692308 23,18.3276923 23.2,19.0384615 C23.3,19.5969231 23.25,20.2061538 23.1,20.7646154 C22.9,21.4753846 22.65,22.0846154 22.2,22.6430769 C21.65,23.3030769 20.95,23.6584615 20.15,23.76 C19.1,23.9123077 18.1,23.8107692 17.1,23.6584615 C16.95,23.6076923 16.85,23.6584615 16.8,23.8107692 C16.6,24.6230769 16.4,25.4861538 16.2,26.2984615 C16.15,26.5015385 16.15,26.5523077 15.9,26.4507692 C15.45,26.3492308 14.95,26.1969231 14.5,26.0953846 C14.35,26.0446154 14.35,25.9938462 14.4,25.8923077 C14.6,25.0292308 14.8,24.1661538 15.05,23.3538462 C15.05,23.2523077 15.1,23.2015385 15,23.1507692 C14.6,23.0492308 14.2,22.9476923 13.75,22.8461538 C13.65,23.3030769 13.5,23.76 13.4,24.2169231 C13.3,24.6738462 13.15,25.1307692 13.05,25.5876923 C13,25.6892308 13,25.74 12.85,25.6892308 C12.35,25.5369231 11.85,25.4353846 11.35,25.3338462 C11.2,25.2830769 11.2,25.2323077 11.25,25.1307692 C11.45,24.2676923 11.65,23.4046154 11.9,22.5923077 C11.9,22.5415385 11.95,22.4907692 11.95,22.3892308 C10.8,22.0846154 9.65,21.78 8.45,21.4753846 C8.55,21.2723077 8.6,21.12 8.7,20.9169231 C8.9,20.46 9.1,20.0030769 9.25,19.5969231 C9.3,19.4446154 9.35,19.4446154 9.5,19.4446154 C9.85,19.5461538 10.25,19.6476923 10.6,19.6984615 C11,19.8 11.3,19.5969231 11.35,19.2415385 C12,16.6523077 12.65,14.0630769 13.25,11.4230769 C13.35,11.0169231 13.1,10.56 12.65,10.4076923 C12.2,10.2553846 11.75,10.1538462 11.35,10.0523077 C11.25,10.0523077 11.2,10.0015385 11.25,9.9 C11.4,9.34153846 11.55,8.73230769 11.7,8.17384615 C11.5,8.32615385 11.5,8.32615385 11.55,8.27538462 Z M14.1,20.8153846 C14.15,20.8153846 14.2,20.8661538 14.2,20.8661538 C15,21.0692308 15.85,21.3230769 16.7,21.3738462 C17.3,21.4246154 17.85,21.4246154 18.4,21.2215385 C19.35,20.9169231 19.75,19.6476923 19.2,18.8353846 C18.95,18.4292308 18.55,18.1753846 18.15,17.9215385 C17.25,17.4138462 16.2,17.2107692 15.2,17.0076923 C15.05,16.9569231 15.05,17.0076923 15,17.16 C14.9,17.6676923 14.75,18.1246154 14.65,18.6323077 C14.45,19.3430769 14.3,20.0538462 14.1,20.8153846 Z M18.3,15.6369231 C18.4,15.6369231 18.65,15.5861538 18.85,15.5353846 C19.8,15.3323077 20.3,14.2153846 19.8,13.3523077 C19.55,12.8953846 19.1,12.5907692 18.65,12.3876923 C17.95,12.0830769 17.25,11.9307692 16.5,11.7276923 C16.35,11.6769231 16.3,11.7276923 16.25,11.88 C16,12.9461538 15.75,13.9615385 15.45,15.0276923 C15.4,15.1292308 15.45,15.18 15.55,15.2307692 C15.75,15.2815385 15.9,15.3323077 16.1,15.3830769 C16.85,15.4846154 17.5,15.6369231 18.3,15.6369231 Z" id="Shape" fill="#FFFFFF" fill-rule="nonzero"></path>
                            </g>
                        </g>
                        <g id="Etherium" transform="translate(184.000000, 0.871595)">
                            <g id="Group">
                                <path d="M10.05,0.406153846 C10.05,0.406153846 10.05,0.406153846 10.05,0.406153846 C10.05,0.507692308 10.05,0.609230769 10.05,0.710769231 C10.05,4.46769231 10.05,8.27538462 10.05,12.0323077 C10.05,12.0830769 10.05,12.1846154 10.05,12.2353846 C10.05,12.2861538 10,12.3369231 9.95,12.3369231 C9.6,12.4892308 9.3,12.6415385 8.95,12.7938462 C8.5,12.9969231 8,13.2 7.55,13.4538462 C7,13.7076923 6.45,13.9615385 5.9,14.2153846 C5.45,14.4184615 5,14.6215385 4.55,14.8246154 C4,15.0784615 3.45,15.3323077 2.9,15.5861538 C2.45,15.7892308 2,15.9923077 1.5,16.2461538 C1.15,16.3984615 0.75,16.6015385 0.4,16.7538462 C0.35,16.7538462 0.35,16.8046154 0.3,16.7538462 C0.3,16.7538462 0.3,16.7538462 0.25,16.7538462 C0.4,16.5 0.55,16.2969231 0.7,16.0430769 C1.5,14.6723077 2.35,13.3015385 3.15,11.9307692 C4,10.4584615 4.9,8.98615385 5.75,7.51384615 C6.55,6.14307692 7.35,4.77230769 8.15,3.45230769 C8.75,2.43692308 9.35,1.47230769 9.9,0.456923077 C10,0.456923077 10,0.406153846 10.05,0.406153846 C10,0.406153846 10.05,0.406153846 10.05,0.406153846 C10.05,0.406153846 10.05,0.406153846 10.05,0.406153846 Z" id="Shape" fill="#8A92B2" fill-rule="nonzero"></path>
                                <path d="M19.75,16.7538462 C19.75,16.7538462 19.75,16.7538462 19.75,16.7538462 C19,17.2615385 18.2,17.7184615 17.45,18.1753846 C15,19.6476923 12.6,21.0692308 10.15,22.5415385 C10.1,22.5415385 10.1,22.5923077 10.05,22.5923077 C10,22.5923077 10,22.5415385 10,22.5415385 C10,22.4907692 10,22.44 10,22.3892308 C10,19.0892308 10,15.7892308 10,12.4892308 C10,12.4384615 10,12.3876923 10,12.3369231 C10,12.2861538 10.05,12.2861538 10.1,12.2861538 C10.3,12.3876923 10.5,12.4892308 10.75,12.5907692 C11.35,12.8953846 12,13.1492308 12.6,13.4538462 C13.15,13.7076923 13.65,13.9615385 14.2,14.1646154 C14.75,14.4184615 15.25,14.6723077 15.8,14.9261538 C16.25,15.1292308 16.75,15.3323077 17.2,15.5861538 C17.65,15.7892308 18.15,15.9923077 18.6,16.2461538 C18.95,16.3984615 19.3,16.6015385 19.7,16.7538462 C19.7,16.7030769 19.7,16.7538462 19.75,16.7538462 Z" id="Shape" fill="#454A75" fill-rule="nonzero"></path>
                                <path d="M10.05,32.5430769 C10.05,32.5430769 10.05,32.5430769 10.05,32.5430769 C10.05,32.5430769 10,32.5430769 10.05,32.5430769 C10,32.5430769 10,32.5430769 9.95,32.4923077 C8.95,31.0707692 8,29.7 7,28.2784615 C6,26.8569231 5,25.4353846 4,24.0138462 C3.05,22.6430769 2.05,21.2723077 1.1,19.8507692 C0.85,19.4953846 0.6,19.14 0.35,18.7846154 C0.35,18.7338462 0.3,18.7338462 0.3,18.6830769 C0.35,18.6830769 0.35,18.7338462 0.4,18.7338462 C1.75,19.5461538 3.15,20.3584615 4.5,21.1707692 C6.05,22.1353846 7.65,23.0492308 9.2,24.0138462 C9.45,24.1661538 9.75,24.3184615 10,24.4707692 C10.05,24.4707692 10.05,24.5215385 10.05,24.5723077 C10.05,24.6230769 10.05,24.6738462 10.05,24.7246154 C10.05,27.2630769 10.05,29.7507692 10.05,32.2892308 C10.05,32.34 10.05,32.4415385 10.05,32.5430769 Z" id="Shape" fill="#8A92B2" fill-rule="nonzero"></path>
                                <path d="M0.3,16.7538462 C0.3,16.7538462 0.35,16.7538462 0.3,16.7538462 C0.35,16.7538462 0.35,16.7538462 0.3,16.7538462 C0.3,16.8046154 0.3,16.8046154 0.3,16.7538462 C0.3,16.7538462 0.3,16.7538462 0.3,16.7538462 C0.3,16.7538462 0.3,16.7538462 0.3,16.7538462 Z" id="Shape" fill="#808080" fill-rule="nonzero"></path>
                                <path d="M0.35,16.8046154 C0.35,16.7538462 0.35,16.7538462 0.35,16.8046154 C0.85,16.5507692 1.35,16.3476923 1.85,16.0938462 C2.5,15.7892308 3.15,15.4846154 3.8,15.18 C4.3,14.9261538 4.8,14.7230769 5.3,14.4692308 C6,14.1138462 6.75,13.8092308 7.45,13.4538462 C7.95,13.2507692 8.45,12.9969231 8.95,12.7938462 C9.3,12.6415385 9.65,12.4892308 10,12.2861538 C10.05,12.2861538 10.05,12.2353846 10.1,12.2353846 C10.1,12.2353846 10.1,12.2353846 10.1,12.2861538 C10.1,12.3369231 10.1,12.3369231 10.1,12.3876923 C10.1,15.7384615 10.1,19.0892308 10.1,22.44 C10.1,22.4907692 10.1,22.5415385 10.1,22.5923077 C10.05,22.6430769 10.05,22.5923077 10,22.5923077 C9.85,22.4907692 9.7,22.44 9.6,22.3384615 C6.55,20.5107692 3.5,18.6830769 0.45,16.8553846 C0.4,16.8046154 0.35,16.8046154 0.35,16.8046154 Z" id="Shape" fill="#62688F" fill-rule="nonzero"></path>
                                <path d="M19.7,18.6830769 C19.7,18.6830769 19.7,18.6830769 19.7,18.6830769 C19.7,18.7338462 19.7,18.7338462 19.65,18.7846154 C16.75,22.9476923 13.85,27.06 10.95,31.2230769 C10.65,31.68 10.35,32.0861538 10.05,32.5430769 C10.05,32.5430769 10.05,32.5430769 10.05,32.4923077 C10.05,32.4415385 10.05,32.4415385 10.05,32.3907692 C10.05,29.8015385 10.05,27.2123077 10.05,24.6230769 C10.05,24.5723077 10.05,24.5215385 10.05,24.4707692 C10.7,24.0646154 11.35,23.6584615 12,23.3030769 C14.55,21.78 17.1,20.2569231 19.65,18.7338462 C19.65,18.6830769 19.7,18.6830769 19.7,18.6830769 Z" id="Shape" fill="#62688F" fill-rule="nonzero"></path>
                                <path d="M10.05,12.2861538 C10.05,12.2861538 10.05,12.2861538 10.05,12.2861538 C10.05,12.2353846 10.05,12.1846154 10.05,12.1846154 C10.05,8.32615385 10.05,4.41692308 10.05,0.558461538 C10.05,0.507692308 10.05,0.456923077 10.05,0.456923077 C13.25,5.83846154 16.45,11.22 19.65,16.6015385 C19.7,16.6523077 19.75,16.7030769 19.75,16.7538462 C19.55,16.6523077 19.35,16.5507692 19.1,16.4492308 C18.85,16.3476923 18.6,16.1953846 18.35,16.0938462 C18.2,16.0430769 18.05,15.9415385 17.85,15.8907692 C17.6,15.7892308 17.3,15.6369231 17.05,15.5353846 C16.9,15.4846154 16.75,15.3830769 16.6,15.3323077 C16.25,15.18 15.9,15.0276923 15.55,14.8753846 C15.35,14.7738462 15.2,14.7230769 15,14.6215385 C14.75,14.52 14.5,14.3676923 14.25,14.2661538 C14.1,14.2153846 13.95,14.1138462 13.8,14.0630769 C13.45,13.9107692 13.1,13.7584615 12.75,13.6061538 C12.55,13.5046154 12.4,13.4538462 12.2,13.3523077 C11.95,13.2507692 11.7,13.0984615 11.45,12.9969231 C11.3,12.8953846 11.1,12.8446154 10.95,12.7430769 C10.65,12.5907692 10.35,12.4384615 10.05,12.2861538 C10.05,12.2861538 10.05,12.2861538 10.05,12.2861538 Z" id="Shape" fill="#62688F" fill-rule="nonzero"></path>
                            </g>
                        </g>
                        <g id="Litecoin" transform="translate(60.000000, 1.000000)">
                            <g id="Group">
                                <path d="M16.1,32.5430769 C7.3,32.4923077 0.25,25.3338462 0.3,16.4492308 C0.3,7.51384615 7.45,0.355384615 16.2,0.406153846 C25,0.456923077 32.05,7.66615385 32,16.5507692 C31.9,25.4353846 24.8,32.5938462 16.1,32.5430769 Z M30.45,16.5 C30.45,8.42769231 24.05,1.92923077 16.1,1.92923077 C8.2,1.92923077 1.8,8.42769231 1.8,16.4492308 C1.8,24.5215385 8.2,31.02 16.15,31.02 C24.05,31.02 30.45,24.5215385 30.45,16.5 Z" id="Shape" fill="#C0C0C0" fill-rule="nonzero"></path>
                                <path d="M28.3,16.5 C28.2,23.3538462 22.75,28.8876923 16.05,28.8369231 C9.25,28.7353846 3.85,23.1507692 3.95,16.3476923 C4.05,9.49384615 9.5,4.06153846 16.15,4.11230769 C22.9,4.16307692 28.3,9.69692308 28.3,16.5 Z M15.35,20.9169231 C15.35,20.8661538 15.35,20.8153846 15.35,20.7646154 C15.7,19.3938462 16,18.0738462 16.35,16.7030769 C16.4,16.6015385 16.5,16.4492308 16.65,16.3984615 C17,16.2461538 17.35,16.0938462 17.7,15.9923077 C18.5,15.7892308 18.95,15.3323077 19.05,14.52 C19.1,14.1646154 19.25,13.8092308 19.35,13.4030769 C18.5,13.7584615 17.75,14.0630769 16.95,14.3676923 C17.5,12.1846154 18,10.1538462 18.55,8.02153846 C18.4,8.02153846 18.3,8.02153846 18.2,8.02153846 C16.8,8.02153846 15.4,8.02153846 14,8.02153846 C13.7,8.02153846 13.6,8.12307692 13.5,8.42769231 C12.8,11.0676923 12.1,13.7076923 11.4,16.3476923 C11.35,16.5 11.2,16.6523077 11.1,16.7030769 C10.65,16.9061538 10.15,17.0584615 9.7,17.2615385 C9.6,17.3123077 9.45,17.3630769 9.45,17.4138462 C9.25,18.0738462 9.05,18.7846154 8.8,19.5461538 C9.5,19.2415385 10.1,18.9876923 10.8,18.7338462 C10.35,20.5107692 9.9,22.2369231 9.45,23.9630769 C10.45,23.9630769 11.4,23.9630769 12.35,23.9630769 C15.7,23.9630769 19,23.9630769 22.35,23.9630769 C22.6,23.9630769 22.7,23.9123077 22.75,23.6584615 C22.85,23.1507692 23,22.6430769 23.15,22.1861538 C23.25,21.8307692 23.3,21.4753846 23.4,21.0692308 C20.7,21.0184615 18.05,20.9676923 15.35,20.9169231 Z" id="Shape" fill="#C0C0C0" fill-rule="nonzero"></path>
                                <path d="M15.35,20.9169231 C18.05,20.9676923 20.7,21.0184615 23.4,21.12 C23.3,21.5261538 23.2,21.8815385 23.15,22.2369231 C23,22.7446154 22.85,23.2015385 22.75,23.7092308 C22.7,23.9630769 22.6,24.0138462 22.35,24.0138462 C19,24.0138462 15.7,24.0138462 12.35,24.0138462 C11.4,24.0138462 10.45,24.0138462 9.45,24.0138462 C9.9,22.2369231 10.35,20.5615385 10.8,18.7846154 C10.1,19.0384615 9.5,19.2923077 8.8,19.5969231 C9,18.8353846 9.2,18.1753846 9.45,17.4646154 C9.45,17.3630769 9.6,17.3123077 9.7,17.3123077 C10.15,17.1092308 10.65,16.9569231 11.1,16.7538462 C11.25,16.7030769 11.4,16.5507692 11.4,16.3984615 C12.1,13.7584615 12.8,11.1184615 13.5,8.47846154 C13.55,8.17384615 13.65,8.07230769 14,8.07230769 C15.4,8.07230769 16.8,8.07230769 18.2,8.07230769 C18.3,8.07230769 18.4,8.07230769 18.55,8.07230769 C18,10.1538462 17.5,12.2353846 16.95,14.4184615 C17.75,14.0630769 18.5,13.7584615 19.35,13.4538462 C19.25,13.86 19.1,14.2153846 19.05,14.5707692 C18.95,15.3830769 18.5,15.84 17.7,16.0430769 C17.35,16.1446154 17,16.2969231 16.65,16.4492308 C16.55,16.5 16.4,16.6523077 16.35,16.7538462 C16,18.1246154 15.65,19.4446154 15.35,20.8153846 C15.35,20.8153846 15.35,20.8661538 15.35,20.9169231 Z" id="Shape" fill="#FFFFFF" fill-rule="nonzero"></path>
                            </g>
                        </g>
                        <g id="Dash" transform="translate(233.000000, 0.871595)">
                            <path d="M15.85,0.406153846 C7.1,0.406153846 0,7.61538462 0,16.5 C0,25.3846154 7.1,32.5938462 15.85,32.5938462 C24.6,32.5938462 31.7,25.3846154 31.7,16.5 C31.7,7.61538462 24.6,0.406153846 15.85,0.406153846 Z" id="Shape" fill="#3A74BE" fill-rule="nonzero"></path>
                            <path d="M6.35,17.82 C6.35,17.7692308 6.35,17.7692308 6.35,17.7184615 C6.5,17.3123077 6.65,16.9061538 6.8,16.4492308 C6.95,16.0430769 7.05,15.6369231 7.2,15.2307692 C7.25,15.1292308 7.3,15.0784615 7.4,15.0784615 C9.6,15.0784615 11.8,15.0784615 14,15.0784615 C14.05,15.0784615 14.1,15.0784615 14.15,15.0784615 C14.15,15.1292308 14.1,15.2307692 14.1,15.2815385 C13.85,16.0430769 13.6,16.8046154 13.35,17.5661538 C13.3,17.7184615 13.25,17.7692308 13.05,17.7692308 C10.9,17.7692308 8.75,17.7692308 6.55,17.7692308 C6.5,17.82 6.4,17.82 6.35,17.82 Z" id="Path" fill="#FFFFFF" fill-rule="evenodd"></path>
                            <path d="M25.35,13.1492308 C24.7,15.18 24.05,17.2107692 23.4,19.2923077 C23,20.5615385 21.3,22.2369231 19.45,22.1861538 C15.3,22.1353846 11.15,22.1861538 7.05,22.1861538 C6.95,22.1861538 6.9,22.1861538 6.8,22.1861538 C6.85,22.0338462 6.9,21.8815385 6.95,21.78 C7.2,21.0692308 7.45,20.3076923 7.65,19.5969231 C7.7,19.3938462 7.8,19.3938462 7.95,19.3938462 C11.7,19.3938462 15.4,19.3938462 19.15,19.3938462 C19.3,19.3938462 19.4,19.3430769 19.45,19.1907692 C20,17.4138462 20.6,15.6369231 21.15,13.86 C21.15,13.8092308 21.2,13.7584615 21.2,13.6569231 C17.3,13.6569231 13.45,13.6569231 9.55,13.6569231 C9.55,13.5553846 9.6,13.5046154 9.6,13.4538462 C9.85,12.6415385 10.15,11.8292308 10.4,11.0169231 C10.45,10.8646154 10.5,10.8138462 10.65,10.8138462 C14.85,10.8138462 19.05,10.8138462 23.25,10.8138462 C23.5,10.8138462 23.8,10.8646154 24.05,10.9153846 C24.75,11.1692308 25.15,11.6769231 25.3,12.3876923 C25.3,12.4384615 25.35,12.4892308 25.35,12.54 C25.35,12.7430769 25.35,12.9461538 25.35,13.1492308 Z" id="Path" fill="#FFFFFF" fill-rule="evenodd"></path>
                        </g>
                        <g id="Zcash-Wallet" transform="translate(122.000000, 0.871595)" fill-rule="nonzero">
                            <circle id="Oval" fill="#3A74BE" cx="16.5507692" cy="16.4492308" r="16.0938462"></circle>
                            <path d="M10.1030769,7.61538462 C11.5246154,7.61538462 12.9969231,7.61538462 14.4184615,7.61538462 L14.4184615,4.82307692 L18.9876923,4.82307692 L18.9876923,7.61538462 L23.4553846,7.61538462 L23.4553846,11.88 L15.3830769,21.1707692 L23.4553846,21.1707692 L23.4553846,25.4861538 L19.0384615,25.4861538 L19.0384615,28.0753846 L14.3676923,28.0753846 L14.3676923,25.4861538 L9.64615385,25.4861538 L9.64615385,21.2723077 L17.7184615,11.9307692 L10.1030769,12.1338462 L10.1030769,7.61538462 Z" id="Shape" fill="#FFFFFF"></path>
                        </g>
                        <g id="NEM-(Xem)" transform="translate(344.000000, 1.890931)">
                            <g id="XEM">
                                <path d="M1.14720901,11.1351706 C1.04851046,10.7315871 0.95760456,10.3260897 0.874543319,9.91891056 C0.509174678,8.11121163 0.297634238,6.27509558 0.242249633,4.43076566 C0.238991679,4.31655093 0.249266765,4.29345417 0.285605482,4.23025535 C0.302145864,4.20055952 0.316931963,4.17517847 0.532708762,4.05893325 C5.12141165,1.58402686 10.2957944,0.275887431 15.4957396,0.275887431 C16.6157239,0.275887431 17.7499931,0.338324819 18.8822575,0.462438164 C16.088186,2.10154651 14.3476867,5.11300834 14.3476867,8.48792684 L14.3479373,8.50645501 C14.3374116,10.9580108 13.0898659,13.1755534 11.0032717,14.4438445 C9.939759,15.0859693 8.72460206,15.4249222 7.48643563,15.4248222 C4.74724816,15.4248222 2.20378855,13.7022102 1.14720901,11.1351706 Z" id="Path" fill="#FABE00"></path>
                                <path d="M20.9513089,26.7394414 C20.6533526,27.030216 20.3497181,27.3149631 20.0405854,27.5935138 C18.7759039,28.7289679 17.4239208,29.7605864 15.9974645,30.6785807 C15.8611317,30.7656377 15.7939677,30.7938107 15.5170416,30.7938107 C15.2110445,30.7938107 15.1243328,30.7582772 14.9987763,30.6773116 C9.75622712,27.3074694 5.5286559,22.3233922 2.97893098,16.5398118 C4.35428879,17.3291625 5.91334508,17.7540413 7.48668625,17.7540413 C9.04298581,17.7540413 10.5799883,17.3514979 11.9275281,16.5923506 C12.0187509,16.5426037 12.1102242,16.4887959 12.179393,16.4451405 C13.1840959,15.8786354 14.3316476,15.579139 15.4987469,15.579139 C16.6593304,15.579139 17.8066314,15.8786354 18.7937915,16.4314347 L18.8569457,16.4684911 C18.9088223,16.4979331 18.9612002,16.5283903 19.0183397,16.5641776 C21.0786197,17.8131792 22.3582438,20.0987429 22.3582438,22.5287249 C22.3579931,24.036867 21.8587744,25.5307957 20.9513089,26.7394414 Z" id="Path" fill="#2AB8B0"></path>
                                <path d="M24.6576074,22.4355764 C24.6252785,19.2258886 22.9258796,16.2182339 20.208746,14.570496 C20.1372005,14.5263751 20.0645842,14.4840603 19.9909643,14.4435907 L19.9611415,14.4248087 C17.8878297,13.1539795 16.6495565,10.9313607 16.6488047,8.47955109 L16.6488047,8.39071741 C16.6944161,4.59878823 19.7541361,1.52818854 23.5083015,1.52818854 C23.8548977,1.52818854 24.2075086,1.55560008 24.5578639,1.60991553 C24.947816,1.72666837 25.3310015,1.84951266 25.6971454,1.97464125 C27.3396068,2.53649775 28.9338942,3.23358996 30.4640333,4.05893325 C30.6803113,4.17543228 30.695348,4.20182857 30.7116378,4.23000154 C30.7484777,4.29497703 30.7574998,4.31477425 30.7542418,4.42848137 C30.5625237,10.861309 28.4080137,17.2017497 24.6576074,22.4355764 Z" id="Path" fill="#86C0EA"></path>
                            </g>
                        </g>
                        <g id="Etherium-Classic" transform="translate(295.000000, 0.871595)">
                            <g id="Group">
                                <polygon id="Shape" fill="#0C8312" fill-rule="nonzero" points="10.0512821 9.74769231 10.0512821 0.406153846 20 14.9769231"></polygon>
                                <polygon id="Shape" fill="#0C8312" fill-rule="nonzero" points="10.0512821 23.2015385 10.0512821 32.5430769 20 17.9723077"></polygon>
                                <polygon id="Shape" fill="#0C8312" fill-rule="nonzero" points="10.0512821 17.3630769 10.0512821 11.4230769 19.7948718 16.5"></polygon>
                                <polygon id="Shape" fill="#034C03" fill-rule="nonzero" points="10.0512821 21.6784615 10.0512821 17.3630769 19.7948718 16.5"></polygon>
                                <polygon id="Shape" fill="#3CB93C" fill-rule="nonzero" points="10.0512821 9.74769231 10.0512821 0.406153846 0.102564103 14.9769231"></polygon>
                                <polygon id="Shape" fill="#3CB93C" fill-rule="nonzero" points="10.0512821 23.2015385 10.0512821 32.5430769 0.102564103 17.9723077"></polygon>
                                <polygon id="Shape" fill="#3CB93C" fill-rule="nonzero" points="10.0512821 17.3630769 10.0512821 11.4230769 0.307692308 16.5"></polygon>
                                <polygon id="Shape" fill="#166816" fill-rule="nonzero" points="10.0512821 21.6784615 10.0512821 17.3630769 0.307692308 16.5"></polygon>
                            </g>
                        </g>
                        <g id="Bitcoin-Cash" transform="translate(404.000000, 1.000000)">
                            <g id="Shape" stroke-width="1" fill-rule="evenodd">
                                <mask id="mask-2" fill="white">
                                    <use xlink:href="#path-1"></use>
                                </mask>
                                <use id="Mask" fill="#4BCF51" xlink:href="#path-1"></use>
                            </g>
                            <mask id="mask-4" fill="white">
                                <use xlink:href="#path-3"></use>
                            </mask>
                            <use id="Mask" fill="#4BCF51" fill-rule="evenodd" xlink:href="#path-3"></use>
                            <path d="M11.55,8.15 C12.1,8.3 12.65,8.4 13.2,8.55 C13.75,8.7 14.3,8.8 14.85,8.95 C15,9 15.05,8.95 15.1,8.8 C15.3,7.95 15.5,7.15 15.7,6.3 C15.75,6.15 15.8,6.1 15.95,6.15 C16.45,6.3 16.9,6.4 17.4,6.5 C17.55,6.55 17.55,6.6 17.5,6.7 C17.3,7.5 17.1,8.35 16.9,9.15 C16.9,9.2 16.9,9.25 16.85,9.35 C17.25,9.45 17.7,9.55 18.1,9.65 C18.15,9.65 18.2,9.55 18.25,9.5 C18.4,8.85 18.55,8.25 18.75,7.6 C18.8,7.4 18.85,7.2 18.9,7 C18.9,6.9 18.95,6.85 19.05,6.9 C19.55,7.05 20.05,7.15 20.6,7.3 C20.65,7.3 20.65,7.35 20.7,7.35 C20.55,8 20.4,8.6 20.25,9.2 C20.2,9.45 20.15,9.7 20.05,9.95 C20,10.1 20.05,10.15 20.2,10.2 C20.75,10.45 21.3,10.7 21.85,10.95 C22.35,11.25 22.8,11.65 23.15,12.15 C23.6,12.9 23.65,13.7 23.45,14.5 C23.3,15.05 23.1,15.55 22.7,15.95 C22.4,16.25 22,16.45 21.6,16.6 C21.55,16.6 21.5,16.65 21.4,16.65 C21.6,16.8 21.8,16.9 22,17.05 C22.6,17.5 23,18.05 23.2,18.75 C23.3,19.3 23.25,19.9 23.1,20.45 C22.9,21.15 22.65,21.75 22.2,22.3 C21.65,22.95 20.95,23.3 20.15,23.4 C19.1,23.55 18.1,23.45 17.1,23.3 C16.95,23.25 16.85,23.3 16.8,23.45 C16.6,24.25 16.4,25.1 16.2,25.9 C16.15,26.1 16.15,26.15 15.9,26.05 C15.45,25.95 14.95,25.8 14.5,25.7 C14.35,25.65 14.35,25.6 14.4,25.5 C14.6,24.65 14.8,23.8 15.05,23 C15.05,22.9 15.1,22.85 15,22.8 C14.6,22.7 14.2,22.6 13.75,22.5 C13.65,22.95 13.5,23.4 13.4,23.85 C13.3,24.3 13.15,24.75 13.05,25.2 C13,25.3 13,25.35 12.85,25.3 C12.35,25.15 11.85,25.05 11.35,24.95 C11.2,24.9 11.2,24.85 11.25,24.75 C11.45,23.9 11.65,23.05 11.9,22.25 C11.9,22.2 11.95,22.15 11.95,22.05 C10.8,21.75 9.65,21.45 8.45,21.15 C8.55,20.95 8.6,20.8 8.7,20.6 C8.9,20.15 9.1,19.7 9.25,19.3 C9.3,19.15 9.35,19.15 9.5,19.15 C9.85,19.25 10.25,19.35 10.6,19.4 C11,19.5 11.3,19.3 11.35,18.95 C12,16.4 12.65,13.85 13.25,11.25 C13.35,10.85 13.1,10.4 12.65,10.25 C12.2,10.1 11.75,10 11.35,9.9 C11.25,9.9 11.2,9.85 11.25,9.75 C11.4,9.2 11.55,8.6 11.7,8.05 C11.5,8.2 11.5,8.2 11.55,8.15 Z M14.1,20.5 C14.15,20.5 14.2,20.55 14.2,20.55 C15,20.75 15.85,21 16.7,21.05 C17.3,21.1 17.85,21.1 18.4,20.9 C19.35,20.6 19.75,19.35 19.2,18.55 C18.95,18.15 18.55,17.9 18.15,17.65 C17.25,17.15 16.2,16.95 15.2,16.75 C15.05,16.7 15.05,16.75 15,16.9 C14.9,17.4 14.75,17.85 14.65,18.35 C14.45,19.05 14.3,19.75 14.1,20.5 Z M18.3,15.4 C18.4,15.4 18.65,15.35 18.85,15.3 C19.8,15.1 20.3,14 19.8,13.15 C19.55,12.7 19.1,12.4 18.65,12.2 C17.95,11.9 17.25,11.75 16.5,11.55 C16.35,11.5 16.3,11.55 16.25,11.7 C16,12.75 15.75,13.75 15.45,14.8 C15.4,14.9 15.45,14.95 15.55,15 C15.75,15.05 15.9,15.1 16.1,15.15 C16.85,15.25 17.5,15.4 18.3,15.4 Z" id="Shape" fill="#FFFFFF" fill-rule="nonzero" mask="url(#mask-4)" transform="translate(16.005901, 16.115625) rotate(-30.000000) translate(-16.005901, -16.115625) "></path>
                        </g>
                    </g>
                </g>
            </g>
        </g>
    </g>
</svg>