<?xml version="1.0" encoding="UTF-8"?>
<svg width="489px" height="92px" viewBox="0 0 489 92" version="1.1" xmlns="http://www.w3.org/2000/svg" xmlns:xlink="http://www.w3.org/1999/xlink">
    <!-- Generator: Sketch 49.1 (51147) - http://www.bohemiancoding.com/sketch -->
    <title>media</title>
    <desc>Created with Sketch.</desc>
    <defs></defs>
    <g id="Product-page" stroke="none" stroke-width="1" fill="none" fill-rule="evenodd">
        <g id="Trezor-product-page-Copy-14" transform="translate(-746.000000, -3527.000000)">
            <g id="Cointainer-#5" transform="translate(208.000000, 3525.000000)">
                <g id="Path-4-+-Path-4-+-Path-4-Mask">
                    <g id="Group-12">
                        <g id="Group-9" transform="translate(0.000000, 2.000000)">
                            <g id="media" transform="translate(538.000000, 0.000000)">
                                <g id="Forbes" fill="#929497" fill-rule="nonzero">
                                    <path d="M24.8056105,25.9287029 C23.0651933,25.6765643 21.5429742,24.943226 20.3805667,23.796992 C19.4109488,22.8409516 18.7822654,21.7896 18.3188815,20.3490733 C17.5953107,18.0999026 17.5950953,15.2082035 18.3181637,13.0049021 C19.0189817,10.8696903 20.5968987,9.01105222 22.5280239,8.04608081 C25.2023865,6.70972473 28.9664479,6.79367567 31.4434273,8.24491951 C33.6725652,9.5509818 35.0228097,11.871743 35.3985555,15.042445 C35.5132531,16.0104887 35.4388217,18.0553193 35.2581622,18.8993299 C34.518729,22.3541076 32.3653144,24.7673935 29.2103417,25.6769215 C28.8703402,25.7748762 28.3431477,25.8896211 28.0388187,25.9317037 C27.3947753,26.0209418 25.4289824,26.0190841 24.8056105,25.9287029 Z M27.4094176,24.5414761 C27.9178766,24.3911504 28.5449092,23.8057801 28.8793121,23.1693248 C29.5695791,21.8554747 29.8778557,19.9125284 29.8855357,16.8273492 C29.8950819,12.9608904 29.2861368,10.5005205 28.0009211,9.21232013 C27.4612396,8.67131884 27.0785316,8.50334551 26.38848,8.50441722 C24.8570019,8.50684644 23.8850153,10.0983419 23.5010153,13.2320341 C23.3245189,14.6725608 23.3235858,18.1042609 23.4993645,19.3636679 C24.0432807,23.2614208 25.4478594,25.1212735 27.4094176,24.5414761 Z M55.6319103,25.9278455 C54.9198236,25.8559692 52.7438714,25.495516 51.9837667,25.3234702 L51.4579379,25.2044385 L51.4989219,22.4091937 C51.5976852,15.6791861 51.6101024,12.0052072 51.5461503,8.43225514 C51.4835619,4.93217966 51.4653308,4.56215249 51.3296748,4.04437167 C51.1578437,3.38833972 50.9098587,2.93078923 50.6116307,2.71937576 C50.4957847,2.63728245 50.1809764,2.5208943 49.9121047,2.46073541 C49.0184254,2.26089645 49.0669458,2.29290498 49.0431163,1.88708256 C49.0294071,1.65330598 49.0548157,1.49883625 49.114892,1.45146649 C49.1954243,1.38787811 56.5257331,-0.00392131313 56.7592194,8.30537576e-06 C56.8263297,0.00115146712 56.8358041,0.934114347 56.8014236,4.14547004 C56.7770198,6.42464877 56.7738617,8.28943137 56.7944613,8.28943137 C56.8149892,8.28943137 57.0828561,8.17397203 57.3896972,8.032863 C58.3145271,7.60753538 59.1669353,7.42298621 60.4049944,7.37997475 C61.2291948,7.35139571 61.6111133,7.36932906 62.0339439,7.45635224 C64.7989593,8.02586114 66.8451409,10.2786757 67.5601705,13.5407592 C67.7467155,14.3917002 67.8160508,16.5066923 67.6923095,17.5659746 C67.5867275,18.468858 67.2855566,19.6853965 66.9721839,20.4748211 C65.7895357,23.4538292 63.2523364,25.3972756 59.8863432,25.9023387 C59.1110221,26.018584 56.6763185,26.0332308 55.6319103,25.9278455 Z M58.5085368,24.5069669 C59.0299873,24.4084407 59.4350176,24.2018856 59.8699783,23.8125676 C60.9600359,22.8371649 61.7795708,20.8230568 62.1019155,18.3276776 C62.2331933,17.3113353 62.2155364,14.9954325 62.0700471,14.147135 C61.6765009,11.8528809 60.8306961,10.3449791 59.5969436,9.7378173 C59.0851828,9.48596448 59.0063013,9.46824547 58.3991507,9.46824547 C57.9649794,9.46824547 57.5915305,9.51447207 57.273923,9.60763975 L56.7985525,9.74703404 L56.763526,12.3583727 C56.7185226,15.7034069 56.827837,24.0778526 56.9196381,24.3181309 C56.9781353,24.4714575 57.0426617,24.5040376 57.3332815,24.5267579 C58.0172321,24.5802722 58.1303507,24.5782716 58.5085368,24.5069669 Z M76.2674243,25.8924075 C72.70656,25.2531658 70.1599581,22.739496 69.3278624,19.0427967 C69.2208449,18.5673843 69.1735447,18.0352425 69.1467006,17.0059682 C69.1042093,15.3776058 69.2372815,14.3668364 69.6594662,13.1109304 C70.4701009,10.6995736 71.9228411,8.99083254 74.0331903,7.96670252 C76.2606056,6.88577164 79.305905,6.81496706 81.2771529,7.7983005 C83.4966011,8.90545265 84.8024882,11.1161131 85.1338049,14.3266829 C85.1784493,14.7590124 85.2042168,15.2733637 85.1912972,15.4698446 L85.167683,15.8270827 L79.8562811,15.8453733 L74.5448793,15.8637353 L74.5650482,16.4884018 C74.6119895,17.9355016 74.9245009,19.215557 75.5026542,20.3282821 C75.765425,20.8341311 75.9745794,21.1098475 76.4827514,21.6204835 C77.6305884,22.7742195 78.7725398,23.2207671 80.5739664,23.2207671 C81.8800688,23.2207671 82.8193256,22.9613408 83.8017196,22.3291724 C84.0768359,22.1520537 84.3556845,22.0072294 84.4212157,22.0072294 C84.5711551,22.0072294 84.9163963,22.4495616 84.9163963,22.6417556 C84.9163963,22.9566967 83.8865585,23.9718958 82.8821293,24.64729 C82.059508,25.2004374 80.7548411,25.7014281 79.6235843,25.8983377 C78.8313241,26.0364459 77.0515021,26.0332308 76.2674243,25.8924075 Z M78.5210378,14.2465901 L79.7697914,14.2033643 L79.724788,13.3203433 C79.5663073,10.206728 78.8008194,8.5051317 77.5593151,8.50656065 C76.2100037,8.50806105 75.1317174,10.2348069 74.6834064,13.112145 C74.6282826,13.4658106 74.5826333,13.8852081 74.5819155,14.044179 L74.5806236,14.3331846 L75.9264179,14.311536 C76.6666407,14.2994614 77.8342161,14.2703107 78.5210378,14.2465901 Z M90.6225645,25.9617831 C89.3438086,25.8253182 87.3086804,25.3818429 86.631046,25.0918371 L86.3000882,24.9503708 L86.2549413,23.3180787 C86.2301069,22.4204109 86.2015402,21.2200197 86.191348,20.6507251 L86.1728299,19.6156636 L86.3712179,19.5209955 C86.480317,19.4689817 86.7004531,19.4203258 86.8605129,19.4128953 L87.1514198,19.3994631 L87.3992613,20.0067678 C88.3662953,22.3759705 89.5004232,23.6533823 90.9817301,24.0419144 C91.5468202,24.1902397 92.6063731,24.1915257 93.0246819,24.0444151 C94.196492,23.632734 94.8390998,22.7494272 94.8446983,21.5428914 C94.8513017,20.1139392 94.0622714,19.4273992 91.0813548,18.2683046 C89.234566,17.5501847 88.5903073,17.1806576 87.8232404,16.3990922 C86.9957383,15.555939 86.5986034,14.5963262 86.5240284,13.2596128 C86.4339499,11.6444682 86.9416912,10.2828197 88.0670624,9.12258194 C89.1994677,7.95491366 90.6695776,7.32203074 92.6722632,7.14012513 C94.4357921,6.97993959 97.1428127,7.35225308 98.5611723,7.95005522 L98.8199237,8.05908427 L98.8660755,9.51390049 C98.8914841,10.3140423 98.917754,11.3866138 98.9244292,11.8974642 L98.936631,12.8262117 L98.5890931,12.9546745 C98.0397219,13.1577286 98.0035469,13.1322932 97.697926,12.3262213 C96.8412112,10.0667621 95.8458976,8.99769152 94.29504,8.67110449 C93.3498976,8.47205145 92.5603649,8.68603704 91.9864464,9.29677121 C91.5387813,9.77318386 91.3640793,10.1962966 91.3218034,10.9067716 C91.2758669,11.6765482 91.4141069,12.092659 91.8866064,12.6072962 C92.4689226,13.2416081 93.423037,13.7891111 95.3237293,14.5797503 C97.6517024,15.5480798 98.7623596,16.370156 99.3662086,17.571619 C99.758391,18.3519697 99.869428,18.9752072 99.8300232,20.174884 C99.8003798,21.0751239 99.7714542,21.2601018 99.5656733,21.8644771 C98.8948576,23.8350022 97.3806774,25.1323478 95.0413637,25.7406528 C94.2490318,25.9466363 94.1359133,25.9572105 92.5603649,25.9745008 C91.652474,25.9842177 90.7803993,25.9786448 90.6225645,25.9617831 Z M0.0953899065,25.532383 C0.0357442991,25.5083766 0.00567028037,25.3303292 0.00567028037,25.0007414 C0.00567028037,24.408655 -0.032155514,24.4351621 1.11819364,24.2227483 C2.00060411,24.0597763 2.31620187,23.8931605 2.70587215,23.3846679 C3.4613114,22.3986194 3.62460112,20.5002565 3.62632374,12.6834593 C3.6279028,5.34250328 3.48578692,3.79823466 2.70450841,2.66364662 C2.35783178,2.16029822 1.77364935,1.88693966 0.795131215,1.77033716 L0.0414863551,1.68052752 L0.0208149533,1.09480002 L0,0.509143968 L0.236142056,0.467275669 C0.366056075,0.444269539 4.92862206,0.434552664 10.3753211,0.445627044 L20.2784299,0.465918165 L20.324797,0.751708601 C20.3503492,0.908893341 20.3922662,2.52118009 20.4179619,4.33452041 L20.4646161,7.63154178 L19.9540755,7.78594006 C19.1855013,8.01828769 19.190095,8.02114559 18.8443514,7.11047437 C17.9951013,4.87359262 17.0212486,3.58467775 15.6886609,2.93379003 C14.7695731,2.4848847 14.3446609,2.43065597 11.7491798,2.43065597 L9.4903985,2.43065597 L9.4514243,2.80575592 C9.37835664,3.50915763 9.26315664,8.03400616 9.26394617,10.1648597 L9.2647357,12.290426 L9.92866093,12.2866393 C10.2938557,12.2845673 11.0139095,12.2578459 11.5288284,12.2271949 C12.3027858,12.1811112 12.5328269,12.1402432 12.8566789,11.9909891 C13.6523125,11.62432 14.1935731,10.8173907 14.5252486,9.50346914 L14.6964336,8.82514554 L15.2822669,8.80435428 L15.8681002,8.78356303 L15.8681002,17.3689221 L15.2820516,17.3481308 L14.696003,17.3273396 L14.5296269,16.6485873 C14.2171155,15.3732475 13.6155634,14.4602899 12.8722542,14.1329884 C12.528951,13.9818767 11.6795574,13.8959253 10.0363245,13.8461977 L9.2647357,13.8227629 L9.2647357,15.4354783 C9.2647357,17.1928037 9.36184822,19.5702229 9.48623551,20.8604953 C9.65964561,22.6592603 10.1214505,23.6530966 10.9506751,24.0128353 C11.1090123,24.0814964 11.6100785,24.1929547 12.063988,24.260687 C12.5179693,24.3283479 12.9459679,24.412799 13.0150161,24.4483799 C13.1902206,24.5384039 13.2005563,25.4700093 13.0271462,25.5361697 C12.8913465,25.5881836 0.22472972,25.584254 0.0953899065,25.532383 Z M35.4772935,25.518808 C35.411834,25.4773684 35.3904449,25.3125387 35.4055178,24.9659464 L35.4270505,24.4722434 L35.6782654,24.4190864 C35.8164336,24.3897928 36.1132262,24.331563 36.3377406,24.2898376 C37.0327447,24.1605889 37.4321047,23.7851317 37.6569062,23.0495786 C37.840006,22.4504904 37.9206819,20.5336939 37.9248449,16.684454 C37.9300127,11.9768425 37.8314647,10.8650462 37.353295,10.2348783 C37.0941129,9.8932873 36.9072807,9.79618999 36.2783821,9.67601512 C35.9680239,9.6167136 35.6414445,9.55312523 35.5526579,9.53469175 C35.4088194,9.50489809 35.3911626,9.4582428 35.3911626,9.10807807 C35.3911626,8.76763021 35.4127671,8.70611382 35.5526579,8.64881284 C35.7674108,8.56093228 42.8779424,7.14612672 43.1051125,7.14612672 L43.2823267,7.14612672 L43.2475873,8.19997896 C43.2284232,8.77956196 43.1979185,9.62357257 43.1796875,10.0754787 L43.1465271,10.8971262 L43.4041301,10.4347173 C44.2287611,8.95446571 45.1535193,8.03550656 46.3832523,7.47457138 C47.0583028,7.16656074 47.5087671,7.07467912 48.342729,7.07467912 C49.3317981,7.07467912 50.320652,7.39590757 50.320652,7.71727891 C50.320652,7.93333648 48.5780097,12.5168435 48.4819021,12.5534961 C48.4350325,12.571358 48.0947439,12.441895 47.725745,12.2655623 C46.956166,11.8979643 46.234246,11.7182736 45.533428,11.719774 C44.6606355,11.7216316 43.6857062,12.0416455 43.3008449,12.4526121 C43.1361914,12.6283732 43.1354019,12.6389475 43.0944897,15.2640041 C43.0540082,17.8636253 43.1410004,21.0346131 43.2878535,22.3099529 C43.4129585,23.3964567 43.7030041,23.9313135 44.3019723,24.1804514 C44.5017959,24.2634735 45.7660531,24.435948 46.1786198,24.4363767 C46.209914,24.4363767 46.2259918,24.6855859 46.2145077,24.9900957 L46.1935492,25.5438146 L40.8821473,25.5608192 C37.9607327,25.5703217 35.5286131,25.5514595 35.4772935,25.518808 Z" id="Forbes-Copy"></path>
                                </g>
                                <path d="M10.2277775,82.2885765 C8.65312958,82.4057596 7.06749577,82.3178723 5.42327042,82.3178723 L5.42327042,76.9750554 C7.05650986,76.9750554 8.64214366,76.8761822 10.2131296,77.0043512 C11.6596085,77.1215343 12.6080592,78.2604075 12.626369,79.5860413 C12.6446789,80.9592808 11.6596085,82.1860413 10.2277775,82.2885765 Z M5.41228451,69.5998441 C6.93200282,69.5998441 8.41912958,69.5009709 9.88721408,69.6291399 C11.2091859,69.746323 12.0404535,70.8229427 12.0367915,72.0680131 C12.0367915,73.2947737 11.2897493,74.2871681 9.94214366,74.422661 C8.47735493,74.5691399 6.98693239,74.4556188 5.41228451,74.4556188 L5.41228451,69.5998441 Z M15.9697493,78.5240695 C16.8889042,81.574492 14.8601718,84.566323 11.4838338,84.8739286 C9.11453803,85.086323 6.71960845,84.9911117 4.33566479,85.0350554 C2.91152394,85.0643512 1.49031268,85.089985 0.0694676056,85.1192808 L0.0694676056,82.5266047 C1.77960845,82.4570272 2.79763662,81.321816 2.7353831,79.5567455 C2.67679155,77.9235061 1.6298338,76.898154 0.0694676056,76.9457596 L0.0694676056,74.554492 C1.56355211,74.55083 2.67312958,73.518154 2.72842535,72.082661 C2.78298873,70.5812526 1.69904507,69.4789991 0.0694676056,69.3728019 L0.0694676056,66.7837878 C3.08327042,66.8094216 6.09341127,66.8130836 9.10721408,66.8789991 C10.026369,66.8973089 10.9711577,66.9742103 11.853693,67.2012526 C13.7143408,67.6846329 15.0432704,68.8088582 15.4241155,70.782661 C15.8012986,72.741816 15.1714394,74.301816 13.4612986,75.3894216 C13.4173549,75.4187174 13.402707,75.4992808 13.3441155,75.6237878 C14.581862,76.249985 15.5522845,77.15083 15.9697493,78.5240695 Z M96.6832338,85.0314667 C95.6802197,85.0314667 94.7207831,85.0827343 93.7759944,84.9944808 C93.5668958,84.9765371 93.2446423,84.4821709 93.2413465,84.203861 C93.1970366,81.9151286 93.2190085,79.6223681 93.2153465,77.3336357 C93.2120507,75.4187906 92.3767549,74.3934385 90.7951493,74.3421709 C89.0923324,74.2909033 87.7956282,75.5176639 87.7553465,77.3336357 C87.7040789,79.4909033 87.7406986,81.6478047 87.7406986,83.8043399 L87.7406986,85.0351286 C86.7413465,85.0351286 85.8804169,85.0058329 85.0275437,85.0461146 C84.3973183,85.0754103 84.2325296,84.8113822 84.2402197,84.2258329 C84.2618254,81.9371005 84.2512056,79.6447061 84.2471775,77.3559737 C84.2435155,75.3565371 83.4126141,74.3568188 81.7606986,74.3421709 C80.0505577,74.331185 78.8021915,75.5725934 78.7798535,77.3962554 C78.7505577,79.8823681 78.7728958,82.368847 78.7728958,85.0237765 C77.7178817,85.0237765 76.7071775,85.0420864 75.6964732,85.0021709 C75.5576845,84.9985089 75.3086704,84.7165371 75.3046423,84.5627343 C75.2863324,80.3547624 75.2899944,76.1434948 75.2899944,71.9582272 C77.5388113,71.4601991 77.9636,71.6432977 78.5235155,73.3937202 C79.7576,72.1376639 81.2077408,71.3979455 82.9548676,71.4601991 C84.6829521,71.5187906 86.0968394,72.2145653 87.0269803,73.7965371 C88.6016282,71.9985089 90.4725296,71.1635793 92.8235155,71.5700582 C94.8892338,71.9252695 96.5697127,73.4962554 96.6502761,75.5652695 C96.7747831,78.6742836 96.6832338,81.7942836 96.6832338,85.0314667 Z M113.39662,77.4109399 C113.477183,78.5168554 113.407606,79.6846582 113.129296,80.7579822 C111.920845,85.4269962 106.647606,86.6610808 103.48,83.7095315 L103.48,91.4029681 L100.012113,91.4029681 L100.012113,71.9469117 C102.110423,71.4455878 102.66338,71.6689681 103.132113,73.0601512 C104.142817,72.5731089 105.116901,71.8520667 106.197183,71.6286864 C109.932394,70.8483202 113.1,73.4157286 113.39662,77.4109399 Z M108.837465,81.4903765 C110.261972,79.9340385 110.272958,76.9052216 108.874085,75.3309399 C108.009859,74.3568554 106.629296,73.9577005 105.428169,74.411785 C104.238028,74.8658695 103.578873,75.7703765 103.46169,77.0410808 C103.421408,77.5024892 103.454366,77.9675596 103.454366,78.4322639 C103.454366,78.8607146 103.414085,79.2968554 103.46169,79.7253061 C103.604507,81.013954 104.216056,81.9774188 105.501408,82.3912216 C106.797746,82.8086864 107.921972,82.4897286 108.837465,81.4903765 Z M73.1696394,82.6660526 C73.250569,83.4456864 73.3344282,84.2293484 73.4149915,84.9873765 C71.4964845,85.7673765 70.0569634,85.3682216 68.6837239,83.6947005 C67.3438085,84.8262498 65.8094423,85.3942216 64.0256958,85.313292 C61.7552732,85.2070948 59.9795831,83.7423061 59.7049352,81.6590103 C59.4302873,79.5533765 60.6167662,77.7037146 62.9161183,77.1873765 C64.5973296,76.8101934 66.3697239,76.8358272 68.2300056,76.6710385 C68.4350761,75.3197709 67.6697239,74.1516019 66.1349915,74.1625878 C64.5424,74.1772357 62.9494423,74.521461 61.2059775,74.7375174 C61.004569,74.1918836 60.7266254,73.4338554 60.4043718,72.5623061 C62.986062,71.7017427 65.4941465,71.0059681 68.1384563,71.78963 C70.3539493,72.448785 71.5770479,74.1479399 71.5949915,76.4549822 C71.6096394,78.0149822 71.5986535,79.5749822 71.5986535,81.1349822 C71.6026817,82.5122498 71.7747944,82.6876582 73.1696394,82.6660526 Z M68.1531042,80.9189258 C68.6474704,79.472447 68.3761183,79.0220244 66.8966817,78.8425878 C66.6696394,78.813292 66.4389352,78.7839962 65.9225972,78.7254047 C65.4212732,78.8901934 64.5749915,78.9927286 63.9638085,79.4248413 C63.5024,79.751123 63.0556394,80.5380808 63.117893,81.0544188 C63.1871042,81.6220244 63.7440901,82.321461 64.278738,82.6037991 C65.7504845,83.3801371 67.6111324,82.5008977 68.1531042,80.9189258 Z M47.0014817,81.0984357 C47.0051437,82.61083 46.3203549,83.782661 44.9983831,84.5297033 C43.0428901,85.6319568 40.9665521,85.4159005 38.8938761,85.0130836 C38.0955662,84.8556188 37.3192282,84.566323 36.433031,84.309985 C36.6783831,83.4494216 36.8944394,82.6987174 37.1288056,81.8820977 C38.2383831,82.1494216 39.3003549,82.482661 40.3879606,82.6364639 C41.0873972,82.7353371 41.8710592,82.7133653 42.5228901,82.482661 C42.9476789,82.3325202 43.4200732,81.7319568 43.4713408,81.2888582 C43.5079606,80.929985 43.0282423,80.3294216 42.6364113,80.149985 C41.7721859,79.754492 40.8237352,79.5384357 39.9009183,79.2857596 C37.7183831,78.6888582 36.5538761,77.4035061 36.5502141,75.5395624 C36.5502141,73.5547737 37.985707,72.0057596 40.204862,71.6029427 C42.0541577,71.2660413 44.6358479,71.5992808 46.5437352,72.4598441 C46.2983831,73.258154 46.0676789,74.0088582 45.8369746,74.7595624 C44.6212,74.5325202 43.4676789,74.2578723 42.2995099,74.1260413 C41.7685239,74.0637878 41.1459887,74.162661 40.6809183,74.4080131 C40.3403549,74.5837878 40.0217634,75.1111117 40.0107775,75.4956188 C39.9997915,75.8105484 40.3842986,76.2829427 40.7138761,76.4367455 C41.4242986,76.766323 42.2116225,76.9384357 42.9659887,77.1764639 C43.5665521,77.3668864 44.1854254,77.5060413 44.756693,77.7587174 C46.1885239,78.3959005 46.9978197,79.5091399 47.0014817,81.0984357 Z M34.8289775,84.8959371 C33.1115127,85.3426977 31.4563014,85.6173455 29.8194,84.9252329 C28.2337662,84.255092 27.4061606,83.0026977 27.3878507,81.266923 C27.3695408,79.05143 27.3841887,76.8322751 27.3841887,74.4886131 L25.014893,74.4886131 L25.014893,71.8226977 L27.3695408,71.8226977 L27.3695408,68.014247 L30.8191183,68.014247 L30.8191183,71.7604441 L34.4371465,71.7604441 L34.4371465,74.4703033 L30.9179915,74.4703033 C30.9179915,76.7773455 30.855738,78.9891765 30.9509493,81.1936836 C30.991231,82.1055146 31.767569,82.5266413 32.6574282,82.5266413 C33.2103859,82.5303033 33.7633437,82.4241061 34.3932028,82.3618526 C34.5396817,83.2077681 34.6788366,84.0097399 34.8289775,84.8959371 Z M58.1484873,85.1377005 C56.628769,85.1596723 55.2335577,85.3684047 53.9006,85.1629681 C51.8352479,84.8407146 50.6780648,83.251785 50.6597549,81.1315033 C50.645107,79.3038131 50.656093,77.4768554 50.656093,75.6531934 L50.656093,74.4740385 C50.0372197,74.4740385 49.5428535,74.4374188 49.0558113,74.4850244 C48.3380648,74.5546019 48.1146845,74.2433343 48.1696141,73.5658695 C48.2135577,73.0129117 48.176938,72.456292 48.176938,71.7934751 L50.656093,71.7934751 L50.656093,68.0033343 L54.0763746,68.0033343 L54.0763746,71.7678413 L57.7676423,71.7678413 C57.7676423,72.5877568 57.8115859,73.3351653 57.7310225,74.0675596 C57.7127127,74.2286864 57.2549662,74.4410808 56.9913042,74.4557286 C56.0721493,74.5033343 55.1529944,74.4740385 54.1313042,74.4740385 C54.1313042,76.744461 54.0690507,78.8940385 54.1606,81.036292 C54.1972197,81.9664329 54.9039803,82.5047427 55.8597549,82.5267146 C56.4127127,82.5373343 56.9693324,82.4278413 57.6431352,82.3619258 C57.7932761,83.1895315 57.9430507,84.0167709 58.1484873,85.1377005 Z M0,91.4032244 L0,89.2206892 L98.3459155,89.2206892 L98.3459155,91.4032244 L0,91.4032244 Z M104.915493,91.4032244 L104.915493,89.2206892 L113.429577,89.2206892 L113.429577,91.4032244 L104.915493,91.4032244 Z M22.5138028,71.8519568 L22.5138028,85.0350554 C21.5104225,85.0350554 20.5876056,85.0643512 19.6647887,85.0094216 C19.4633803,84.9984357 19.111831,84.698154 19.111831,84.5260413 C19.0825352,80.3184357 19.0898592,76.11083 19.0898592,71.8519568 L22.5138028,71.8519568 Z M22.9495775,68.032447 C22.9605634,69.2775174 22.0853521,70.1563906 20.8402817,70.1527286 C19.628169,70.1454047 18.8225352,69.325123 18.8152113,68.0837146 C18.8078873,66.7507568 19.5622535,65.9927286 20.8878873,66.0000526 C22.1256338,66.0037146 22.9422535,66.8056864 22.9495775,68.032447 Z" id="Bitstamp" fill="#929497"></path>
                                <path d="M230.288006,92.0001477 C229.51924,91.6645007 229.02376,91.4701944 228.54793,91.2375029 C224.010611,89.0183046 219.504732,86.7345359 214.925695,84.6022249 C213.479461,83.9285503 212.825572,83.0941937 213.039605,81.5308164 C213.145412,80.7586496 213.058046,79.9605952 213.058046,78.9200298 C213.725539,79.1628384 214.231902,79.2985255 214.694431,79.5225877 C219.330301,81.7688639 223.939569,84.0698911 228.602647,86.259631 C229.871125,86.8550474 230.472111,87.5894241 230.307958,88.9894413 C230.201848,89.8949147 230.288006,90.8221099 230.288006,92.0001477 Z M230.288006,85.5134114 C229.513799,85.1929399 229.054293,85.0301749 228.619274,84.8186101 C223.977962,82.5616218 219.357509,80.26238 214.690501,78.0580597 C213.481879,77.4873407 212.890266,76.7821248 213.039,75.4353708 C213.139971,74.5215657 213.058046,73.5881217 213.058046,72.3916352 C213.802324,72.7147848 214.294782,72.9067106 214.767891,73.1373192 C219.362044,75.3752637 223.927779,77.6718275 228.560022,79.8297286 C229.911937,80.4596619 230.470599,81.2544432 230.30554,82.6857041 C230.210011,83.5114315 230.288006,84.3565003 230.288006,85.5134114 Z M230.288006,79.1501921 C229.468151,78.7818135 228.931254,78.559239 228.410985,78.303933 C223.873061,76.0787835 219.363253,73.7956099 214.786937,71.6502064 C213.441975,71.0196779 212.874848,70.2287649 213.040814,68.7969089 C213.136041,67.97624 213.058046,67.1362297 213.058046,66.0001477 C213.802627,66.2968145 214.337407,66.4726721 214.838631,66.7157782 C219.429156,68.9459862 223.993077,71.2309451 228.614135,73.3974754 C229.891077,73.996165 230.469087,74.7358978 230.307656,76.1278808 C230.202755,77.0342469 230.288006,77.9617397 230.288006,79.1501921 Z M244.90634,85.3471947 C244.90634,79.7334383 244.876714,74.5416212 244.94957,69.3509943 C244.957127,68.8022947 245.440818,68.0944008 245.919067,67.7551831 C246.712017,67.1927957 247.680607,66.8699437 248.817582,66.3310636 C248.872601,67.0639525 248.943341,67.5754572 248.943946,68.0869618 C248.953015,72.4396613 248.852952,76.7953364 248.995943,81.1435725 C249.05459,82.9188121 248.463581,83.929324 246.809964,84.4720724 C246.222583,84.6648909 245.678431,84.9868503 244.90634,85.3471947 Z M242.68212,69.3719723 C242.751046,69.9066866 242.829343,70.2345971 242.829948,70.56221 C242.83811,75.4189752 242.81846,80.276038 242.850504,85.132208 C242.856248,86.0350034 242.597172,86.6429173 241.722599,87.0041545 C240.812354,87.3802696 239.933851,87.8298819 238.831339,88.34585 C238.795969,87.5805271 238.750623,87.0556323 238.750019,86.5301423 C238.744577,82.2188036 238.841315,77.9041917 238.702254,73.5970188 C238.643607,71.778633 239.190782,70.6737948 240.955043,70.1402708 C241.506752,69.9733399 242.016743,69.6731024 242.68212,69.3719723 Z M232.223916,91.3256995 L232.223916,85.4265836 C232.223916,82.4596184 232.321864,79.488785 232.184314,76.5280685 C232.110551,74.9355304 232.634751,73.9988133 234.142051,73.5030793 C234.747571,73.3043096 235.310164,72.9778868 236.133949,72.598201 C236.206805,73.3483484 236.305054,73.9027016 236.306868,74.4573524 C236.32017,78.5609946 236.314124,82.6649344 236.314124,86.7688742 C236.314124,89.9081263 235.790529,90.5264548 232.223916,91.3256995 Z" id="Bitcoin-magazine" fill="#929497"></path>
                                <g id="CNN" transform="translate(204.000000, 0.000000)">
                                    <path d="M17.5742454,18.4258991 C18.0759944,18.375905 18.4275599,17.9762611 18.4275599,17.5272404 L18.4275599,4.74635015 C18.4275599,0.00339465875 24.5515656,-2.29324629 27.81433,3.24868843 C31.1276728,8.88999407 33.0347532,12.1852819 33.0347532,12.1852819 L33.0347532,4.74635015 C33.0347532,0.00339465875 39.1593794,-2.29324629 42.4224542,3.24868843 C44.1709254,6.22273191 45.9110732,9.20160793 47.6428773,12.1852819 L47.6428773,0.103382789 L54.971763,0.103382789 L54.971763,21.271549 C54.971763,26.7131869 48.5464598,27.5618516 45.9356276,23.2185401 C44.3798025,20.672546 40.3642595,14.0822789 40.3642595,14.0822789 L40.3642595,21.2718576 C40.4139069,26.7134955 33.9886037,27.5621602 31.3281241,23.2188487 C29.772299,20.6728546 25.8064034,14.0825875 25.8064034,14.0825875 L25.8064034,20.5728665 C25.8064034,23.9181484 23.8487447,25.6654718 20.7867419,25.6654718 L13.7088858,25.6654718 C-4.41272214,25.6654718 -4.5632158,0.103691395 13.4578561,0.103691395 L17.4737094,0.103691395 L17.4737094,7.34295549 L13.0560226,7.34295549 C5.67686883,7.34295549 4.87382228,18.4265163 13.5580818,18.4265163 L17.5742454,18.4265163 L17.5742454,18.4258991 Z" id="Shape-Copy" fill="#929497"></path>
                                    <path d="M51.3074753,0.103074184 L51.3074753,20.8216024 C51.3074753,22.119905 50.0523272,22.4195608 49.4003949,21.5209021 C49.4003949,21.5209021 40.8666291,7.89134718 38.7078984,4.34670623 C38.0550353,3.44804748 36.6999718,3.74770326 36.6999718,5.09569139 L36.6999718,20.8216024 C36.6999718,22.119905 35.4950917,22.4195608 34.8425388,21.5209021 C34.8425388,21.5209021 26.2588152,7.89134718 24.1003949,4.34670623 C23.447842,3.44804748 22.0924683,3.74770326 22.0924683,5.09569139 L22.0924683,20.7222315 C22.0924683,21.4209139 21.540141,22.0199169 20.7873625,22.0199169 L13.2068265,22.0199169 C0.305952045,22.0199169 0.707785614,3.74770326 12.9058392,3.74770326 L17.5742454,3.74770326" id="Shape" stroke="#FFFFFF" stroke-width="1.319"></path>
                                </g>
                                <g id="Bitwala" transform="translate(387.000000, 64.000000)" fill="#929497" fill-rule="nonzero">
                                    <path d="M0.116503497,0.0204188482 C0.308391608,0.204188482 0.548251748,0.326701571 0.774405594,0.469633508 C2.33692308,1.47015707 3.90629371,2.46387435 5.47566434,3.45759162 C5.61958042,3.5460733 5.65384615,3.64136126 5.65384615,3.79790576 C5.64699301,7.26230366 5.65384615,10.7267016 5.65384615,14.1910995 C5.65384615,15.9675393 6.27748252,17.4853403 7.57272727,18.7172775 C8.57328671,19.6701571 9.77258741,20.221466 11.1637762,20.3575916 C13.9735664,20.6366492 16.5777622,19.0303665 17.5509091,16.4167539 C18.853007,12.9455497 16.7148252,9.09319372 13.0552448,8.35811518 C10.9102098,7.92931937 9.0393007,8.50104712 7.46307692,10.0052356 C7.42195804,10.039267 7.40825175,10.1005236 7.38083916,10.1481675 C7.36027972,10.134555 7.33972028,10.1141361 7.31230769,10.1005236 C7.31230769,10.039267 7.31230769,9.97801047 7.31230769,9.91675393 C7.31230769,7.86125654 7.31230769,5.80575916 7.30545455,3.75026178 C7.30545455,3.58691099 7.36027972,3.52565445 7.5041958,3.47120419 C9.1558042,2.82460733 10.8759441,2.53193717 12.6372028,2.70890052 C17.4960839,3.19895288 20.8883916,5.7104712 22.7455944,10.2026178 C23.3829371,11.7340314 23.5953846,13.3539267 23.4788811,15.0078534 C23.2732867,18.1387435 21.9986014,20.7727749 19.6822378,22.8963351 C18.0169231,24.4277487 16.0432168,25.373822 13.7953846,25.7685864 C12.7194406,25.952356 11.6366434,26 10.5606993,25.8842932 C8.31972028,25.6460733 6.29804196,24.8429319 4.52307692,23.447644 C2.2958042,21.691623 0.890909091,19.4183246 0.294685315,16.6617801 C0.123356643,15.8722513 0.0616783217,15.0623037 0.0616783217,14.252356 C0.0685314685,9.57643979 0.0616783217,4.90052356 0.0616783217,0.22460733 C0.0616783217,0.163350785 0.0685314685,0.0952879581 0.0685314685,0.0340314136 C0.0890909091,0.0204188482 0.102797203,0.0204188482 0.116503497,0.0204188482 Z M97.9314685,20.173822 C97.02,20.173822 96.1016783,20.1670157 95.1902098,20.1806283 C95.0325874,20.1806283 94.9846154,20.1397906 94.9914685,19.9832461 C95.0051748,19.6769634 94.9983217,19.3638743 94.9983217,19.0167539 C94.7241958,19.2685864 94.4774825,19.4931937 94.2033566,19.6769634 C93.4015385,20.221466 92.5037762,20.3984293 91.5443357,20.3575916 C90.811049,20.3303665 90.1188811,20.1806283 89.4883916,19.7926702 C88.5700699,19.2277487 88.0972028,18.3973822 88.0286713,17.3424084 C87.9738462,16.5528796 88.1040559,15.8041885 88.5837762,15.1439791 C89.1046154,14.4293194 89.831049,14.034555 90.6671329,13.8371728 C92.0514685,13.5104712 93.428951,13.578534 94.7858741,14.0005236 C95.0257343,14.0753927 95.0188811,14.0753927 95.012028,13.8167539 C94.9846154,12.4350785 94.0114685,11.9858639 93.0177622,11.9314136 C91.934965,11.8701571 90.8932867,12.0471204 89.8858741,12.4350785 C89.7556643,12.4895288 89.693986,12.4759162 89.646014,12.326178 C89.4335664,11.6591623 89.2142657,10.9921466 88.9881119,10.3319372 C88.946993,10.2094241 88.9744056,10.1685864 89.0909091,10.1209424 C90.4615385,9.54921466 91.8801399,9.28376963 93.3672727,9.3382199 C94.1005594,9.36544503 94.8201399,9.44031414 95.5054545,9.70575916 C96.7458741,10.182199 97.438042,11.121466 97.7601399,12.3602094 C97.8355245,12.6596859 97.8766434,12.9727749 97.9314685,13.2858639 C97.9314685,15.5795812 97.9314685,17.8801047 97.9314685,20.173822 Z M36.0064336,12.8570681 C36.5546853,13.0748691 37.0481119,13.3403141 37.4935664,13.6942408 C38.2268531,14.2795812 38.5695105,15.0486911 38.6174825,15.960733 C38.6586014,16.7026178 38.5900699,17.4172775 38.22,18.0842932 C37.6991608,19.0235602 36.8493706,19.5340314 35.8556643,19.8403141 C35.0538462,20.0853403 34.2246154,20.173822 33.3885315,20.1806283 C31.2160839,20.1874346 29.0504895,20.1806283 26.878042,20.1874346 C26.693007,20.1874346 26.645035,20.1465969 26.645035,19.9560209 C26.6518881,15.4434555 26.6518881,10.9308901 26.645035,6.41832461 C26.645035,6.22094241 26.6998601,6.18010471 26.8917483,6.18010471 C29.166993,6.19371728 31.4422378,6.16649215 33.7174825,6.20732984 C34.8756643,6.22774869 35.9653147,6.54764398 36.8425175,7.36439791 C37.658042,8.11989529 37.9116084,9.07958115 37.8293706,10.1413613 C37.7402797,11.339267 37.1166434,12.2172775 36.074965,12.8094241 C36.0612587,12.8094241 36.0475524,12.8230366 36.0064336,12.8570681 Z M62.6446154,13.6670157 C62.2334266,14.9534031 61.8290909,16.1989529 61.4316084,17.4445026 C61.1437762,18.3293194 60.8627972,19.2141361 60.5818182,20.1057592 C60.5475524,20.221466 60.4927273,20.2691099 60.3625175,20.2691099 C59.5675524,20.2623037 58.7725874,20.2623037 57.9776224,20.2691099 C57.82,20.2691099 57.772028,20.2078534 57.7377622,20.078534 C56.887972,17.2947644 56.0313287,14.517801 55.1746853,11.7340314 C54.9622378,11.0329843 54.7497902,10.3251309 54.5236364,9.63089005 C54.4825175,9.4947644 54.4893706,9.44712042 54.646993,9.44712042 C55.5584615,9.4539267 56.4767832,9.4539267 57.3882517,9.44712042 C57.5184615,9.44712042 57.5664336,9.48795812 57.6006993,9.6104712 C58.148951,11.6795812 58.7040559,13.7486911 59.2523077,15.817801 C59.2591608,15.8518325 59.2728671,15.8790576 59.3002797,15.960733 C59.4921678,15.3413613 59.6703497,14.7764398 59.8416783,14.2183246 C60.3213986,12.6732984 60.807972,11.1350785 61.2808392,9.59005236 C61.321958,9.44712042 61.3836364,9.40628272 61.5275524,9.40628272 C62.2813986,9.41308901 63.0283916,9.41308901 63.7822378,9.40628272 C63.933007,9.40628272 63.980979,9.4539267 64.0220979,9.59005236 C64.6662937,11.6591623 65.3173427,13.7282723 65.9683916,15.7973822 C65.9820979,15.8450262 65.988951,15.8926702 66.0437762,15.9403141 C66.2013986,15.3549738 66.3658741,14.7832461 66.5234965,14.204712 C66.9346853,12.6801047 67.3527273,11.1554974 67.7639161,9.62408377 C67.7981818,9.4947644 67.8461538,9.44031414 68.0037762,9.44031414 C68.880979,9.44712042 69.765035,9.4539267 70.6422378,9.44031414 C70.840979,9.44031414 70.840979,9.50157068 70.7861538,9.6513089 C69.9500699,12.3125654 69.1208392,14.9806283 68.2916084,17.6418848 C68.0448951,18.4450262 67.7913287,19.2413613 67.5514685,20.0513089 C67.5034965,20.2146597 67.4281119,20.2623037 67.2567832,20.2623037 C66.4892308,20.2486911 65.7285315,20.2486911 64.960979,20.2623037 C64.7759441,20.2623037 64.7074126,20.2078534 64.6594406,20.0376963 C64.0152448,17.9617801 63.3573427,15.8858639 62.6994406,13.8099476 C62.6925874,13.7827225 62.6788811,13.7486911 62.6446154,13.6670157 Z M78.4411189,18.9963351 C78.0984615,19.3502618 77.7558042,19.6157068 77.3788811,19.8403141 C76.7141259,20.2282723 75.9808392,20.3643979 75.226993,20.3712042 C74.4046154,20.3712042 73.6027972,20.2350785 72.8969231,19.7858639 C71.9717483,19.1937173 71.5057343,18.3429319 71.4646154,17.2539267 C71.4372028,16.5052356 71.5605594,15.8041885 72.006014,15.1712042 C72.52,14.4429319 73.2532867,14.0413613 74.1030769,13.8439791 C75.5011189,13.5104712 76.8923077,13.5853403 78.2629371,14.0209424 C78.4274126,14.0753927 78.4616783,14.0549738 78.4616783,13.8848168 C78.4616783,12.4759162 77.5022378,12.0062827 76.4811189,11.9382199 C75.3914685,11.8701571 74.3429371,12.0539267 73.3286713,12.4486911 C73.1779021,12.5099476 73.1367832,12.4623037 73.0956643,12.3329843 C72.8832168,11.6727749 72.6707692,11.0125654 72.4446154,10.3591623 C72.3966434,10.2298429 72.4240559,10.182199 72.5474126,10.1277487 C74.0825175,9.47434555 75.693007,9.24973822 77.3514685,9.37225131 C78.0641958,9.41989529 78.7632168,9.57643979 79.4005594,9.92356021 C80.4627972,10.5020942 81.0041958,11.4413613 81.2577622,12.5848168 C81.3742657,13.1225131 81.387972,13.673822 81.387972,14.2183246 C81.387972,16.1308901 81.387972,18.0502618 81.387972,19.9628272 C81.387972,20.1329843 81.3605594,20.1874346 81.1755245,20.1874346 C80.3325874,20.173822 79.4896503,20.173822 78.6467133,20.1874346 C78.4685315,20.1874346 78.4342657,20.1329843 78.4411189,19.9764398 C78.4548252,19.6633508 78.4411189,19.3638743 78.4411189,18.9963351 Z M52.6664336,17.3219895 C52.6664336,18.1115183 52.6664336,18.873822 52.6664336,19.6293194 C52.6664336,19.7314136 52.6116084,19.7586387 52.5430769,19.7994764 C51.9537063,20.1193717 51.3163636,20.3031414 50.6447552,20.3371728 C50.0759441,20.3712042 49.513986,20.3507853 48.9588811,20.1942408 C47.9446154,19.908377 47.4237762,19.1801047 47.2113287,18.2 C47.1222378,17.7984293 47.1222378,17.3900524 47.1222378,16.9816754 C47.1222378,15.4094241 47.1153846,13.8439791 47.1290909,12.2717277 C47.1290909,12.0675393 47.0674126,12.0198953 46.8755245,12.0335079 C46.5808392,12.0471204 46.2793007,12.0335079 45.9846154,12.0403141 C45.8544056,12.0471204 45.8132867,11.9994764 45.8132867,11.8701571 C45.8201399,11.1146597 45.8201399,10.3659686 45.8132867,9.6104712 C45.8132867,9.46073298 45.874965,9.44031414 45.9983217,9.44031414 C46.3067133,9.44712042 46.621958,9.43350785 46.9372028,9.44712042 C47.087972,9.4539267 47.1290909,9.40628272 47.1290909,9.2565445 C47.1222378,8.47382199 47.1290909,7.69109948 47.1222378,6.91518325 C47.1222378,6.7382199 47.1770629,6.6973822 47.3483916,6.6973822 C48.2118881,6.70418848 49.0753846,6.70418848 49.9457343,6.6973822 C50.1170629,6.6973822 50.1718881,6.7382199 50.1718881,6.91518325 C50.165035,7.69790576 50.1718881,8.48062827 50.165035,9.2565445 C50.165035,9.40628272 50.2061538,9.44712042 50.3569231,9.44031414 C51.0696503,9.43350785 51.7892308,9.44031414 52.501958,9.43350785 C52.6595804,9.43350785 52.7212587,9.46073298 52.7144056,9.63769634 C52.7006993,10.3727749 52.7075524,11.1010471 52.7144056,11.8361257 C52.7144056,11.9926702 52.6801399,12.0403141 52.5156643,12.0335079 C51.8097902,12.0267016 51.0970629,12.0335079 50.3911888,12.0267016 C50.2198601,12.0267016 50.1581818,12.060733 50.1581818,12.2445026 C50.165035,13.6670157 50.1581818,15.0895288 50.165035,16.5120419 C50.165035,16.6685864 50.1787413,16.8251309 50.2061538,16.9748691 C50.2883916,17.4036649 50.5967832,17.6554974 51.0627972,17.6759162 C51.5562238,17.6963351 52.0290909,17.6010471 52.4813986,17.3968586 C52.5293706,17.3764398 52.5773427,17.3560209 52.6664336,17.3219895 Z M86.4935664,12.8706806 C86.4935664,15.2256545 86.4935664,17.5874346 86.5004196,19.9424084 C86.5004196,20.1193717 86.473007,20.1806283 86.2742657,20.173822 C85.4039161,20.1602094 84.5335664,20.1670157 83.6563636,20.173822 C83.5055944,20.173822 83.4507692,20.1534031 83.4507692,19.9832461 C83.4576224,15.239267 83.4576224,10.495288 83.4507692,5.7513089 C83.4507692,5.58795812 83.5055944,5.5539267 83.6563636,5.5539267 C84.5198601,5.56073298 85.3833566,5.56073298 86.2537063,5.5539267 C86.4455944,5.5539267 86.5004196,5.5947644 86.5004196,5.7921466 C86.4935664,8.1539267 86.4935664,10.5157068 86.4935664,12.8706806 Z M43.7162238,14.8308901 C43.7162238,16.539267 43.7162238,18.2544503 43.7230769,19.9628272 C43.7230769,20.1397906 43.6751049,20.1806283 43.4969231,20.1806283 C42.6197203,20.173822 41.7425175,20.173822 40.8584615,20.1806283 C40.7076923,20.1806283 40.6528671,20.1602094 40.6528671,19.9900524 C40.6597203,16.539267 40.6597203,13.095288 40.6528671,9.64450262 C40.6528671,9.48795812 40.6871329,9.44712042 40.8516084,9.44712042 C41.7356643,9.4539267 42.6265734,9.4539267 43.5106294,9.44712042 C43.6888112,9.44712042 43.7162238,9.50157068 43.7162238,9.65811518 C43.7162238,11.3801047 43.7162238,13.1020942 43.7162238,14.8308901 Z M42.1674126,8.25602094 C41.6945455,8.25602094 41.2148252,8.24921466 40.741958,8.25602094 C40.6117483,8.25602094 40.5774825,8.22198953 40.5774825,8.09267016 C40.5843357,7.30314136 40.5843357,6.51361257 40.5774825,5.72408377 C40.5774825,5.58115183 40.6254545,5.5539267 40.7556643,5.5539267 C41.7082517,5.56073298 42.653986,5.56073298 43.6065734,5.5539267 C43.7573427,5.5539267 43.7984615,5.5947644 43.7984615,5.74450262 C43.7916084,6.52041885 43.7916084,7.29633508 43.7984615,8.06544503 C43.7984615,8.20837696 43.7641958,8.25602094 43.6134266,8.25602094 C43.1337063,8.24921466 42.6471329,8.25602094 42.1674126,8.25602094 Z M95.0531469,16.3078534 C95.0531469,16.2329843 95.0394406,16.1513089 95.0531469,16.0764398 C95.0874126,15.8858639 94.9983217,15.8041885 94.826993,15.7429319 C94.3678322,15.5795812 93.9018182,15.4706806 93.4220979,15.4434555 C92.8053147,15.4026178 92.1885315,15.4434555 91.6334266,15.7565445 C91.1331469,16.0424084 90.9344056,16.4984293 90.9686713,17.0497382 C91.0029371,17.6078534 91.325035,17.9617801 91.8458741,18.1455497 C92.3255944,18.3225131 92.819021,18.3020942 93.3124476,18.2204188 C94.1142657,18.0910995 95.0942657,17.5397906 95.0531469,16.3078534 Z M31.8123077,17.478534 C31.8123077,17.4717277 31.8123077,17.4717277 31.8123077,17.478534 C32.4359441,17.4717277 33.0595804,17.4717277 33.6900699,17.4649215 C34.066993,17.4581152 34.4302098,17.3764398 34.7728671,17.2198953 C35.2662937,16.9884817 35.5335664,16.6141361 35.5678322,16.0696335 C35.608951,15.4434555 35.3827972,14.9602094 34.8071329,14.660733 C34.4096503,14.4565445 33.971049,14.395288 33.5324476,14.3884817 C32.2988811,14.3816754 31.0653147,14.3884817 29.8317483,14.3816754 C29.6878322,14.3816754 29.6535664,14.4225131 29.6535664,14.5586387 C29.6604196,15.4706806 29.6604196,16.3895288 29.6535664,17.3015707 C29.6467133,17.4445026 29.6946853,17.478534 29.8317483,17.478534 C30.4965035,17.4717277 31.1544056,17.478534 31.8123077,17.478534 Z M31.5176224,8.85497382 C30.8802797,8.85497382 30.3594406,8.85497382 29.8248951,8.84816754 C29.6878322,8.84816754 29.6467133,8.88219895 29.6467133,9.02513089 C29.6535664,9.90314136 29.6535664,10.7879581 29.6467133,11.6659686 C29.6467133,11.8020942 29.6878322,11.8429319 29.8248951,11.8429319 C30.7706294,11.8361257 31.7095105,11.8497382 32.6552448,11.8361257 C33.1281119,11.8293194 33.5941259,11.7612565 34.0327273,11.5570681 C34.5535664,11.3120419 34.7797203,10.8900524 34.7797203,10.3387435 C34.7797203,9.79424084 34.5604196,9.37225131 34.0601399,9.12041885 C33.8134266,8.99790576 33.5461538,8.92984293 33.272028,8.89581152 C32.6552448,8.81413613 32.0316084,8.87539267 31.5176224,8.85497382 Z M76.159021,18.2680628 C76.4194406,18.2884817 76.6935664,18.2544503 76.9608392,18.1863874 C77.7146853,17.9753927 78.2903497,17.5670157 78.4685315,16.7570681 C78.5233566,16.5188482 78.4890909,16.2670157 78.5027972,16.0219895 C78.5165035,15.8858639 78.4616783,15.8246073 78.3383217,15.7769634 C77.6735664,15.5251309 76.9882517,15.4094241 76.2823776,15.4502618 C75.8506294,15.4774869 75.4257343,15.5591623 75.0488112,15.7905759 C74.5622378,16.0832461 74.3772028,16.5324607 74.4183217,17.0769634 C74.4594406,17.6146597 74.7746853,17.9549738 75.274965,18.1455497 C75.5559441,18.247644 75.8437762,18.2884817 76.159021,18.2680628 Z" id="Bitwala-Copy"></path>
                                </g>
                                <g id="coindesk" transform="translate(370.000000, 0.000000)" fill="#929497" fill-rule="nonzero">
                                    <path d="M1.10216807,15.2807018 C0.487673146,14.6918636 0.105269231,13.8642099 0.105269231,12.9475439 C0.105269231,11.9731063 0.537392851,11.0992545 1.22107874,10.5059374 C1.46476221,10.1817095 1.94976923,9.37444048 1.94976923,8.08508772 C1.94976923,6.85638233 1.50931575,6.06547565 1.25699139,5.71319632 C0.55256019,5.1195434 0.105269231,4.23226838 0.105269231,3.24087719 C0.105269231,1.45350934 1.55914702,0.00456140351 3.35259615,0.00456140351 C4.33633253,0.00456140351 5.21790197,0.440506818 5.8134079,1.12912463 C6.15120248,1.37625956 6.95451541,1.84052632 8.22244231,1.84052632 C9.4903692,1.84052632 10.2936821,1.37625956 10.6314767,1.12912463 C11.2269826,0.440506818 12.1085521,0.00456140351 13.0922885,0.00456140351 C14.0760248,0.00456140351 14.9575943,0.440506818 15.5531002,1.12912463 C15.8908948,1.37625956 16.6942077,1.84052632 17.9621346,1.84052632 C19.2300615,1.84052632 20.0333744,1.37625956 20.371169,1.12912463 C20.966675,0.440506818 21.8482444,0.00456140351 22.8319808,0.00456140351 C24.6254299,0.00456140351 26.0793077,1.45350934 26.0793077,3.24087719 C26.0793077,5.02824505 24.6254299,6.47719298 22.8319808,6.47719298 C21.8453167,6.47719298 20.9614286,6.03864887 20.3658598,5.34647484 C20.0250044,5.09839659 19.2234659,4.63894737 17.9621346,4.63894737 C16.7008033,4.63894737 15.8992648,5.09839659 15.5584095,5.34647484 C14.9628407,6.03864887 14.0789525,6.47719298 13.0922885,6.47719298 C12.1056244,6.47719298 11.2217363,6.03864887 10.6261675,5.34647484 C10.2853121,5.09839659 9.48377363,4.63894737 8.22244231,4.63894737 C6.96111098,4.63894737 6.15957248,5.09839659 5.81871716,5.34647484 C5.70690335,5.47642559 5.58492704,5.59743655 5.45401605,5.70828406 C5.20229314,6.05808978 4.75771154,6.85063778 4.75771154,8.08508772 C4.75771154,9.38218285 5.24856084,10.1913872 5.49076562,10.5117259 C6.17060121,11.1049305 6.59992308,11.9762705 6.59992308,12.9475439 C6.59992308,13.8642099 6.21751916,14.6918636 5.60302424,15.2807018 L5.62275,15.2807018 C5.62275,15.2807018 4.75771154,16.1359649 4.75771154,17.8578947 C4.75771154,18.972649 5.12025725,19.7270427 5.37593424,20.120457 C5.53666922,20.2482269 5.68496408,20.3908835 5.81871716,20.5463322 C6.15957248,20.7944104 6.96111098,21.2538596 8.22244231,21.2538596 C9.48377363,21.2538596 10.2853121,20.7944104 10.6261675,20.5463322 C11.2217363,19.8541582 12.1056244,19.415614 13.0922885,19.415614 C14.8857376,19.415614 16.3396154,20.864562 16.3396154,22.6519298 C16.3396154,24.4392977 14.8857376,25.8882456 13.0922885,25.8882456 C12.1085521,25.8882456 11.2269826,25.4523002 10.6314767,24.7636824 C10.2936821,24.5165475 9.4903692,24.0522807 8.22244231,24.0522807 C6.95451541,24.0522807 6.15120248,24.5165475 5.8134079,24.7636824 C5.21790197,25.4523002 4.33633253,25.8882456 3.35259615,25.8882456 C1.55914702,25.8882456 0.105269231,24.4392977 0.105269231,22.6519298 C0.105269231,21.6248879 0.585308012,20.7095849 1.33397472,20.1167148 C1.5895123,19.722269 1.94976923,18.9691246 1.94976923,17.8578947 C1.94976923,16.1359649 1.08473077,15.2807018 1.08473077,15.2807018 L1.10216807,15.2807018 Z M6.59992234,22.6542105 L9.84496227,22.6542105 C9.8449618,22.6534504 9.84496154,22.6526901 9.84496154,22.6519298 L6.59992308,22.6519298 C6.59992308,22.6526901 6.59992281,22.6534504 6.59992229,22.6542105 Z M9.84496154,3.24087719 C9.84496154,3.2401169 9.8449618,3.23935666 9.84496233,3.23859649 L6.59992234,3.23859649 C6.59992281,3.23935666 6.59992308,3.2401169 6.59992308,3.24087719 L9.84496154,3.24087719 Z M19.5846538,3.24087719 C19.5846538,3.2401169 19.5846541,3.23935666 19.5846546,3.23859649 L16.3396147,3.23859649 C16.3396151,3.23935666 16.3396154,3.2401169 16.3396154,3.24087719 L19.5846538,3.24087719 Z M13.0922885,14.1449123 C12.4287502,14.1449123 11.8908462,13.6088322 11.8908462,12.9475439 C11.8908462,12.2862555 12.4287502,11.7501754 13.0922885,11.7501754 C13.7558267,11.7501754 14.2937308,12.2862555 14.2937308,12.9475439 C14.2937308,13.6088322 13.7558267,14.1449123 13.0922885,14.1449123 Z M22.8319808,14.1449123 C22.1684425,14.1449123 21.6305385,13.6088322 21.6305385,12.9475439 C21.6305385,12.2862555 22.1684425,11.7501754 22.8319808,11.7501754 C23.495519,11.7501754 24.0334231,12.2862555 24.0334231,12.9475439 C24.0334231,13.6088322 23.495519,14.1449123 22.8319808,14.1449123 Z M22.8319808,23.8492982 C22.1684425,23.8492982 21.6305385,23.3132181 21.6305385,22.6519298 C21.6305385,21.9906415 22.1684425,21.4545614 22.8319808,21.4545614 C23.495519,21.4545614 24.0334231,21.9906415 24.0334231,22.6519298 C24.0334231,23.3132181 23.495519,23.8492982 22.8319808,23.8492982 Z" id="Combined-Shape-Copy-2"></path>
                                    <path d="M40.0796413,17.0389725 L40.1958321,16.8072024 L41.6794991,17.9571385 L41.5275573,18.1532516 C40.583308,19.3889311 39.0982637,20.0929691 37.5413195,20.0430691 C34.4676432,19.9219148 32.0384615,17.4014837 32.0384615,14.3335026 C32.0384615,11.2655216 34.4676432,8.74509041 37.5413195,8.62393608 C39.0723409,8.61055145 40.5212315,9.31329481 41.4560553,10.5226678 L41.5901216,10.7187809 L40.0528281,11.8687171 L39.9187618,11.636947 C39.4022516,10.8446608 38.5156171,10.3705677 37.5681327,10.3800401 C35.458823,10.3800401 33.9930316,12.020259 33.9930316,14.3379597 C33.9930316,16.6556604 35.4766986,18.2691367 37.5681327,18.2691367 C38.5601512,18.309711 39.5053473,17.8467436 40.0796413,17.0389725 Z M48.2129965,8.64176455 C49.7290763,8.60774118 51.1910733,9.20400299 52.248869,10.2877575 C53.3066648,11.371512 53.8649962,12.8451583 53.7901544,14.3557882 C53.7893345,16.6805109 52.3764698,18.7729955 50.2169404,19.6477989 C48.057411,20.5226023 45.5817674,20.0053129 43.9558991,18.3395451 C42.3300307,16.6737773 41.8780909,14.191639 42.8129178,12.0620785 C43.7477448,9.93251792 45.8829599,8.58011057 48.2129965,8.64176455 Z M48.2129965,18.2869651 L48.2129965,18.2691367 C50.2776175,18.2691367 51.7880977,16.6913174 51.7880977,14.3557882 C51.7880977,12.020259 50.3401817,10.3978685 48.2129965,10.3978685 C46.0858113,10.3978685 44.6378953,12.0380875 44.6378953,14.3557882 C44.6378953,16.6734889 46.1305001,18.2869651 48.2129965,18.2869651 Z M57.4278198,3.84590695 C58.1379892,3.86530123 58.7021129,4.44775171 58.6969808,5.15629927 C58.696671,5.69029374 58.3715094,6.17068708 57.8750494,6.37061984 C57.3785894,6.5705526 56.8101493,6.45002759 56.4381675,6.06596117 C56.0661857,5.68189475 55.9650783,5.11112062 56.182592,4.62317937 C56.4001057,4.13523813 56.8927262,3.82774396 57.4278198,3.84590695 Z M56.4357293,8.90919155 L58.3752216,8.90919155 L58.3752216,19.7934706 L56.4357293,19.7934706 L56.4357293,8.90919155 Z M66.830336,8.64176455 C67.9695771,8.59105057 69.071628,9.0523014 69.8334209,9.89867146 C70.5415811,10.838281 70.8959232,11.9963289 70.8344493,13.1701951 L70.8344493,19.7934706 L68.9396457,19.7934706 L68.9396457,13.7941915 C68.9396457,11.4140911 68.1978122,10.3978685 66.4728258,10.3978685 C65.0785364,10.3978685 63.6842469,11.5478047 63.6842469,14.2220747 L63.6842469,19.8023848 L61.7358168,19.8023848 L61.7358168,11.4497481 C61.7358168,10.8079233 61.7090035,9.8273576 61.655377,9.18553279 L61.655377,8.91810578 L63.5323051,8.91810578 L63.5323051,9.14096162 C63.5948694,9.44404556 63.5948694,9.8273576 63.5948694,10.1839269 C64.3928496,9.21951295 65.5767018,8.65523811 66.830336,8.64176455 Z M82.3999016,10.2463266 L82.3999016,2.50877193 L84.339394,2.50877193 L84.339394,19.7845564 L82.3999016,19.7845564 L82.3999016,18.4474213 C81.4892316,19.4612067 80.1895378,20.0412892 78.8248004,20.0430691 C75.7323379,20.0430691 73.4621486,17.6451403 73.4621486,14.3290455 C73.4621486,11.0129506 75.6876491,8.61502185 78.8248004,8.61502185 C80.1969077,8.61778141 81.5006684,9.21268233 82.3999016,10.2463266 Z M78.9767422,18.2691367 C79.9838594,18.2501233 80.9384782,17.8174724 81.6152174,17.0733308 C82.2919565,16.3291893 82.6308344,15.3395128 82.5518434,14.3379597 C82.5518434,12.0470017 81.0592387,10.3800401 78.9767422,10.3800401 C76.4920469,10.3800401 75.401641,12.3857426 75.401641,14.3379597 C75.401641,16.2901768 76.5367357,18.2691367 78.9767422,18.2691367 Z M92.2850564,8.64176455 C93.7144151,8.58740597 95.092615,9.17650878 96.0389126,10.2463266 C96.862312,11.3332903 97.2767166,12.6741946 97.2097583,14.0348758 C97.2097583,14.2399032 97.2097583,14.4895017 97.2097583,14.7658429 L97.2097583,14.9886988 L88.9602123,14.9886988 C89.0191299,16.5048472 90.0717246,17.8013966 91.5463698,18.1742375 C93.0210149,18.5470785 94.5657839,17.9072316 95.3417679,16.602175 L95.484772,16.3614907 L96.9773767,17.5827407 L96.8343727,17.7699396 C95.8198103,19.2288213 94.1455211,20.0904811 92.3654962,20.0698118 C90.8857924,20.0475312 89.4787398,19.4262793 88.4674355,18.3487123 C87.4561312,17.2711453 86.9274691,15.8298506 87.0028444,14.3557882 C87.0028444,11.0931787 89.2730336,8.64176455 92.2850564,8.64176455 Z M89.0585276,13.3128229 L95.3328302,13.3128229 C95.3285228,12.519205 95.001918,11.7612087 94.4275904,11.2119098 C93.8532628,10.6626109 93.0802499,10.3689099 92.2850564,10.3978685 C90.6356164,10.4421004 89.265289,11.6801002 89.0585276,13.3128229 Z M103.36787,13.3128229 C105.888316,13.8655053 107.014473,14.881728 107.005536,16.5843466 C107.005536,19.16056 104.940915,20.0519834 103.01036,20.0519834 C101.359765,20.098689 99.7993958,19.3020707 98.8721803,17.93931 L98.7470518,17.7521111 L100.302221,16.5486896 L100.445225,16.7982882 C100.97624,17.7088156 101.945465,18.2766519 103.001422,18.2958794 C103.957762,18.2958794 105.101794,18.0195381 105.101794,16.7180601 C105.101794,15.8801221 104.431463,15.4522389 102.340028,14.9352134 C101.428378,14.7123575 99.2922547,14.2666459 99.2922547,11.8954598 C99.2922547,9.52427366 101.312187,8.63285031 103.099737,8.63285031 C104.606651,8.59287713 106.021809,9.35288003 106.817843,10.6296386 L106.916158,10.8079233 L105.405678,11.9846021 L105.271611,11.7171751 C104.843596,10.8839028 103.975665,10.3679774 103.037173,10.3889543 C102.13446,10.3889543 101.169183,10.7544379 101.169183,11.7706605 C101.169183,12.555113 101.750137,12.9651678 103.36787,13.3128229 Z M113.217274,13.9189908 L119,19.8023848 L116.17567,19.8023848 L111.385034,14.6410437 L111.385034,19.8023848 L109.445542,19.8023848 L109.445542,2.50877193 L111.385034,2.50877193 L111.385034,13.3128229 L115.710907,8.90919155 L118.517361,8.90919155 L113.217274,13.9189908 Z" id="coindesk-copy"></path>
                                </g>
                            </g>
                        </g>
                    </g>
                </g>
            </g>
        </g>
    </g>
</svg>
