<?xml version="1.0" encoding="UTF-8"?>
<svg width="479px" height="90px" viewBox="0 0 479 90" version="1.1" xmlns="http://www.w3.org/2000/svg" xmlns:xlink="http://www.w3.org/1999/xlink">
    <!-- Generator: Sketch 49.3 (51167) - http://www.bohemiancoding.com/sketch -->
    <title>Group 66</title>
    <desc>Created with Sketch.</desc>
    <defs></defs>
    <g id="Page-1" stroke="none" stroke-width="1" fill="none" fill-rule="evenodd">
        <g id="Trezor-product-page-Copy-14" transform="translate(-756.000000, -3527.000000)">
            <g id="Cointainer-#5" transform="translate(208.000000, 3525.000000)">
                <g id="Path-4-+-Path-4-+-Path-4-Mask">
                    <g id="Group-12">
                        <g id="Group-9" transform="translate(0.000000, 2.000000)">
                            <g id="Group-66" transform="translate(548.000000, 0.000000)">
                                <g id="Forbes" fill="#929497" fill-rule="nonzero">
                                    <path d="M24.8056105,25.9286949 C23.0651933,25.6765563 21.5429742,24.943218 20.3805667,23.7969841 C19.4109488,22.8409436 18.7822654,21.789592 18.3188815,20.3490653 C17.5953107,18.0998946 17.5950953,15.2081955 18.3181637,13.0048941 C19.0189817,10.8696823 20.5968987,9.01104423 22.5280239,8.04607283 C25.2023865,6.70971674 28.9664479,6.79366768 31.4434273,8.24491152 C33.6725652,9.55097382 35.0228097,11.8717351 35.3985555,15.0424371 C35.5132531,16.0104807 35.4388217,18.0553113 35.2581622,18.8993219 C34.518729,22.3540996 32.3653144,24.7673855 29.2103417,25.6769135 C28.8703402,25.7748682 28.3431477,25.8896131 28.0388187,25.9316957 C27.3947753,26.0209338 25.4289824,26.0190761 24.8056105,25.9286949 Z M27.4094176,24.5414681 C27.9178766,24.3911424 28.5449092,23.8057721 28.8793121,23.1693168 C29.5695791,21.8554667 29.8778557,19.9125204 29.8855357,16.8273412 C29.8950819,12.9608824 29.2861368,10.5005125 28.0009211,9.21231215 C27.4612396,8.67131085 27.0785316,8.50333752 26.38848,8.50440924 C24.8570019,8.50683846 23.8850153,10.098334 23.5010153,13.2320261 C23.3245189,14.6725528 23.3235858,18.1042529 23.4993645,19.3636599 C24.0432807,23.2614128 25.4478594,25.1212655 27.4094176,24.5414681 Z M55.6319103,25.9278375 C54.9198236,25.8559613 52.7438714,25.4955081 51.9837667,25.3234622 L51.4579379,25.2044305 L51.4989219,22.4091857 C51.5976852,15.6791781 51.6101024,12.0051992 51.5461503,8.43224715 C51.4835619,4.93217168 51.4653308,4.56214451 51.3296748,4.04436368 C51.1578437,3.38833174 50.9098587,2.93078125 50.6116307,2.71936777 C50.4957847,2.63727447 50.1809764,2.52088631 49.9121047,2.46072743 C49.0184254,2.26088847 49.0669458,2.29289699 49.0431163,1.88707457 C49.0294071,1.653298 49.0548157,1.49882827 49.114892,1.4514585 C49.1954243,1.38787013 56.5257331,-0.00392929694 56.7592194,3.21565414e-07 C56.8263297,0.00114348331 56.8358041,0.934106364 56.8014236,4.14546205 C56.7770198,6.42464078 56.7738617,8.28942338 56.7944613,8.28942338 C56.8149892,8.28942338 57.0828561,8.17396405 57.3896972,8.03285502 C58.3145271,7.6075274 59.1669353,7.42297823 60.4049944,7.37996677 C61.2291948,7.35138772 61.6111133,7.36932107 62.0339439,7.45634426 C64.7989593,8.02585315 66.8451409,10.2786677 67.5601705,13.5407512 C67.7467155,14.3916922 67.8160508,16.5066844 67.6923095,17.5659666 C67.5867275,18.46885 67.2855566,19.6853885 66.9721839,20.4748131 C65.7895357,23.4538212 63.2523364,25.3972676 59.8863432,25.9023307 C59.1110221,26.018576 56.6763185,26.0332228 55.6319103,25.9278375 Z M58.5085368,24.5069589 C59.0299873,24.4084327 59.4350176,24.2018777 59.8699783,23.8125596 C60.9600359,22.8371569 61.7795708,20.8230488 62.1019155,18.3276696 C62.2331933,17.3113273 62.2155364,14.9954245 62.0700471,14.1471271 C61.6765009,11.8528729 60.8306961,10.3449711 59.5969436,9.73780931 C59.0851828,9.48595649 59.0063013,9.46823749 58.3991507,9.46823749 C57.9649794,9.46823749 57.5915305,9.51446409 57.273923,9.60763177 L56.7985525,9.74702606 L56.763526,12.3583647 C56.7185226,15.7033989 56.827837,24.0778446 56.9196381,24.3181229 C56.9781353,24.4714495 57.0426617,24.5040296 57.3332815,24.5267499 C58.0172321,24.5802642 58.1303507,24.5782637 58.5085368,24.5069589 Z M76.2674243,25.8923995 C72.70656,25.2531578 70.1599581,22.739488 69.3278624,19.0427887 C69.2208449,18.5673763 69.1735447,18.0352345 69.1467006,17.0059602 C69.1042093,15.3775978 69.2372815,14.3668285 69.6594662,13.1109224 C70.4701009,10.6995656 71.9228411,8.99082456 74.0331903,7.96669453 C76.2606056,6.88576365 79.305905,6.81495907 81.2771529,7.79829252 C83.4966011,8.90544467 84.8024882,11.1161051 85.1338049,14.3266749 C85.1784493,14.7590044 85.2042168,15.2733557 85.1912972,15.4698367 L85.167683,15.8270747 L79.8562811,15.8453653 L74.5448793,15.8637273 L74.5650482,16.4883938 C74.6119895,17.9354936 74.9245009,19.215549 75.5026542,20.3282741 C75.765425,20.8341231 75.9745794,21.1098395 76.4827514,21.6204755 C77.6305884,22.7742115 78.7725398,23.2207591 80.5739664,23.2207591 C81.8800688,23.2207591 82.8193256,22.9613328 83.8017196,22.3291644 C84.0768359,22.1520457 84.3556845,22.0072214 84.4212157,22.0072214 C84.5711551,22.0072214 84.9163963,22.4495536 84.9163963,22.6417477 C84.9163963,22.9566887 83.8865585,23.9718878 82.8821293,24.647282 C82.059508,25.2004294 80.7548411,25.7014201 79.6235843,25.8983297 C78.8313241,26.0364379 77.0515021,26.0332228 76.2674243,25.8923995 Z M78.5210378,14.2465821 L79.7697914,14.2033563 L79.724788,13.3203353 C79.5663073,10.20672 78.8008194,8.50512371 77.5593151,8.50655267 C76.2100037,8.50805307 75.1317174,10.2347989 74.6834064,13.112137 C74.6282826,13.4658027 74.5826333,13.8852001 74.5819155,14.0441711 L74.5806236,14.3331766 L75.9264179,14.311528 C76.6666407,14.2994534 77.8342161,14.2703027 78.5210378,14.2465821 Z M90.6225645,25.9617752 C89.3438086,25.8253102 87.3086804,25.3818349 86.631046,25.0918291 L86.3000882,24.9503628 L86.2549413,23.3180707 C86.2301069,22.420403 86.2015402,21.2200117 86.191348,20.6507171 L86.1728299,19.6156556 L86.3712179,19.5209875 C86.480317,19.4689737 86.7004531,19.4203179 86.8605129,19.4128873 L87.1514198,19.3994552 L87.3992613,20.0067598 C88.3662953,22.3759626 89.5004232,23.6533744 90.9817301,24.0419065 C91.5468202,24.1902317 92.6063731,24.1915177 93.0246819,24.0444071 C94.196492,23.632726 94.8390998,22.7494192 94.8446983,21.5428834 C94.8513017,20.1139312 94.0622714,19.4273912 91.0813548,18.2682966 C89.234566,17.5501767 88.5903073,17.1806497 87.8232404,16.3990843 C86.9957383,15.555931 86.5986034,14.5963182 86.5240284,13.2596049 C86.4339499,11.6444602 86.9416912,10.2828117 88.0670624,9.12257395 C89.1994677,7.95490568 90.6695776,7.32202275 92.6722632,7.14011714 C94.4357921,6.9799316 97.1428127,7.35224509 98.5611723,7.95004724 L98.8199237,8.05907629 L98.8660755,9.51389251 C98.8914841,10.3140343 98.917754,11.3866058 98.9244292,11.8974562 L98.936631,12.8262037 L98.5890931,12.9546665 C98.0397219,13.1577206 98.0035469,13.1322852 97.697926,12.3262133 C96.8412112,10.0667541 95.8458976,8.99768353 94.29504,8.67109651 C93.3498976,8.47204347 92.5603649,8.68602906 91.9864464,9.29676322 C91.5387813,9.77317588 91.3640793,10.1962886 91.3218034,10.9067636 C91.2758669,11.6765402 91.4141069,12.0926511 91.8866064,12.6072882 C92.4689226,13.2416001 93.423037,13.7891031 95.3237293,14.5797423 C97.6517024,15.5480718 98.7623596,16.370148 99.3662086,17.571611 C99.758391,18.3519618 99.869428,18.9751993 99.8300232,20.1748761 C99.8003798,21.0751159 99.7714542,21.2600938 99.5656733,21.8644691 C98.8948576,23.8349942 97.3806774,25.1323399 95.0413637,25.7406448 C94.2490318,25.9466283 94.1359133,25.9572025 92.5603649,25.9744928 C91.652474,25.9842097 90.7803993,25.9786368 90.6225645,25.9617752 Z M0.0953899065,25.532375 C0.0357442991,25.5083686 0.00567028037,25.3303212 0.00567028037,25.0007334 C0.00567028037,24.408647 -0.032155514,24.4351541 1.11819364,24.2227404 C2.00060411,24.0597684 2.31620187,23.8931525 2.70587215,23.3846599 C3.4613114,22.3986114 3.62460112,20.5002485 3.62632374,12.6834513 C3.6279028,5.3424953 3.48578692,3.79822667 2.70450841,2.66363864 C2.35783178,2.16029023 1.77364935,1.88693168 0.795131215,1.77032918 L0.0414863551,1.68051954 L0.0208149533,1.09479204 L0,0.509135984 L0.236142056,0.467267685 C0.366056075,0.444261555 4.92862206,0.43454468 10.3753211,0.44561906 L20.2784299,0.465910181 L20.324797,0.751700617 C20.3503492,0.908885357 20.3922662,2.52117211 20.4179619,4.33451243 L20.4646161,7.6315338 L19.9540755,7.78593208 C19.1855013,8.01827971 19.190095,8.02113761 18.8443514,7.11046638 C17.9951013,4.87358464 17.0212486,3.58466977 15.6886609,2.93378205 C14.7695731,2.48487672 14.3446609,2.43064798 11.7491798,2.43064798 L9.4903985,2.43064798 L9.4514243,2.80574793 C9.37835664,3.50914964 9.26315664,8.03399818 9.26394617,10.1648517 L9.2647357,12.290418 L9.92866093,12.2866313 C10.2938557,12.2845593 11.0139095,12.2578379 11.5288284,12.2271869 C12.3027858,12.1811032 12.5328269,12.1402352 12.8566789,11.9909811 C13.6523125,11.624312 14.1935731,10.8173827 14.5252486,9.50346116 L14.6964336,8.82513756 L15.2822669,8.8043463 L15.8681002,8.78355505 L15.8681002,17.3689141 L15.2820516,17.3481228 L14.696003,17.3273316 L14.5296269,16.6485793 C14.2171155,15.3732395 13.6155634,14.4602819 12.8722542,14.1329804 C12.528951,13.9818687 11.6795574,13.8959173 10.0363245,13.8461897 L9.2647357,13.8227549 L9.2647357,15.4354704 C9.2647357,17.1927957 9.36184822,19.5702149 9.48623551,20.8604873 C9.65964561,22.6592523 10.1214505,23.6530886 10.9506751,24.0128273 C11.1090123,24.0814884 11.6100785,24.1929467 12.063988,24.260679 C12.5179693,24.3283399 12.9459679,24.412791 13.0150161,24.4483719 C13.1902206,24.5383959 13.2005563,25.4700013 13.0271462,25.5361618 C12.8913465,25.5881756 0.22472972,25.584246 0.0953899065,25.532375 Z M35.4772935,25.5188 C35.411834,25.4773604 35.3904449,25.3125307 35.4055178,24.9659384 L35.4270505,24.4722354 L35.6782654,24.4190784 C35.8164336,24.3897849 36.1132262,24.3315551 36.3377406,24.2898297 C37.0327447,24.1605809 37.4321047,23.7851237 37.6569062,23.0495706 C37.840006,22.4504824 37.9206819,20.533686 37.9248449,16.684446 C37.9300127,11.9768345 37.8314647,10.8650382 37.353295,10.2348703 C37.0941129,9.89327931 36.9072807,9.79618201 36.2783821,9.67600713 C35.9680239,9.61670562 35.6414445,9.55311724 35.5526579,9.53468376 C35.4088194,9.50489011 35.3911626,9.45823482 35.3911626,9.10807009 C35.3911626,8.76762223 35.4127671,8.70610584 35.5526579,8.64880486 C35.7674108,8.5609243 42.8779424,7.14611874 43.1051125,7.14611874 L43.2823267,7.14611874 L43.2475873,8.19997098 C43.2284232,8.77955398 43.1979185,9.62356459 43.1796875,10.0754707 L43.1465271,10.8971182 L43.4041301,10.4347093 C44.2287611,8.95445773 45.1535193,8.03549858 46.3832523,7.4745634 C47.0583028,7.16655276 47.5087671,7.07467113 48.342729,7.07467113 C49.3317981,7.07467113 50.320652,7.39589958 50.320652,7.71727093 C50.320652,7.9333285 48.5780097,12.5168355 48.4819021,12.5534881 C48.4350325,12.57135 48.0947439,12.441887 47.725745,12.2655543 C46.956166,11.8979563 46.234246,11.7182656 45.533428,11.719766 C44.6606355,11.7216236 43.6857062,12.0416375 43.3008449,12.4526041 C43.1361914,12.6283652 43.1354019,12.6389395 43.0944897,15.2639961 C43.0540082,17.8636173 43.1410004,21.0346051 43.2878535,22.309945 C43.4129585,23.3964488 43.7030041,23.9313056 44.3019723,24.1804434 C44.5017959,24.2634655 45.7660531,24.43594 46.1786198,24.4363687 C46.209914,24.4363687 46.2259918,24.685578 46.2145077,24.9900877 L46.1935492,25.5438066 L40.8821473,25.5608112 C37.9607327,25.5703137 35.5286131,25.5514515 35.4772935,25.5188 Z" id="Forbes-Copy"></path>
                                </g>
                                <g id="CNN" transform="translate(212.000000, 0.000000)">
                                    <path d="M17.5742454,18.4258991 C18.0759944,18.375905 18.4275599,17.9762611 18.4275599,17.5272404 L18.4275599,4.74635015 C18.4275599,0.00339465875 24.5515656,-2.29324629 27.81433,3.24868843 C31.1276728,8.88999407 33.0347532,12.1852819 33.0347532,12.1852819 L33.0347532,4.74635015 C33.0347532,0.00339465875 39.1593794,-2.29324629 42.4224542,3.24868843 C44.1709254,6.22273191 45.9110732,9.20160793 47.6428773,12.1852819 L47.6428773,0.103382789 L54.971763,0.103382789 L54.971763,21.271549 C54.971763,26.7131869 48.5464598,27.5618516 45.9356276,23.2185401 C44.3798025,20.672546 40.3642595,14.0822789 40.3642595,14.0822789 L40.3642595,21.2718576 C40.4139069,26.7134955 33.9886037,27.5621602 31.3281241,23.2188487 C29.772299,20.6728546 25.8064034,14.0825875 25.8064034,14.0825875 L25.8064034,20.5728665 C25.8064034,23.9181484 23.8487447,25.6654718 20.7867419,25.6654718 L13.7088858,25.6654718 C-4.41272214,25.6654718 -4.5632158,0.103691395 13.4578561,0.103691395 L17.4737094,0.103691395 L17.4737094,7.34295549 L13.0560226,7.34295549 C5.67686883,7.34295549 4.87382228,18.4265163 13.5580818,18.4265163 L17.5742454,18.4265163 L17.5742454,18.4258991 Z" id="Shape-Copy" fill="#929497"></path>
                                    <path d="M51.3074753,0.103074184 L51.3074753,20.8216024 C51.3074753,22.119905 50.0523272,22.4195608 49.4003949,21.5209021 C49.4003949,21.5209021 40.8666291,7.89134718 38.7078984,4.34670623 C38.0550353,3.44804748 36.6999718,3.74770326 36.6999718,5.09569139 L36.6999718,20.8216024 C36.6999718,22.119905 35.4950917,22.4195608 34.8425388,21.5209021 C34.8425388,21.5209021 26.2588152,7.89134718 24.1003949,4.34670623 C23.447842,3.44804748 22.0924683,3.74770326 22.0924683,5.09569139 L22.0924683,20.7222315 C22.0924683,21.4209139 21.540141,22.0199169 20.7873625,22.0199169 L13.2068265,22.0199169 C0.305952045,22.0199169 0.707785614,3.74770326 12.9058392,3.74770326 L17.5742454,3.74770326" id="Shape" stroke="#FFFFFF" stroke-width="1.319"></path>
                                </g>
                                <g id="Bitpay" transform="translate(207.000000, 64.000000)" fill="#929497" fill-rule="nonzero">
                                    <path d="M74,6.16392045 L70.15052,6.16392045 L67.922676,15.5454886 L67.610248,16.8329318 C67.395352,16.8914318 67.180456,16.9497841 66.965412,16.9890795 C66.574544,17.0669318 66.164288,17.1059318 65.734644,17.1059318 C65.245948,17.1059318 64.855376,17.0280795 64.562188,16.8914318 C64.288388,16.7549318 64.073492,16.5600795 63.956276,16.2867841 C63.838912,16.0331364 63.79984,15.7211364 63.819376,15.3701364 C63.838912,15.0191364 63.917056,14.6288409 64.014736,14.2391364 L65.187192,9.36265909 L65.949096,6.12506818 L62.021472,6.12506818 L60.2434,13.6145455 C60.028356,14.5115455 59.91114,15.3699886 59.872068,16.1892841 C59.832848,17.0082841 59.969748,17.7105795 60.2434,18.3542273 C60.517052,18.978375 61.005304,19.465875 61.669824,19.836375 C62.334196,20.2070227 63.291756,20.3822273 64.503432,20.3822273 C65.343776,20.3822273 66.086144,20.3046705 66.711592,20.167875 C66.731128,20.167875 66.7702,20.1485227 66.789736,20.1485227 C66.613912,20.9285227 66.262116,21.5525227 65.714812,22.0404659 C65.14812,22.5281136 64.327312,22.7816136 63.233,22.7816136 C62.763988,22.7816136 62.334196,22.7621136 61.943328,22.7039091 L61.181276,25.8831477 C61.689508,25.9416477 62.2562,25.9806477 62.881352,25.9806477 C64.053808,25.9806477 65.069828,25.8441477 65.949096,25.5903523 C66.828512,25.3172045 67.571324,24.9273523 68.215864,24.3810568 C68.841164,23.8349091 69.368784,23.1522614 69.798576,22.3527614 C70.228368,21.5336136 70.56048,20.5775227 70.814596,19.446375 L73.472084,8.28986364 L74,6.16392045 Z M57.8791,14.1800455 C57.64452,15.1553409 57.566376,16.1499886 57.664056,17.1252841 C57.761736,18.1199318 58.152604,19.6217273 58.523936,20.382375 L54.811208,20.382375 C54.36188,19.6220227 54.381564,19.251375 54.283884,19.017375 C53.795188,19.4075227 53.267864,19.7390227 52.681636,19.9926705 C52.095408,20.2463182 51.450424,20.3828182 50.707908,20.3828182 C49.848028,20.3828182 49.10566,20.2266705 48.499896,19.9341705 C47.894132,19.6418182 47.386048,19.2321705 46.99518,18.724875 C46.604164,18.2175795 46.330956,17.6324318 46.154688,16.9497841 C45.978864,16.2671364 45.90072,15.5454886 45.90072,14.7654886 C45.90072,13.5753977 46.115764,12.4638977 46.526316,11.41075 C46.95596,10.3574545 47.542188,9.44051136 48.285,8.66051136 C49.027516,7.88036364 50.844808,6.14456818 53.814872,6.14456818 L59.774832,6.14456818 L57.8791,14.1800455 Z M55.163004,9.40151136 C53.365396,9.40151136 53.032988,9.40151136 52.290768,9.77230682 C51.763148,10.0453068 51.33306,10.4549545 50.961876,10.9229545 C50.590692,11.3909545 50.277968,11.9371023 50.063072,12.5613977 C49.848176,13.1855455 49.730812,13.8290455 49.730812,14.4923409 C49.730812,15.3114886 49.86786,15.9744886 50.141216,16.4621364 C50.414572,16.9497841 50.922804,17.1837841 51.66532,17.1837841 C52.056336,17.1837841 52.427224,17.1059318 52.740244,16.9497841 C53.052672,16.7936364 53.40432,16.5404318 53.756264,16.1697841 C53.795484,15.7407841 53.853944,15.2919886 53.932088,14.8242841 C54.010084,14.3558409 54.107912,13.9073409 54.186204,13.5171932 L55.163004,9.40151136 Z M44.845628,11.8006023 C44.845628,13.0683977 44.630584,14.2190455 44.22018,15.2723409 C43.809924,16.3254886 43.223696,17.2227841 42.481032,17.9835795 C41.738368,18.744375 40.859248,19.329375 39.823544,19.7586705 C38.787988,20.187375 37.67414,20.4020227 36.462612,20.4020227 C35.876384,20.4020227 35.290156,20.3435227 34.684244,20.2460227 L33.512084,24.9465568 L29.662308,24.9465568 L34.137088,6.183125 L39.27624,6.183125 C40.253632,6.183125 41.093532,6.33927273 41.77744,6.63147727 C42.480884,6.92397727 43.047576,7.33377273 43.516588,7.84106818 C43.966064,8.34821591 44.298028,8.95271591 44.512924,9.63536364 C44.747948,10.2986591 44.845628,11.0204545 44.845628,11.8006023 Z M35.407372,17.1252841 C35.700264,17.2031364 36.071744,17.2227841 36.501684,17.2227841 C37.185592,17.2227841 37.791504,17.1056364 38.3579,16.8519886 C38.904908,16.5984886 39.393604,16.2473409 39.784324,15.7989886 C40.17534,15.3503409 40.468232,14.8041932 40.702812,14.1800455 C40.917708,13.5556023 41.035072,12.8536023 41.035072,12.0931023 C41.035072,11.3516591 40.878636,10.7081591 40.546524,10.2008636 C40.214264,9.67451136 39.647868,9.40136364 38.827208,9.40136364 L37.302808,9.40136364 L35.407372,17.1252841 Z M27.317692,17.1252841 C26.828996,17.1252841 26.438572,17.0472841 26.145236,16.9107841 C25.871584,16.7742841 25.65654,16.5792841 25.539472,16.3059886 C25.422108,16.0524886 25.383036,15.7404886 25.40272,15.3893409 C25.422108,15.0381932 25.500252,14.6480455 25.597932,14.2580455 L26.77024,9.38201136 L31.14734,9.38201136 L31.948612,6.14427273 L27.551828,6.14427273 L28.567848,2.04823864 L24.464252,2.69159091 L21.865372,13.65325 C21.650328,14.55025 21.533112,15.4088409 21.49404,16.2276932 C21.45482,17.0468409 21.59172,17.7494318 21.865372,18.3927841 C22.138876,19.0169318 22.627424,19.5044318 23.291796,19.8750795 C23.956168,20.2457273 24.913728,20.4210795 26.125256,20.4210795 C26.9656,20.4210795 27.707968,20.3432273 28.333416,20.2065795 C28.392024,20.1867841 28.489704,20.1674318 28.548164,20.1480795 L29.349436,16.8126932 C29.075784,16.9101932 28.80228,16.9689886 28.548164,17.0075455 C28.157888,17.0861364 27.747336,17.1252841 27.317692,17.1252841 Z M17.527936,6.16392045 L14.127784,20.401875 L17.977264,20.401875 L21.357732,6.16392045 L17.527936,6.16392045 Z M21.768136,4.52532955 L22.354364,2.04823864 L18.504884,2.04823864 L17.918656,4.52532955 L21.768136,4.52532955 Z M9.008168,6.183125 C9.828828,6.183125 10.551808,6.33927273 11.157572,6.63147727 C11.763336,6.92397727 12.251884,7.314125 12.66214,7.82142045 C13.053008,8.32871591 13.346048,8.91386364 13.541408,9.57701136 C13.736768,10.2398636 13.834448,10.9618068 13.834448,11.7419545 C13.834448,12.93175 13.619552,14.0435455 13.170076,15.1161932 C12.7206,16.1694886 12.134372,17.1056364 11.372468,17.8856364 C10.610416,18.6657841 9.711464,19.2902273 8.675908,19.7387273 C7.640204,20.1872273 6.526356,20.4212273 5.314976,20.4212273 C5.15854,20.4212273 4.885036,20.4212273 4.494316,20.401875 C4.103448,20.401875 3.65412,20.3627273 3.165572,20.2847273 C2.657488,20.206875 2.129868,20.1092273 1.582712,19.972875 C1.03669835,19.8403476 0.506197789,19.6507513 0,19.4072273 L4.474632,0.643943182 L8.480548,0.0195 L6.897688,6.67032955 C7.249336,6.51447727 7.56206,6.39732955 7.913856,6.31947727 C8.245968,6.22227273 8.6173,6.183125 9.008168,6.183125 Z M5.647088,17.2227841 C6.252852,17.2227841 6.819544,17.0861364 7.347164,16.7742841 C7.88181684,16.4784678 8.35316157,16.0808667 8.734516,15.6039886 C9.125384,15.1161932 9.43796,14.5505455 9.653004,13.94575 C9.8679,13.3216023 9.985116,12.67825 9.985116,12.0151023 C9.985116,11.1958068 9.848364,10.5524545 9.574712,10.0841591 C9.301208,9.61601136 8.734516,9.40151136 7.992,9.40151136 C7.75742,9.40151136 7.503452,9.42115909 7.112584,9.51865909 C6.721716,9.59651136 6.389604,9.79180682 6.077028,10.0646591 L4.396488,17.1447841 C4.904572,17.2227841 5.06086,17.2421364 5.19776,17.2421364 C5.29544,17.2227841 5.451728,17.2227841 5.647088,17.2227841 Z" id="Bitpay-Copy"></path>
                                </g>
                                <g id="Bitwala" transform="translate(377.000000, 64.000000)" fill="#929497" fill-rule="nonzero">
                                    <path d="M0.116503497,0.0204188482 C0.308391608,0.204188482 0.548251748,0.326701571 0.774405594,0.469633508 C2.33692308,1.47015707 3.90629371,2.46387435 5.47566434,3.45759162 C5.61958042,3.5460733 5.65384615,3.64136126 5.65384615,3.79790576 C5.64699301,7.26230366 5.65384615,10.7267016 5.65384615,14.1910995 C5.65384615,15.9675393 6.27748252,17.4853403 7.57272727,18.7172775 C8.57328671,19.6701571 9.77258741,20.221466 11.1637762,20.3575916 C13.9735664,20.6366492 16.5777622,19.0303665 17.5509091,16.4167539 C18.853007,12.9455497 16.7148252,9.09319372 13.0552448,8.35811518 C10.9102098,7.92931937 9.0393007,8.50104712 7.46307692,10.0052356 C7.42195804,10.039267 7.40825175,10.1005236 7.38083916,10.1481675 C7.36027972,10.134555 7.33972028,10.1141361 7.31230769,10.1005236 C7.31230769,10.039267 7.31230769,9.97801047 7.31230769,9.91675393 C7.31230769,7.86125654 7.31230769,5.80575916 7.30545455,3.75026178 C7.30545455,3.58691099 7.36027972,3.52565445 7.5041958,3.47120419 C9.1558042,2.82460733 10.8759441,2.53193717 12.6372028,2.70890052 C17.4960839,3.19895288 20.8883916,5.7104712 22.7455944,10.2026178 C23.3829371,11.7340314 23.5953846,13.3539267 23.4788811,15.0078534 C23.2732867,18.1387435 21.9986014,20.7727749 19.6822378,22.8963351 C18.0169231,24.4277487 16.0432168,25.373822 13.7953846,25.7685864 C12.7194406,25.952356 11.6366434,26 10.5606993,25.8842932 C8.31972028,25.6460733 6.29804196,24.8429319 4.52307692,23.447644 C2.2958042,21.691623 0.890909091,19.4183246 0.294685315,16.6617801 C0.123356643,15.8722513 0.0616783217,15.0623037 0.0616783217,14.252356 C0.0685314685,9.57643979 0.0616783217,4.90052356 0.0616783217,0.22460733 C0.0616783217,0.163350785 0.0685314685,0.0952879581 0.0685314685,0.0340314136 C0.0890909091,0.0204188482 0.102797203,0.0204188482 0.116503497,0.0204188482 Z M97.9314685,20.173822 C97.02,20.173822 96.1016783,20.1670157 95.1902098,20.1806283 C95.0325874,20.1806283 94.9846154,20.1397906 94.9914685,19.9832461 C95.0051748,19.6769634 94.9983217,19.3638743 94.9983217,19.0167539 C94.7241958,19.2685864 94.4774825,19.4931937 94.2033566,19.6769634 C93.4015385,20.221466 92.5037762,20.3984293 91.5443357,20.3575916 C90.811049,20.3303665 90.1188811,20.1806283 89.4883916,19.7926702 C88.5700699,19.2277487 88.0972028,18.3973822 88.0286713,17.3424084 C87.9738462,16.5528796 88.1040559,15.8041885 88.5837762,15.1439791 C89.1046154,14.4293194 89.831049,14.034555 90.6671329,13.8371728 C92.0514685,13.5104712 93.428951,13.578534 94.7858741,14.0005236 C95.0257343,14.0753927 95.0188811,14.0753927 95.012028,13.8167539 C94.9846154,12.4350785 94.0114685,11.9858639 93.0177622,11.9314136 C91.934965,11.8701571 90.8932867,12.0471204 89.8858741,12.4350785 C89.7556643,12.4895288 89.693986,12.4759162 89.646014,12.326178 C89.4335664,11.6591623 89.2142657,10.9921466 88.9881119,10.3319372 C88.946993,10.2094241 88.9744056,10.1685864 89.0909091,10.1209424 C90.4615385,9.54921466 91.8801399,9.28376963 93.3672727,9.3382199 C94.1005594,9.36544503 94.8201399,9.44031414 95.5054545,9.70575916 C96.7458741,10.182199 97.438042,11.121466 97.7601399,12.3602094 C97.8355245,12.6596859 97.8766434,12.9727749 97.9314685,13.2858639 C97.9314685,15.5795812 97.9314685,17.8801047 97.9314685,20.173822 Z M36.0064336,12.8570681 C36.5546853,13.0748691 37.0481119,13.3403141 37.4935664,13.6942408 C38.2268531,14.2795812 38.5695105,15.0486911 38.6174825,15.960733 C38.6586014,16.7026178 38.5900699,17.4172775 38.22,18.0842932 C37.6991608,19.0235602 36.8493706,19.5340314 35.8556643,19.8403141 C35.0538462,20.0853403 34.2246154,20.173822 33.3885315,20.1806283 C31.2160839,20.1874346 29.0504895,20.1806283 26.878042,20.1874346 C26.693007,20.1874346 26.645035,20.1465969 26.645035,19.9560209 C26.6518881,15.4434555 26.6518881,10.9308901 26.645035,6.41832461 C26.645035,6.22094241 26.6998601,6.18010471 26.8917483,6.18010471 C29.166993,6.19371728 31.4422378,6.16649215 33.7174825,6.20732984 C34.8756643,6.22774869 35.9653147,6.54764398 36.8425175,7.36439791 C37.658042,8.11989529 37.9116084,9.07958115 37.8293706,10.1413613 C37.7402797,11.339267 37.1166434,12.2172775 36.074965,12.8094241 C36.0612587,12.8094241 36.0475524,12.8230366 36.0064336,12.8570681 Z M62.6446154,13.6670157 C62.2334266,14.9534031 61.8290909,16.1989529 61.4316084,17.4445026 C61.1437762,18.3293194 60.8627972,19.2141361 60.5818182,20.1057592 C60.5475524,20.221466 60.4927273,20.2691099 60.3625175,20.2691099 C59.5675524,20.2623037 58.7725874,20.2623037 57.9776224,20.2691099 C57.82,20.2691099 57.772028,20.2078534 57.7377622,20.078534 C56.887972,17.2947644 56.0313287,14.517801 55.1746853,11.7340314 C54.9622378,11.0329843 54.7497902,10.3251309 54.5236364,9.63089005 C54.4825175,9.4947644 54.4893706,9.44712042 54.646993,9.44712042 C55.5584615,9.4539267 56.4767832,9.4539267 57.3882517,9.44712042 C57.5184615,9.44712042 57.5664336,9.48795812 57.6006993,9.6104712 C58.148951,11.6795812 58.7040559,13.7486911 59.2523077,15.817801 C59.2591608,15.8518325 59.2728671,15.8790576 59.3002797,15.960733 C59.4921678,15.3413613 59.6703497,14.7764398 59.8416783,14.2183246 C60.3213986,12.6732984 60.807972,11.1350785 61.2808392,9.59005236 C61.321958,9.44712042 61.3836364,9.40628272 61.5275524,9.40628272 C62.2813986,9.41308901 63.0283916,9.41308901 63.7822378,9.40628272 C63.933007,9.40628272 63.980979,9.4539267 64.0220979,9.59005236 C64.6662937,11.6591623 65.3173427,13.7282723 65.9683916,15.7973822 C65.9820979,15.8450262 65.988951,15.8926702 66.0437762,15.9403141 C66.2013986,15.3549738 66.3658741,14.7832461 66.5234965,14.204712 C66.9346853,12.6801047 67.3527273,11.1554974 67.7639161,9.62408377 C67.7981818,9.4947644 67.8461538,9.44031414 68.0037762,9.44031414 C68.880979,9.44712042 69.765035,9.4539267 70.6422378,9.44031414 C70.840979,9.44031414 70.840979,9.50157068 70.7861538,9.6513089 C69.9500699,12.3125654 69.1208392,14.9806283 68.2916084,17.6418848 C68.0448951,18.4450262 67.7913287,19.2413613 67.5514685,20.0513089 C67.5034965,20.2146597 67.4281119,20.2623037 67.2567832,20.2623037 C66.4892308,20.2486911 65.7285315,20.2486911 64.960979,20.2623037 C64.7759441,20.2623037 64.7074126,20.2078534 64.6594406,20.0376963 C64.0152448,17.9617801 63.3573427,15.8858639 62.6994406,13.8099476 C62.6925874,13.7827225 62.6788811,13.7486911 62.6446154,13.6670157 Z M78.4411189,18.9963351 C78.0984615,19.3502618 77.7558042,19.6157068 77.3788811,19.8403141 C76.7141259,20.2282723 75.9808392,20.3643979 75.226993,20.3712042 C74.4046154,20.3712042 73.6027972,20.2350785 72.8969231,19.7858639 C71.9717483,19.1937173 71.5057343,18.3429319 71.4646154,17.2539267 C71.4372028,16.5052356 71.5605594,15.8041885 72.006014,15.1712042 C72.52,14.4429319 73.2532867,14.0413613 74.1030769,13.8439791 C75.5011189,13.5104712 76.8923077,13.5853403 78.2629371,14.0209424 C78.4274126,14.0753927 78.4616783,14.0549738 78.4616783,13.8848168 C78.4616783,12.4759162 77.5022378,12.0062827 76.4811189,11.9382199 C75.3914685,11.8701571 74.3429371,12.0539267 73.3286713,12.4486911 C73.1779021,12.5099476 73.1367832,12.4623037 73.0956643,12.3329843 C72.8832168,11.6727749 72.6707692,11.0125654 72.4446154,10.3591623 C72.3966434,10.2298429 72.4240559,10.182199 72.5474126,10.1277487 C74.0825175,9.47434555 75.693007,9.24973822 77.3514685,9.37225131 C78.0641958,9.41989529 78.7632168,9.57643979 79.4005594,9.92356021 C80.4627972,10.5020942 81.0041958,11.4413613 81.2577622,12.5848168 C81.3742657,13.1225131 81.387972,13.673822 81.387972,14.2183246 C81.387972,16.1308901 81.387972,18.0502618 81.387972,19.9628272 C81.387972,20.1329843 81.3605594,20.1874346 81.1755245,20.1874346 C80.3325874,20.173822 79.4896503,20.173822 78.6467133,20.1874346 C78.4685315,20.1874346 78.4342657,20.1329843 78.4411189,19.9764398 C78.4548252,19.6633508 78.4411189,19.3638743 78.4411189,18.9963351 Z M52.6664336,17.3219895 C52.6664336,18.1115183 52.6664336,18.873822 52.6664336,19.6293194 C52.6664336,19.7314136 52.6116084,19.7586387 52.5430769,19.7994764 C51.9537063,20.1193717 51.3163636,20.3031414 50.6447552,20.3371728 C50.0759441,20.3712042 49.513986,20.3507853 48.9588811,20.1942408 C47.9446154,19.908377 47.4237762,19.1801047 47.2113287,18.2 C47.1222378,17.7984293 47.1222378,17.3900524 47.1222378,16.9816754 C47.1222378,15.4094241 47.1153846,13.8439791 47.1290909,12.2717277 C47.1290909,12.0675393 47.0674126,12.0198953 46.8755245,12.0335079 C46.5808392,12.0471204 46.2793007,12.0335079 45.9846154,12.0403141 C45.8544056,12.0471204 45.8132867,11.9994764 45.8132867,11.8701571 C45.8201399,11.1146597 45.8201399,10.3659686 45.8132867,9.6104712 C45.8132867,9.46073298 45.874965,9.44031414 45.9983217,9.44031414 C46.3067133,9.44712042 46.621958,9.43350785 46.9372028,9.44712042 C47.087972,9.4539267 47.1290909,9.40628272 47.1290909,9.2565445 C47.1222378,8.47382199 47.1290909,7.69109948 47.1222378,6.91518325 C47.1222378,6.7382199 47.1770629,6.6973822 47.3483916,6.6973822 C48.2118881,6.70418848 49.0753846,6.70418848 49.9457343,6.6973822 C50.1170629,6.6973822 50.1718881,6.7382199 50.1718881,6.91518325 C50.165035,7.69790576 50.1718881,8.48062827 50.165035,9.2565445 C50.165035,9.40628272 50.2061538,9.44712042 50.3569231,9.44031414 C51.0696503,9.43350785 51.7892308,9.44031414 52.501958,9.43350785 C52.6595804,9.43350785 52.7212587,9.46073298 52.7144056,9.63769634 C52.7006993,10.3727749 52.7075524,11.1010471 52.7144056,11.8361257 C52.7144056,11.9926702 52.6801399,12.0403141 52.5156643,12.0335079 C51.8097902,12.0267016 51.0970629,12.0335079 50.3911888,12.0267016 C50.2198601,12.0267016 50.1581818,12.060733 50.1581818,12.2445026 C50.165035,13.6670157 50.1581818,15.0895288 50.165035,16.5120419 C50.165035,16.6685864 50.1787413,16.8251309 50.2061538,16.9748691 C50.2883916,17.4036649 50.5967832,17.6554974 51.0627972,17.6759162 C51.5562238,17.6963351 52.0290909,17.6010471 52.4813986,17.3968586 C52.5293706,17.3764398 52.5773427,17.3560209 52.6664336,17.3219895 Z M86.4935664,12.8706806 C86.4935664,15.2256545 86.4935664,17.5874346 86.5004196,19.9424084 C86.5004196,20.1193717 86.473007,20.1806283 86.2742657,20.173822 C85.4039161,20.1602094 84.5335664,20.1670157 83.6563636,20.173822 C83.5055944,20.173822 83.4507692,20.1534031 83.4507692,19.9832461 C83.4576224,15.239267 83.4576224,10.495288 83.4507692,5.7513089 C83.4507692,5.58795812 83.5055944,5.5539267 83.6563636,5.5539267 C84.5198601,5.56073298 85.3833566,5.56073298 86.2537063,5.5539267 C86.4455944,5.5539267 86.5004196,5.5947644 86.5004196,5.7921466 C86.4935664,8.1539267 86.4935664,10.5157068 86.4935664,12.8706806 Z M43.7162238,14.8308901 C43.7162238,16.539267 43.7162238,18.2544503 43.7230769,19.9628272 C43.7230769,20.1397906 43.6751049,20.1806283 43.4969231,20.1806283 C42.6197203,20.173822 41.7425175,20.173822 40.8584615,20.1806283 C40.7076923,20.1806283 40.6528671,20.1602094 40.6528671,19.9900524 C40.6597203,16.539267 40.6597203,13.095288 40.6528671,9.64450262 C40.6528671,9.48795812 40.6871329,9.44712042 40.8516084,9.44712042 C41.7356643,9.4539267 42.6265734,9.4539267 43.5106294,9.44712042 C43.6888112,9.44712042 43.7162238,9.50157068 43.7162238,9.65811518 C43.7162238,11.3801047 43.7162238,13.1020942 43.7162238,14.8308901 Z M42.1674126,8.25602094 C41.6945455,8.25602094 41.2148252,8.24921466 40.741958,8.25602094 C40.6117483,8.25602094 40.5774825,8.22198953 40.5774825,8.09267016 C40.5843357,7.30314136 40.5843357,6.51361257 40.5774825,5.72408377 C40.5774825,5.58115183 40.6254545,5.5539267 40.7556643,5.5539267 C41.7082517,5.56073298 42.653986,5.56073298 43.6065734,5.5539267 C43.7573427,5.5539267 43.7984615,5.5947644 43.7984615,5.74450262 C43.7916084,6.52041885 43.7916084,7.29633508 43.7984615,8.06544503 C43.7984615,8.20837696 43.7641958,8.25602094 43.6134266,8.25602094 C43.1337063,8.24921466 42.6471329,8.25602094 42.1674126,8.25602094 Z M95.0531469,16.3078534 C95.0531469,16.2329843 95.0394406,16.1513089 95.0531469,16.0764398 C95.0874126,15.8858639 94.9983217,15.8041885 94.826993,15.7429319 C94.3678322,15.5795812 93.9018182,15.4706806 93.4220979,15.4434555 C92.8053147,15.4026178 92.1885315,15.4434555 91.6334266,15.7565445 C91.1331469,16.0424084 90.9344056,16.4984293 90.9686713,17.0497382 C91.0029371,17.6078534 91.325035,17.9617801 91.8458741,18.1455497 C92.3255944,18.3225131 92.819021,18.3020942 93.3124476,18.2204188 C94.1142657,18.0910995 95.0942657,17.5397906 95.0531469,16.3078534 Z M31.8123077,17.478534 C31.8123077,17.4717277 31.8123077,17.4717277 31.8123077,17.478534 C32.4359441,17.4717277 33.0595804,17.4717277 33.6900699,17.4649215 C34.066993,17.4581152 34.4302098,17.3764398 34.7728671,17.2198953 C35.2662937,16.9884817 35.5335664,16.6141361 35.5678322,16.0696335 C35.608951,15.4434555 35.3827972,14.9602094 34.8071329,14.660733 C34.4096503,14.4565445 33.971049,14.395288 33.5324476,14.3884817 C32.2988811,14.3816754 31.0653147,14.3884817 29.8317483,14.3816754 C29.6878322,14.3816754 29.6535664,14.4225131 29.6535664,14.5586387 C29.6604196,15.4706806 29.6604196,16.3895288 29.6535664,17.3015707 C29.6467133,17.4445026 29.6946853,17.478534 29.8317483,17.478534 C30.4965035,17.4717277 31.1544056,17.478534 31.8123077,17.478534 Z M31.5176224,8.85497382 C30.8802797,8.85497382 30.3594406,8.85497382 29.8248951,8.84816754 C29.6878322,8.84816754 29.6467133,8.88219895 29.6467133,9.02513089 C29.6535664,9.90314136 29.6535664,10.7879581 29.6467133,11.6659686 C29.6467133,11.8020942 29.6878322,11.8429319 29.8248951,11.8429319 C30.7706294,11.8361257 31.7095105,11.8497382 32.6552448,11.8361257 C33.1281119,11.8293194 33.5941259,11.7612565 34.0327273,11.5570681 C34.5535664,11.3120419 34.7797203,10.8900524 34.7797203,10.3387435 C34.7797203,9.79424084 34.5604196,9.37225131 34.0601399,9.12041885 C33.8134266,8.99790576 33.5461538,8.92984293 33.272028,8.89581152 C32.6552448,8.81413613 32.0316084,8.87539267 31.5176224,8.85497382 Z M76.159021,18.2680628 C76.4194406,18.2884817 76.6935664,18.2544503 76.9608392,18.1863874 C77.7146853,17.9753927 78.2903497,17.5670157 78.4685315,16.7570681 C78.5233566,16.5188482 78.4890909,16.2670157 78.5027972,16.0219895 C78.5165035,15.8858639 78.4616783,15.8246073 78.3383217,15.7769634 C77.6735664,15.5251309 76.9882517,15.4094241 76.2823776,15.4502618 C75.8506294,15.4774869 75.4257343,15.5591623 75.0488112,15.7905759 C74.5622378,16.0832461 74.3772028,16.5324607 74.4183217,17.0769634 C74.4594406,17.6146597 74.7746853,17.9549738 75.274965,18.1455497 C75.5559441,18.247644 75.8437762,18.2884817 76.159021,18.2680628 Z" id="Bitwala-Copy"></path>
                                </g>
                                <g id="logo" transform="translate(0.000000, 64.000000)"></g>
                                <g id="Group" transform="translate(0.000000, 64.000000)" fill="#929497" fill-rule="nonzero">
                                    <path d="M16.0858393,18.918578 L11.4611605,20.9311928 L11.4611605,20.7299312 C10.5696222,20.9583154 9.58145632,21.0901287 8.6461386,21.1324541 C4.29664522,21.0901287 0.844318935,18.8116416 0.804291962,16.1009174 L0.804291962,15.0946101 C2.23275451,17.1733906 5.14096419,18.5668455 8.6461386,18.516055 C9.83162492,18.5668455 11.0449425,18.3785408 12.0643794,18.1135321 L12.4665254,17.1072248 C11.2575858,17.4684013 9.93794656,17.7194743 8.6461386,17.7110092 C4.29664522,17.7194743 0.844318935,15.4409871 0.804291962,12.6794725 L0.804291962,11.8744266 C2.23275451,13.7964592 5.13470994,15.1899141 8.6461386,15.0946101 C10.2256404,15.1899141 11.7704313,14.8572425 13.0697444,14.2895642 L13.2708174,13.2832569 C12.0018373,13.9533798 10.3569789,14.3425429 8.6461386,14.2895642 C4.29664522,14.3425429 0.844318935,12.0640558 0.804291962,9.25802753 L0.804291962,8.45298165 C2.23275451,10.4195279 5.14096419,11.8129828 8.6461386,11.8744266 C10.6384186,11.8129828 12.5271913,11.2857296 14.0751093,10.4655963 L14.2761823,9.25802753 C12.8711731,10.3002682 10.8197908,10.9718884 8.6461386,11.0693807 C4.29664522,10.9718884 0.844318935,8.69340127 0.804291962,5.83658258 C0.844318935,3.11958154 4.29664522,0.84109442 8.6461386,0.805045871 C11.2388232,0.84109442 13.6466956,1.75123391 15.0804743,3.22018348 L15.2201083,3.453125 L16.2340037,3.45713363 L16.0858393,3.22018348 C14.6598784,1.2804721 11.8079566,0 8.6461386,0 C3.83383338,0 0,2.65509656 0,5.83658258 L0,6.03784403 L0,16.3021789 C0.168863787,19.4079399 3.91513816,21.9375 8.6461386,21.9375 C11.7704313,21.9375 14.5785736,20.7072426 16.0858393,18.918578 Z" id="Shape-Copy-2"></path>
                                    <path d="M14.2047532,26 L15.8281536,19.09375 L11.1608775,21.125 L14.0018282,9.140625 L8.52285192,9.140625 L9.94332724,3.25 L27.3948812,3.25 L25.9744059,9.140625 L20.2925046,9.140625 L19.0749543,12.390625 L25.3656307,9.75 L14.2047532,26 Z M17.0457038,17.671875 L16.2340037,21.734375 L22.9305302,11.578125 L17.4515539,14.015625 L19.8866545,8.328125 L25.3656307,8.328125 L26.3802559,4.0625 L10.5521024,4.0625 L9.53747715,8.328125 L15.0164534,8.328125 L12.3784278,19.703125 L17.0457038,17.671875 Z" id="Shape-Copy-3"></path>
                                </g>
                                <path d="M38.9843983,71.1916962 L38.9927214,71.2166901 C39.0038188,71.8637575 38.8068409,72.3705731 38.4017814,72.7371521 C37.9967221,73.1037311 37.4376928,73.2870178 36.7246773,73.2870178 C35.9977899,73.2870178 35.4110173,73.0530495 34.9643421,72.5851059 C34.517667,72.1171623 34.2943327,71.5124549 34.2943327,70.7709656 L34.2943327,69.5670929 C34.2943327,68.8283807 34.5121184,68.2236733 34.947696,67.7529526 C35.3832736,67.2822319 35.9547872,67.046875 36.6622541,67.046875 C37.4002391,67.046875 37.9773014,67.2273847 38.3934584,67.5884094 C38.8096153,67.9494342 39.012142,68.4576383 39.0010444,69.1130371 L38.9927214,69.138031 L37.8108415,69.138031 C37.8108415,68.7492351 37.7172077,68.4597254 37.5299371,68.2694931 C37.3426663,68.0792608 37.0534417,67.9841461 36.6622541,67.9841461 C36.2988103,67.9841461 36.0151343,68.1306367 35.8112173,68.4236221 C35.6073004,68.7166076 35.5053435,69.0949836 35.5053435,69.5587616 L35.5053435,70.7709656 C35.5053435,71.2375207 35.6128492,71.6179795 35.8278635,71.9123535 C36.042878,72.2067275 36.341813,72.3539124 36.7246773,72.3539124 C37.0881209,72.3539124 37.3593126,72.2587976 37.53826,72.0685654 C37.7172077,71.8783331 37.80668,71.5860463 37.80668,71.1916962 L38.9843983,71.1916962 Z M45.6576598,70.7126465 C45.6576598,71.45969 45.4232282,72.0755057 44.9543579,72.560112 C44.4854879,73.0447183 43.8751336,73.2870178 43.1232766,73.2870178 C42.374194,73.2870178 41.7666141,73.0440241 41.3005182,72.5580292 C40.8344225,72.0720343 40.6013781,71.4569129 40.6013781,70.7126465 L40.6013781,69.6212464 C40.6013781,68.879757 40.8337289,68.2653299 41.2984374,67.7779465 C41.7631461,67.2905631 42.3686454,67.046875 43.1149534,67.046875 C43.8668104,67.046875 44.4785519,67.2905631 44.9501966,67.7779465 C45.421841,68.2653299 45.6576598,68.879757 45.6576598,69.6212464 L45.6576598,70.7126465 Z M44.446649,69.612915 C44.446649,69.1408058 44.3287396,68.7534042 44.0929174,68.4506989 C43.8570951,68.1479935 43.5311105,67.9966431 43.1149534,67.9966431 C42.7043453,67.9966431 42.3846028,68.1479935 42.1557166,68.4506989 C41.9268301,68.7534042 41.8123887,69.1408058 41.8123887,69.612915 L41.8123887,70.7126465 C41.8123887,71.1930871 41.9275237,71.5846542 42.1577972,71.8873596 C42.3880708,72.190065 42.7098939,72.3414154 43.1232766,72.3414154 C43.5394334,72.3414154 43.8640311,72.190065 44.097079,71.8873596 C44.3301268,71.5846542 44.446649,71.1930871 44.446649,70.7126465 L44.446649,69.612915 Z M48.810251,73.1995392 L47.5950788,73.1995392 L47.5950788,67.1343536 L48.810251,67.1343536 L48.810251,73.1995392 Z M55.8039517,73.1995392 L54.5887795,73.1995392 L52.1459503,69.1088715 L52.120981,69.1130371 L52.120981,73.1995392 L50.9058088,73.1995392 L50.9058088,67.1343536 L52.120981,67.1343536 L54.5638102,71.2208557 L54.5887795,71.2166901 L54.5887795,67.1343536 L55.8039517,67.1343536 L55.8039517,73.1995392 Z M61.9154041,68.0716248 L60.1841998,68.0716248 L60.1841998,73.1995392 L58.9690276,73.1995392 L58.9690276,68.0716248 L57.2627926,68.0716248 L57.2627926,67.1343536 L61.9154041,67.1343536 L61.9154041,68.0716248 Z M66.9365307,70.5335236 L64.6892945,70.5335236 L64.6892945,72.2664337 L67.3610087,72.2664337 L67.3610087,73.1995392 L63.4741221,73.1995392 L63.4741221,67.1343536 L67.3526857,67.1343536 L67.3526857,68.0716248 L64.6892945,68.0716248 L64.6892945,69.5962525 L66.9365307,69.5962525 L66.9365307,70.5335236 Z M70.3221687,72.2664337 L73.0354985,72.2664337 L73.0354985,73.1995392 L69.1069965,73.1995392 L69.1069965,67.1343536 L70.3221687,67.1343536 L70.3221687,72.2664337 Z M78.1981179,70.5335236 L75.9508815,70.5335236 L75.9508815,72.2664337 L78.6225957,72.2664337 L78.6225957,73.1995392 L74.7357093,73.1995392 L74.7357093,67.1343536 L78.6142727,67.1343536 L78.6142727,68.0716248 L75.9508815,68.0716248 L75.9508815,69.5962525 L78.1981179,69.5962525 L78.1981179,70.5335236 Z M85.012872,72.370575 C84.8242142,72.6177381 84.5426187,72.8322669 84.1680776,73.0141678 C83.7935364,73.1960687 83.3108014,73.2870178 82.7198585,73.2870178 C81.9874223,73.2870178 81.3881653,73.0565209 80.9220694,72.59552 C80.4559737,72.1345192 80.2229293,71.5360602 80.2229293,70.8001251 L80.2229293,69.5337677 C80.2229293,68.8006098 80.4490378,68.202845 80.9012617,67.7404556 C81.3534857,67.2780662 81.9347095,67.046875 82.6449508,67.046875 C83.38571,67.046875 83.9530622,67.2225248 84.3470242,67.5738297 C84.7409861,67.9251345 84.9310282,68.3937654 84.9171563,68.9797363 L84.9088333,69.0047302 L83.7644073,69.0047302 C83.7644073,68.6825851 83.671467,68.4319543 83.4855836,68.2528305 C83.2997,68.0737067 83.0292021,67.9841461 82.6740815,67.9841461 C82.3023147,67.9841461 82.0026861,68.1278596 81.775187,68.4152908 C81.5476878,68.7027221 81.43394,69.0727669 81.43394,69.5254364 L81.43394,70.8001251 C81.43394,71.2583489 81.5504622,71.631865 81.78351,71.9206848 C82.0165581,72.2095046 82.328671,72.3539124 82.7198585,72.3539124 C83.008394,72.3539124 83.2365834,72.3247531 83.4044333,72.2664337 C83.5722833,72.2081143 83.7019837,72.1345219 83.7935382,72.0456543 L83.7935382,70.8709412 L82.6283044,70.8709412 L82.6283044,70.02948 L85.012872,70.02948 L85.012872,72.370575 Z M88.1529786,70.7751312 L88.1529786,73.1995392 L86.9378062,73.1995392 L86.9378062,67.1343536 L89.0352269,67.1343536 C89.7260474,67.1343536 90.2663498,67.2919525 90.6561501,67.6071549 C91.0459505,67.9223572 91.2408478,68.3618289 91.2408478,68.9255829 C91.2408478,69.2366196 91.1583111,69.5053013 90.9932356,69.7316361 C90.8281599,69.9579708 90.5874862,70.1405633 90.2712068,70.2794189 C90.6291018,70.3849493 90.8864217,70.5612933 91.043174,70.8084564 C91.1999265,71.0556195 91.2783017,71.3610974 91.2783017,71.7248993 L91.2783017,72.1706238 C91.2783017,72.3400277 91.30119,72.517066 91.3469672,72.7017441 C91.3927445,72.8864221 91.4711194,73.0231929 91.5820947,73.1120605 L91.5820947,73.1995392 L90.3294686,73.1995392 C90.2184934,73.1106716 90.1470542,72.9634868 90.1151487,72.7579804 C90.0832434,72.552474 90.0672909,72.3539133 90.0672909,72.1622925 L90.0672909,71.7332306 C90.0672909,71.4305252 89.9847543,71.1951684 89.8196789,71.027153 C89.6546032,70.8591377 89.4208652,70.7751312 89.1184578,70.7751312 L88.1529786,70.7751312 Z M88.1529786,69.8378601 L89.0144191,69.8378601 C89.3556678,69.8378601 89.6095198,69.7656562 89.7759826,69.6212464 C89.9424453,69.4768364 90.0256754,69.2630019 90.0256754,68.9797363 C90.0256754,68.702025 89.9417517,68.4812478 89.7739018,68.3173981 C89.6060518,68.1535484 89.3598292,68.0716248 89.0352269,68.0716248 L88.1529786,68.0716248 L88.1529786,69.8378601 Z M96.4201133,71.8915253 L94.4558621,71.8915253 L94.0480303,73.1995392 L92.7787581,73.1995392 L94.8220785,67.1343536 L96.0663814,67.1343536 L98.1013789,73.1995392 L96.8321065,73.1995392 L96.4201133,71.8915253 Z M94.7554938,70.9375916 L96.1246432,70.9375916 L95.4546339,68.8006134 L95.4296645,68.8006134 L94.7554938,70.9375916 Z M100.792038,71.0000763 L100.792038,73.1995392 L99.576866,73.1995392 L99.576866,67.1343536 L101.894849,67.1343536 C102.591218,67.1343536 103.13915,67.3120863 103.53866,67.6675568 C103.938171,68.0230273 104.137923,68.4909639 104.137923,69.0713806 C104.137923,69.6517973 103.938171,70.1183454 103.53866,70.4710388 C103.13915,70.8237322 102.591218,71.0000763 101.894849,71.0000763 L100.792038,71.0000763 Z M100.792038,70.0628052 L101.894849,70.0628052 C102.233323,70.0628052 102.489949,69.9704675 102.664735,69.7857895 C102.839521,69.6011114 102.926913,69.3657546 102.926913,69.0797119 C102.926913,68.788115 102.840215,68.547204 102.666816,68.3569718 C102.493417,68.1667395 102.236097,68.0716248 101.894849,68.0716248 L100.792038,68.0716248 L100.792038,70.0628052 Z M110.7987,73.1995392 L109.583528,73.1995392 L109.583528,70.6793213 L107.11573,70.6793213 L107.11573,73.1995392 L105.900557,73.1995392 L105.900557,67.1343536 L107.11573,67.1343536 L107.11573,69.7420502 L109.583528,69.7420502 L109.583528,67.1343536 L110.7987,67.1343536 L110.7987,73.1995392 Z" id="Shape-Copy-4" fill="#929497" fill-rule="nonzero"></path>
                                <path d="M36.5766449,83.296875 L35.7951656,83.296875 L35.7951656,79.1827011 L34.3891566,79.1827011 L34.3891566,78.511734 L37.9826539,78.511734 L37.9826539,79.1827011 L36.5766449,79.1827011 L36.5766449,83.296875 Z M41.5916284,83.296875 L40.8199582,83.296875 L40.8199582,81.071228 C40.8199582,80.7919298 40.7638275,80.5835502 40.6515641,80.4460831 C40.5393009,80.3086159 40.3610992,80.2398834 40.1169538,80.2398834 C39.794333,80.2398834 39.5572758,80.3364363 39.4057748,80.5295448 C39.2542738,80.7226534 39.1785245,81.0461327 39.1785245,81.4999924 L39.1785245,83.296875 L38.4101242,83.296875 L38.4101242,78.204071 L39.1785245,78.204071 L39.1785245,79.4969101 C39.1785245,79.7042018 39.1654456,79.9256733 39.1392871,80.1613312 L39.1883339,80.1613312 C39.2929677,79.9867698 39.4384717,79.8514867 39.6248506,79.7554779 C39.8112296,79.6594691 40.0286682,79.6114655 40.2771735,79.6114655 C41.1534811,79.6114655 41.5916284,80.0533174 41.5916284,80.9370346 L41.5916284,83.296875 Z M44.0169392,83.3623352 C43.4545328,83.3623352 43.0147508,83.1981408 42.6975796,82.8697472 C42.3804086,82.5413535 42.2218255,82.0891371 42.2218255,81.5130844 C42.2218255,80.9217576 42.3689644,80.4569948 42.6632469,80.118782 C42.9575294,79.7805693 43.361889,79.6114655 43.8763383,79.6114655 C44.3537298,79.6114655 44.7308417,79.7565674 45.0076852,80.0467758 C45.2845286,80.3369842 45.4229482,80.7362874 45.4229482,81.2446976 L45.4229482,81.6603699 L43.0131143,81.6603699 C43.0240136,82.0116747 43.1188366,82.2816954 43.2975859,82.4704399 C43.4763351,82.6591844 43.7281064,82.7535553 44.0529069,82.7535553 C44.2665342,82.7535553 44.4654443,82.7333719 44.6496433,82.6930046 C44.8338424,82.6526373 45.0316624,82.5855412 45.2431099,82.4917145 L45.2431099,83.1168594 C45.0556411,83.2063222 44.8659952,83.2695997 44.6741668,83.306694 C44.4823383,83.3437883 44.2632646,83.3623352 44.0169392,83.3623352 Z M43.8763383,80.1940613 C43.6321929,80.1940613 43.4365527,80.2715217 43.2894113,80.426445 C43.1422702,80.5813683 43.0545317,80.8072037 43.0261934,81.1039581 L44.6676271,81.1039581 C44.6632674,80.8050217 44.5913327,80.5786408 44.4518212,80.4248085 C44.3123094,80.2709763 44.1204837,80.1940613 43.8763383,80.1940613 Z M48.4457584,83.296875 L47.6708187,83.296875 L47.6708187,78.511734 L50.3683941,78.511734 L50.3683941,79.1728821 L48.4457584,79.1728821 L48.4457584,80.6686478 L50.2474118,80.6686478 L50.2474118,81.3330688 L48.4457584,81.3330688 L48.4457584,83.296875 Z M53.4803607,83.296875 L53.3724575,82.8222885 L53.3332201,82.8222885 C53.2264065,82.9903039 53.0743629,83.122314 52.8770846,83.2183227 C52.6798064,83.3143315 52.4547383,83.3623352 52.2018734,83.3623352 C51.7637195,83.3623352 51.4367439,83.2532359 51.2209368,83.0350342 C51.0051297,82.8168324 50.8972277,82.4862617 50.8972277,82.0433121 L50.8972277,79.6769257 L51.6721676,79.6769257 L51.6721676,81.9091187 C51.6721676,82.1862349 51.7288434,82.394069 51.8421967,82.5326271 C51.9555498,82.6711852 52.1332066,82.7404633 52.3751722,82.7404633 C52.6977928,82.7404633 52.9348501,82.6439104 53.0863511,82.4508018 C53.2378521,82.2576933 53.3136013,81.934214 53.3136013,81.4803543 L53.3136013,79.6769257 L54.0852715,79.6769257 L54.0852715,83.296875 L53.4803607,83.296875 Z M56.3045858,82.7404633 C56.4920545,82.7404633 56.6795205,82.7110065 56.8669894,82.652092 L56.8669894,83.2314148 C56.7819745,83.2685091 56.6724376,83.2996024 56.5383756,83.3246956 C56.4043136,83.3497888 56.2653491,83.3623352 56.1214776,83.3623352 C55.393401,83.3623352 55.0293683,82.9783058 55.0293683,82.2102356 L55.0293683,80.2595215 L54.5356302,80.2595215 L54.5356302,79.9191284 L55.065336,79.6376495 L55.3269189,78.8717651 L55.8010383,78.8717651 L55.8010383,79.6769257 L56.8310217,79.6769257 L56.8310217,80.2595215 L55.8010383,80.2595215 L55.8010383,82.1971436 C55.8010383,82.3826151 55.8473598,82.5195346 55.9400044,82.6079063 C56.0326488,82.6962781 56.1541747,82.7404633 56.3045858,82.7404633 Z M59.9168298,83.296875 L59.8089269,82.8222885 L59.7696895,82.8222885 C59.6628758,82.9903039 59.5108322,83.122314 59.3135539,83.2183227 C59.1162757,83.3143315 58.8912075,83.3623352 58.6383426,83.3623352 C58.2001888,83.3623352 57.8732133,83.2532359 57.6574061,83.0350342 C57.441599,82.8168324 57.3336971,82.4862617 57.3336971,82.0433121 L57.3336971,79.6769257 L58.108637,79.6769257 L58.108637,81.9091187 C58.108637,82.1862349 58.1653127,82.394069 58.2786658,82.5326271 C58.3920192,82.6711852 58.5696758,82.7404633 58.8116414,82.7404633 C59.1342622,82.7404633 59.3713194,82.6439104 59.5228204,82.4508018 C59.6743214,82.2576933 59.7500707,81.934214 59.7500707,81.4803543 L59.7500707,79.6769257 L60.5217407,79.6769257 L60.5217407,83.296875 L59.9168298,83.296875 Z M63.2282534,79.6114655 C63.3830242,79.6114655 63.5105447,79.6223754 63.6108187,79.6441956 L63.5356137,80.3609848 C63.4266202,80.3348006 63.3132685,80.3217087 63.1955555,80.3217087 C62.8881939,80.3217087 62.6391476,80.42208 62.448409,80.6228256 C62.2576705,80.8235713 62.1623026,81.0843185 62.1623026,81.4050751 L62.1623026,83.296875 L61.3939021,83.296875 L61.3939021,79.6769257 L61.9955433,79.6769257 L62.0969067,80.3151627 L62.1361441,80.3151627 C62.2560371,80.0991429 62.4124404,79.9278571 62.6053588,79.8013 C62.7982772,79.674743 63.0059069,79.6114655 63.2282534,79.6114655 Z M65.5031542,83.3623352 C64.9407479,83.3623352 64.5009656,83.1981408 64.1837946,82.8697472 C63.8666236,82.5413535 63.7080405,82.0891371 63.7080405,81.5130844 C63.7080405,80.9217576 63.8551794,80.4569948 64.1494617,80.118782 C64.4437442,79.7805693 64.848104,79.6114655 65.3625533,79.6114655 C65.8399449,79.6114655 66.2170567,79.7565674 66.4939,80.0467758 C66.7707436,80.3369842 66.9091632,80.7362874 66.9091632,81.2446976 L66.9091632,81.6603699 L64.4993293,81.6603699 C64.5102286,82.0116747 64.6050514,82.2816954 64.7838008,82.4704399 C64.9625501,82.6591844 65.2143213,82.7535553 65.5391219,82.7535553 C65.7527492,82.7535553 65.9516591,82.7333719 66.1358583,82.6930046 C66.3200572,82.6526373 66.5178775,82.5855412 66.7293247,82.4917145 L66.7293247,83.1168594 C66.5418561,83.2063222 66.3522103,83.2695997 66.1603816,83.306694 C65.9685531,83.3437883 65.7494794,83.3623352 65.5031542,83.3623352 Z M65.3625533,80.1940613 C65.1184079,80.1940613 64.9227675,80.2715217 64.7756263,80.426445 C64.6284852,80.5813683 64.5407467,80.8072037 64.5124084,81.1039581 L66.1538421,81.1039581 C66.1494823,80.8050217 66.0775478,80.5786408 65.938036,80.4248085 C65.7985244,80.2709763 65.6066987,80.1940613 65.3625533,80.1940613 Z M72.2829512,81.4803543 C72.2829512,82.0716811 72.1314527,82.5331709 71.8284507,82.8648377 C71.5254489,83.1965043 71.1036503,83.3623352 70.5630425,83.3623352 C70.2251628,83.3623352 69.9265251,83.2859657 69.6671205,83.1332245 C69.4077162,82.9804833 69.208261,82.7611937 69.0687494,82.4753494 C68.9292376,82.1895051 68.8594829,81.8578434 68.8594829,81.4803543 C68.8594829,80.8933915 69.0098916,80.4351747 69.3107138,80.10569 C69.6115357,79.7762053 70.0355139,79.6114655 70.5826613,79.6114655 C71.1058301,79.6114655 71.5199991,79.7800238 71.8251809,80.1171455 C72.1303627,80.4542673 72.2829512,80.9086657 72.2829512,81.4803543 Z M69.6507717,81.4803543 C69.6507717,82.3160671 69.9592186,82.7339172 70.5761217,82.7339172 C71.1864853,82.7339172 71.4916624,82.3160671 71.4916624,81.4803543 C71.4916624,80.6533696 71.1843055,80.2398834 70.5695822,80.2398834 C70.2469614,80.2398834 70.0131739,80.3468007 69.8682126,80.5606384 C69.7232512,80.7744762 69.6507717,81.0810451 69.6507717,81.4803543 Z M74.757309,80.2595215 L73.8744662,80.2595215 L73.8744662,83.296875 L73.1027962,83.296875 L73.1027962,80.2595215 L72.5076948,80.2595215 L72.5076948,79.8994904 L73.1027962,79.6638336 L73.1027962,79.4281769 C73.1027962,79.0005014 73.2030686,78.6835681 73.4036168,78.4773674 C73.6041647,78.2711667 73.9104318,78.1680679 74.3224273,78.1680679 C74.5927311,78.1680679 74.8586711,78.2127986 75.1202555,78.3022613 L74.9175287,78.8848572 C74.72788,78.8237607 74.5469535,78.7932129 74.3747438,78.7932129 C74.2003543,78.7932129 74.0733788,78.847217 73.9938135,78.9552269 C73.9142482,79.0632368 73.8744662,79.2252492 73.8744662,79.4412689 L73.8744662,79.6769257 L74.757309,79.6769257 L74.757309,80.2595215 Z M78.8133724,83.296875 L77.4269822,79.3005295 L77.400824,79.3005295 C77.4378817,79.8940383 77.4564102,80.4504445 77.4564102,80.9697647 L77.4564102,83.296875 L76.7468661,83.296875 L76.7468661,78.511734 L77.8487848,78.511734 L79.1763189,82.3182449 L79.1959377,82.3182449 L80.5627093,78.511734 L81.6678977,78.511734 L81.6678977,83.296875 L80.9158463,83.296875 L80.9158463,80.9304886 C80.9158463,80.6926487 80.921841,80.3828068 80.9338302,80.0009537 C80.9458194,79.6191006 80.9561736,79.3878102 80.9648931,79.3070755 L80.9387349,79.3070755 L79.5032977,83.296875 L78.8133724,83.296875 Z M85.8294663,81.4803543 C85.8294663,82.0716811 85.6779675,82.5331709 85.3749657,82.8648377 C85.0719637,83.1965043 84.6501654,83.3623352 84.1095576,83.3623352 C83.7716777,83.3623352 83.47304,83.2859657 83.2136356,83.1332245 C82.9542311,82.9804833 82.754776,82.7611937 82.6152643,82.4753494 C82.4757527,82.1895051 82.4059978,81.8578434 82.4059978,81.4803543 C82.4059978,80.8933915 82.5564067,80.4351747 82.8572286,80.10569 C83.1580506,79.7762053 83.582029,79.6114655 84.1291762,79.6114655 C84.652345,79.6114655 85.066514,79.7800238 85.3716958,80.1171455 C85.6768776,80.4542673 85.8294663,80.9086657 85.8294663,81.4803543 Z M83.1972866,81.4803543 C83.1972866,82.3160671 83.5057337,82.7339172 84.1226367,82.7339172 C84.7330002,82.7339172 85.0381775,82.3160671 85.0381775,81.4803543 C85.0381775,80.6533696 84.7308204,80.2398834 84.1160971,80.2398834 C83.7934765,80.2398834 83.5596888,80.3468007 83.4147274,80.5606384 C83.2697661,80.7744762 83.1972866,81.0810451 83.1972866,81.4803543 Z M89.6705955,83.296875 L88.8989256,83.296875 L88.8989256,81.071228 C88.8989256,80.7919298 88.8427947,80.5835502 88.7305315,80.4460831 C88.618268,80.3086159 88.4400664,80.2398834 88.195921,80.2398834 C87.8711203,80.2398834 87.6335182,80.3358908 87.4831072,80.5279083 C87.3326961,80.7199259 87.2574918,81.0417687 87.2574918,81.4934463 L87.2574918,83.296875 L86.4890914,83.296875 L86.4890914,79.6769257 L87.0907325,79.6769257 L87.1986355,80.1515121 L87.2378731,80.1515121 C87.3468665,79.9791328 87.501635,79.8460317 87.702183,79.7522049 C87.902731,79.6583781 88.1250743,79.6114655 88.3692198,79.6114655 C89.2368079,79.6114655 89.6705955,80.0533174 89.6705955,80.9370346 L89.6705955,83.296875 Z M92.0959066,83.3623352 C91.5335002,83.3623352 91.093718,83.1981408 90.776547,82.8697472 C90.4593759,82.5413535 90.3007926,82.0891371 90.3007926,81.5130844 C90.3007926,80.9217576 90.4479318,80.4569948 90.7422141,80.118782 C91.0364966,79.7805693 91.4408564,79.6114655 91.9553057,79.6114655 C92.432697,79.6114655 92.8098088,79.7565674 93.0866524,80.0467758 C93.3634959,80.3369842 93.5019156,80.7362874 93.5019156,81.2446976 L93.5019156,81.6603699 L91.0920814,81.6603699 C91.1029809,82.0116747 91.1978037,82.2816954 91.3765531,82.4704399 C91.5553025,82.6591844 91.8070736,82.7535553 92.1318742,82.7535553 C92.3455013,82.7535553 92.5444115,82.7333719 92.7286106,82.6930046 C92.9128095,82.6526373 93.1106298,82.5855412 93.3220771,82.4917145 L93.3220771,83.1168594 C93.1346082,83.2063222 92.9449626,83.2695997 92.7531339,83.306694 C92.5613054,83.3437883 92.3422318,83.3623352 92.0959066,83.3623352 Z M91.9553057,80.1940613 C91.7111603,80.1940613 91.5155198,80.2715217 91.3683787,80.426445 C91.2212373,80.5813683 91.133499,80.8072037 91.1051607,81.1039581 L92.7465944,81.1039581 C92.7422346,80.8050217 92.6703001,80.5786408 92.5307883,80.4248085 C92.3912768,80.2709763 92.1994511,80.1940613 91.9553057,80.1940613 Z M93.4683457,79.6769257 L94.3054115,79.6769257 L95.0411138,81.7291031 C95.1522871,82.0214935 95.2264016,82.2964236 95.2634594,82.5539017 L95.2896178,82.5539017 C95.3092366,82.4338907 95.3452039,82.2882432 95.3975208,82.1169548 C95.4498377,81.9456664 95.726677,81.1323315 96.2280469,79.6769257 L97.0585733,79.6769257 L95.5119634,83.7780075 C95.2307602,84.5308037 94.7620951,84.907196 94.1059544,84.907196 C93.9359245,84.907196 93.7702569,84.8886492 93.6089465,84.851555 L93.6089465,84.242775 C93.7244797,84.2689592 93.8563599,84.2820511 94.0045909,84.2820511 C94.3751688,84.2820511 94.6356594,84.0671256 94.7860703,83.6372681 L94.9201317,83.296875 L93.4683457,79.6769257 Z" id="Shape-Copy-5" fill="#929497" fill-rule="nonzero"></path>
                                <g id="coindesk" transform="translate(360.000000, 0.000000)" fill="#929497" fill-rule="nonzero">
                                    <path d="M1.10216807,15.2807018 C0.487673146,14.6918636 0.105269231,13.8642099 0.105269231,12.9475439 C0.105269231,11.9731063 0.537392851,11.0992545 1.22107874,10.5059374 C1.46476221,10.1817095 1.94976923,9.37444048 1.94976923,8.08508772 C1.94976923,6.85638233 1.50931575,6.06547565 1.25699139,5.71319632 C0.55256019,5.1195434 0.105269231,4.23226838 0.105269231,3.24087719 C0.105269231,1.45350934 1.55914702,0.00456140351 3.35259615,0.00456140351 C4.33633253,0.00456140351 5.21790197,0.440506818 5.8134079,1.12912463 C6.15120248,1.37625956 6.95451541,1.84052632 8.22244231,1.84052632 C9.4903692,1.84052632 10.2936821,1.37625956 10.6314767,1.12912463 C11.2269826,0.440506818 12.1085521,0.00456140351 13.0922885,0.00456140351 C14.0760248,0.00456140351 14.9575943,0.440506818 15.5531002,1.12912463 C15.8908948,1.37625956 16.6942077,1.84052632 17.9621346,1.84052632 C19.2300615,1.84052632 20.0333744,1.37625956 20.371169,1.12912463 C20.966675,0.440506818 21.8482444,0.00456140351 22.8319808,0.00456140351 C24.6254299,0.00456140351 26.0793077,1.45350934 26.0793077,3.24087719 C26.0793077,5.02824505 24.6254299,6.47719298 22.8319808,6.47719298 C21.8453167,6.47719298 20.9614286,6.03864887 20.3658598,5.34647484 C20.0250044,5.09839659 19.2234659,4.63894737 17.9621346,4.63894737 C16.7008033,4.63894737 15.8992648,5.09839659 15.5584095,5.34647484 C14.9628407,6.03864887 14.0789525,6.47719298 13.0922885,6.47719298 C12.1056244,6.47719298 11.2217363,6.03864887 10.6261675,5.34647484 C10.2853121,5.09839659 9.48377363,4.63894737 8.22244231,4.63894737 C6.96111098,4.63894737 6.15957248,5.09839659 5.81871716,5.34647484 C5.70690335,5.47642559 5.58492704,5.59743655 5.45401605,5.70828406 C5.20229314,6.05808978 4.75771154,6.85063778 4.75771154,8.08508772 C4.75771154,9.38218285 5.24856084,10.1913872 5.49076562,10.5117259 C6.17060121,11.1049305 6.59992308,11.9762705 6.59992308,12.9475439 C6.59992308,13.8642099 6.21751916,14.6918636 5.60302424,15.2807018 L5.62275,15.2807018 C5.62275,15.2807018 4.75771154,16.1359649 4.75771154,17.8578947 C4.75771154,18.972649 5.12025725,19.7270427 5.37593424,20.120457 C5.53666922,20.2482269 5.68496408,20.3908835 5.81871716,20.5463322 C6.15957248,20.7944104 6.96111098,21.2538596 8.22244231,21.2538596 C9.48377363,21.2538596 10.2853121,20.7944104 10.6261675,20.5463322 C11.2217363,19.8541582 12.1056244,19.415614 13.0922885,19.415614 C14.8857376,19.415614 16.3396154,20.864562 16.3396154,22.6519298 C16.3396154,24.4392977 14.8857376,25.8882456 13.0922885,25.8882456 C12.1085521,25.8882456 11.2269826,25.4523002 10.6314767,24.7636824 C10.2936821,24.5165475 9.4903692,24.0522807 8.22244231,24.0522807 C6.95451541,24.0522807 6.15120248,24.5165475 5.8134079,24.7636824 C5.21790197,25.4523002 4.33633253,25.8882456 3.35259615,25.8882456 C1.55914702,25.8882456 0.105269231,24.4392977 0.105269231,22.6519298 C0.105269231,21.6248879 0.585308012,20.7095849 1.33397472,20.1167148 C1.5895123,19.722269 1.94976923,18.9691246 1.94976923,17.8578947 C1.94976923,16.1359649 1.08473077,15.2807018 1.08473077,15.2807018 L1.10216807,15.2807018 Z M6.59992234,22.6542105 L9.84496227,22.6542105 C9.8449618,22.6534504 9.84496154,22.6526901 9.84496154,22.6519298 L6.59992308,22.6519298 C6.59992308,22.6526901 6.59992281,22.6534504 6.59992229,22.6542105 Z M9.84496154,3.24087719 C9.84496154,3.2401169 9.8449618,3.23935666 9.84496233,3.23859649 L6.59992234,3.23859649 C6.59992281,3.23935666 6.59992308,3.2401169 6.59992308,3.24087719 L9.84496154,3.24087719 Z M19.5846538,3.24087719 C19.5846538,3.2401169 19.5846541,3.23935666 19.5846546,3.23859649 L16.3396147,3.23859649 C16.3396151,3.23935666 16.3396154,3.2401169 16.3396154,3.24087719 L19.5846538,3.24087719 Z M13.0922885,14.1449123 C12.4287502,14.1449123 11.8908462,13.6088322 11.8908462,12.9475439 C11.8908462,12.2862555 12.4287502,11.7501754 13.0922885,11.7501754 C13.7558267,11.7501754 14.2937308,12.2862555 14.2937308,12.9475439 C14.2937308,13.6088322 13.7558267,14.1449123 13.0922885,14.1449123 Z M22.8319808,14.1449123 C22.1684425,14.1449123 21.6305385,13.6088322 21.6305385,12.9475439 C21.6305385,12.2862555 22.1684425,11.7501754 22.8319808,11.7501754 C23.495519,11.7501754 24.0334231,12.2862555 24.0334231,12.9475439 C24.0334231,13.6088322 23.495519,14.1449123 22.8319808,14.1449123 Z M22.8319808,23.8492982 C22.1684425,23.8492982 21.6305385,23.3132181 21.6305385,22.6519298 C21.6305385,21.9906415 22.1684425,21.4545614 22.8319808,21.4545614 C23.495519,21.4545614 24.0334231,21.9906415 24.0334231,22.6519298 C24.0334231,23.3132181 23.495519,23.8492982 22.8319808,23.8492982 Z" id="Combined-Shape-Copy-2"></path>
                                    <path d="M40.0796413,17.0389725 L40.1958321,16.8072024 L41.6794991,17.9571385 L41.5275573,18.1532516 C40.583308,19.3889311 39.0982637,20.0929691 37.5413195,20.0430691 C34.4676432,19.9219148 32.0384615,17.4014837 32.0384615,14.3335026 C32.0384615,11.2655216 34.4676432,8.74509041 37.5413195,8.62393608 C39.0723409,8.61055145 40.5212315,9.31329481 41.4560553,10.5226678 L41.5901216,10.7187809 L40.0528281,11.8687171 L39.9187618,11.636947 C39.4022516,10.8446608 38.5156171,10.3705677 37.5681327,10.3800401 C35.458823,10.3800401 33.9930316,12.020259 33.9930316,14.3379597 C33.9930316,16.6556604 35.4766986,18.2691367 37.5681327,18.2691367 C38.5601512,18.309711 39.5053473,17.8467436 40.0796413,17.0389725 Z M48.2129965,8.64176455 C49.7290763,8.60774118 51.1910733,9.20400299 52.248869,10.2877575 C53.3066648,11.371512 53.8649962,12.8451583 53.7901544,14.3557882 C53.7893345,16.6805109 52.3764698,18.7729955 50.2169404,19.6477989 C48.057411,20.5226023 45.5817674,20.0053129 43.9558991,18.3395451 C42.3300307,16.6737773 41.8780909,14.191639 42.8129178,12.0620785 C43.7477448,9.93251792 45.8829599,8.58011057 48.2129965,8.64176455 Z M48.2129965,18.2869651 L48.2129965,18.2691367 C50.2776175,18.2691367 51.7880977,16.6913174 51.7880977,14.3557882 C51.7880977,12.020259 50.3401817,10.3978685 48.2129965,10.3978685 C46.0858113,10.3978685 44.6378953,12.0380875 44.6378953,14.3557882 C44.6378953,16.6734889 46.1305001,18.2869651 48.2129965,18.2869651 Z M57.4278198,3.84590695 C58.1379892,3.86530123 58.7021129,4.44775171 58.6969808,5.15629927 C58.696671,5.69029374 58.3715094,6.17068708 57.8750494,6.37061984 C57.3785894,6.5705526 56.8101493,6.45002759 56.4381675,6.06596117 C56.0661857,5.68189475 55.9650783,5.11112062 56.182592,4.62317937 C56.4001057,4.13523813 56.8927262,3.82774396 57.4278198,3.84590695 Z M56.4357293,8.90919155 L58.3752216,8.90919155 L58.3752216,19.7934706 L56.4357293,19.7934706 L56.4357293,8.90919155 Z M66.830336,8.64176455 C67.9695771,8.59105057 69.071628,9.0523014 69.8334209,9.89867146 C70.5415811,10.838281 70.8959232,11.9963289 70.8344493,13.1701951 L70.8344493,19.7934706 L68.9396457,19.7934706 L68.9396457,13.7941915 C68.9396457,11.4140911 68.1978122,10.3978685 66.4728258,10.3978685 C65.0785364,10.3978685 63.6842469,11.5478047 63.6842469,14.2220747 L63.6842469,19.8023848 L61.7358168,19.8023848 L61.7358168,11.4497481 C61.7358168,10.8079233 61.7090035,9.8273576 61.655377,9.18553279 L61.655377,8.91810578 L63.5323051,8.91810578 L63.5323051,9.14096162 C63.5948694,9.44404556 63.5948694,9.8273576 63.5948694,10.1839269 C64.3928496,9.21951295 65.5767018,8.65523811 66.830336,8.64176455 Z M82.3999016,10.2463266 L82.3999016,2.50877193 L84.339394,2.50877193 L84.339394,19.7845564 L82.3999016,19.7845564 L82.3999016,18.4474213 C81.4892316,19.4612067 80.1895378,20.0412892 78.8248004,20.0430691 C75.7323379,20.0430691 73.4621486,17.6451403 73.4621486,14.3290455 C73.4621486,11.0129506 75.6876491,8.61502185 78.8248004,8.61502185 C80.1969077,8.61778141 81.5006684,9.21268233 82.3999016,10.2463266 Z M78.9767422,18.2691367 C79.9838594,18.2501233 80.9384782,17.8174724 81.6152174,17.0733308 C82.2919565,16.3291893 82.6308344,15.3395128 82.5518434,14.3379597 C82.5518434,12.0470017 81.0592387,10.3800401 78.9767422,10.3800401 C76.4920469,10.3800401 75.401641,12.3857426 75.401641,14.3379597 C75.401641,16.2901768 76.5367357,18.2691367 78.9767422,18.2691367 Z M92.2850564,8.64176455 C93.7144151,8.58740597 95.092615,9.17650878 96.0389126,10.2463266 C96.862312,11.3332903 97.2767166,12.6741946 97.2097583,14.0348758 C97.2097583,14.2399032 97.2097583,14.4895017 97.2097583,14.7658429 L97.2097583,14.9886988 L88.9602123,14.9886988 C89.0191299,16.5048472 90.0717246,17.8013966 91.5463698,18.1742375 C93.0210149,18.5470785 94.5657839,17.9072316 95.3417679,16.602175 L95.484772,16.3614907 L96.9773767,17.5827407 L96.8343727,17.7699396 C95.8198103,19.2288213 94.1455211,20.0904811 92.3654962,20.0698118 C90.8857924,20.0475312 89.4787398,19.4262793 88.4674355,18.3487123 C87.4561312,17.2711453 86.9274691,15.8298506 87.0028444,14.3557882 C87.0028444,11.0931787 89.2730336,8.64176455 92.2850564,8.64176455 Z M89.0585276,13.3128229 L95.3328302,13.3128229 C95.3285228,12.519205 95.001918,11.7612087 94.4275904,11.2119098 C93.8532628,10.6626109 93.0802499,10.3689099 92.2850564,10.3978685 C90.6356164,10.4421004 89.265289,11.6801002 89.0585276,13.3128229 Z M103.36787,13.3128229 C105.888316,13.8655053 107.014473,14.881728 107.005536,16.5843466 C107.005536,19.16056 104.940915,20.0519834 103.01036,20.0519834 C101.359765,20.098689 99.7993958,19.3020707 98.8721803,17.93931 L98.7470518,17.7521111 L100.302221,16.5486896 L100.445225,16.7982882 C100.97624,17.7088156 101.945465,18.2766519 103.001422,18.2958794 C103.957762,18.2958794 105.101794,18.0195381 105.101794,16.7180601 C105.101794,15.8801221 104.431463,15.4522389 102.340028,14.9352134 C101.428378,14.7123575 99.2922547,14.2666459 99.2922547,11.8954598 C99.2922547,9.52427366 101.312187,8.63285031 103.099737,8.63285031 C104.606651,8.59287713 106.021809,9.35288003 106.817843,10.6296386 L106.916158,10.8079233 L105.405678,11.9846021 L105.271611,11.7171751 C104.843596,10.8839028 103.975665,10.3679774 103.037173,10.3889543 C102.13446,10.3889543 101.169183,10.7544379 101.169183,11.7706605 C101.169183,12.555113 101.750137,12.9651678 103.36787,13.3128229 Z M113.217274,13.9189908 L119,19.8023848 L116.17567,19.8023848 L111.385034,14.6410437 L111.385034,19.8023848 L109.445542,19.8023848 L109.445542,2.50877193 L111.385034,2.50877193 L111.385034,13.3128229 L115.710907,8.90919155 L118.517361,8.90919155 L113.217274,13.9189908 Z" id="coindesk-copy"></path>
                                </g>
                            </g>
                        </g>
                    </g>
                </g>
            </g>
        </g>
    </g>
</svg>