<?xml version="1.0" encoding="UTF-8"?>
<svg width="119px" height="156px" viewBox="0 0 119 156" version="1.1" xmlns="http://www.w3.org/2000/svg" xmlns:xlink="http://www.w3.org/1999/xlink">
    <!-- Generator: Sketch 50.2 (55047) - http://www.bohemiancoding.com/sketch -->
    <title>media</title>
    <desc>Created with Sketch.</desc>
    <defs></defs>
    <g id="Page-1" stroke="none" stroke-width="1" fill="none" fill-rule="evenodd">
        <g id="media">
            <g id="Forbes" transform="translate(9.000000, 52.000000)" fill="#929497" fill-rule="nonzero">
                <path d="M25.3856104,25.9287029 C23.6451932,25.6765643 22.1229741,24.943226 20.9605667,23.796992 C19.9909487,22.8409516 19.3622653,21.7896 18.8988814,20.3490733 C18.1753106,18.0999026 18.1750953,15.2082035 18.8981637,13.0049021 C19.5989816,10.8696903 21.1768986,9.01105222 23.1080238,8.04608081 C25.7823865,6.70972473 29.5464478,6.79367567 32.0234272,8.24491951 C34.2525652,9.5509818 35.6028096,11.871743 35.9785554,15.042445 C36.093253,16.0104887 36.0188216,18.0553193 35.8381622,18.8993299 C35.0987289,22.3541076 32.9453143,24.7673935 29.7903416,25.6769215 C29.4503401,25.7748762 28.9231476,25.8896211 28.6188186,25.9317037 C27.9747753,26.0209418 26.0089824,26.0190841 25.3856104,25.9287029 Z M27.9894175,24.5414761 C28.4978766,24.3911504 29.1249091,23.8057801 29.4593121,23.1693248 C30.149579,21.8554747 30.4578556,19.9125284 30.4655356,16.8273492 C30.4750818,12.9608904 29.8661367,10.5005205 28.580921,9.21232013 C28.0412395,8.67131884 27.6585315,8.50334551 26.9684799,8.50441722 C25.4370018,8.50684644 24.4650153,10.0983419 24.0810153,13.2320341 C23.9045188,14.6725608 23.9035857,18.1042609 24.0793644,19.3636679 C24.6232807,23.2614208 26.0278594,25.1212735 27.9894175,24.5414761 Z M56.2119102,25.9278455 C55.4998235,25.8559692 53.3238713,25.495516 52.5637667,25.3234702 L52.0379379,25.2044385 L52.0789218,22.4091937 C52.1776852,15.6791861 52.1901024,12.0052072 52.1261502,8.43225514 C52.0635618,4.93217966 52.0453308,4.56215249 51.9096747,4.04437167 C51.7378437,3.38833972 51.4898586,2.93078923 51.1916306,2.71937576 C51.0757846,2.63728245 50.7609764,2.5208943 50.4921046,2.46073541 C49.5984253,2.26089645 49.6469457,2.29290498 49.6231162,1.88708256 C49.609407,1.65330598 49.6348156,1.49883625 49.6948919,1.45146649 C49.7754242,1.38787811 57.105733,-0.00392131313 57.3392194,8.30537576e-06 C57.4063296,0.00115146712 57.415804,0.934114347 57.3814235,4.14547004 C57.3570197,6.42464877 57.3538616,8.28943137 57.3744612,8.28943137 C57.3949891,8.28943137 57.662856,8.17397203 57.9696971,8.032863 C58.894527,7.60753538 59.7469353,7.42298621 60.9849943,7.37997475 C61.8091947,7.35139571 62.1911132,7.36932906 62.6139438,7.45635224 C65.3789592,8.02586114 67.4251409,10.2786757 68.1401704,13.5407592 C68.3267154,14.3917002 68.3960508,16.5066923 68.2723095,17.5659746 C68.1667274,18.468858 67.8655566,19.6853965 67.5521838,20.4748211 C66.3695356,23.4538292 63.8323364,25.3972756 60.4663431,25.9023387 C59.691022,26.018584 57.2563184,26.0332308 56.2119102,25.9278455 Z M59.0885367,24.5069669 C59.6099872,24.4084407 60.0150175,24.2018856 60.4499782,23.8125676 C61.5400358,22.8371649 62.3595708,20.8230568 62.6819154,18.3276776 C62.8131932,17.3113353 62.7955364,14.9954325 62.650047,14.147135 C62.2565009,11.8528809 61.410696,10.3449791 60.1769435,9.7378173 C59.6651827,9.48596448 59.5863012,9.46824547 58.9791506,9.46824547 C58.5449794,9.46824547 58.1715304,9.51447207 57.8539229,9.60763975 L57.3785524,9.74703404 L57.3435259,12.3583727 C57.2985225,15.7034069 57.4078369,24.0778526 57.4996381,24.3181309 C57.5581353,24.4714575 57.6226616,24.5040376 57.9132814,24.5267579 C58.5972321,24.5802722 58.7103506,24.5782716 59.0885367,24.5069669 Z M76.8474242,25.8924075 C73.2865599,25.2531658 70.7399581,22.739496 69.9078624,19.0427967 C69.8008448,18.5673843 69.7535446,18.0352425 69.7267005,17.0059682 C69.6842093,15.3776058 69.8172814,14.3668364 70.2394661,13.1109304 C71.0501009,10.6995736 72.502841,8.99083254 74.6131902,7.96670252 C76.8406055,6.88577164 79.885905,6.81496706 81.8571528,7.7983005 C84.076601,8.90545265 85.3824881,11.1161131 85.7138048,14.3266829 C85.7584493,14.7590124 85.7842167,15.2733637 85.7712971,15.4698446 L85.7476829,15.8270827 L80.436281,15.8453733 L75.1248792,15.8637353 L75.1450481,16.4884018 C75.1919895,17.9355016 75.5045009,19.215557 76.0826541,20.3282821 C76.345425,20.8341311 76.5545794,21.1098475 77.0627513,21.6204835 C78.2105883,22.7742195 79.3525397,23.2207671 81.1539663,23.2207671 C82.4600687,23.2207671 83.3993255,22.9613408 84.3817195,22.3291724 C84.6568358,22.1520537 84.9356844,22.0072294 85.0012156,22.0072294 C85.1511551,22.0072294 85.4963962,22.4495616 85.4963962,22.6417556 C85.4963962,22.9566967 84.4665584,23.9718958 83.4621293,24.64729 C82.639508,25.2004374 81.334841,25.7014281 80.2035842,25.8983377 C79.411324,26.0364459 77.631502,26.0332308 76.8474242,25.8924075 Z M79.1010377,14.2465901 L80.3497913,14.2033643 L80.304788,13.3203433 C80.1463072,10.206728 79.3808194,8.5051317 78.1393151,8.50656065 C76.7900037,8.50806105 75.7117173,10.2348069 75.2634063,13.112145 C75.2082825,13.4658106 75.1626332,13.8852081 75.1619154,14.044179 L75.1606235,14.3331846 L76.5064179,14.311536 C77.2466407,14.2994614 78.414216,14.2703107 79.1010377,14.2465901 Z M91.2025644,25.9617831 C89.9238085,25.8253182 87.8886803,25.3818429 87.2110459,25.0918371 L86.8800881,24.9503708 L86.8349412,23.3180787 C86.8101068,22.4204109 86.7815401,21.2200197 86.771348,20.6507251 L86.7528298,19.6156636 L86.9512179,19.5209955 C87.0603169,19.4689817 87.280453,19.4203258 87.4405128,19.4128953 L87.7314197,19.3994631 L87.9792612,20.0067678 C88.9462953,22.3759705 90.0804231,23.6533823 91.56173,24.0419144 C92.1268201,24.1902397 93.186373,24.1915257 93.6046818,24.0444151 C94.7764919,23.632734 95.4190997,22.7494272 95.4246982,21.5428914 C95.4313016,20.1139392 94.6422713,19.4273992 91.6613547,18.2683046 C89.8145659,17.5501847 89.1703072,17.1806576 88.4032403,16.3990922 C87.5757382,15.555939 87.1786033,14.5963262 87.1040283,13.2596128 C87.0139498,11.6444682 87.5216911,10.2828197 88.6470624,9.12258194 C89.7794676,7.95491366 91.2495775,7.32203074 93.2522631,7.14012513 C95.0157921,6.97993959 97.7228126,7.35225308 99.1411723,7.95005522 L99.3999237,8.05908427 L99.4460754,9.51390049 C99.471484,10.3140423 99.4977539,11.3866138 99.5044291,11.8974642 L99.516631,12.8262117 L99.169093,12.9546745 C98.6197218,13.1577286 98.5835468,13.1322932 98.2779259,12.3262213 C97.4212111,10.0667621 96.4258975,8.99769152 94.8750399,8.67110449 C93.9298975,8.47205145 93.1403648,8.68603704 92.5664463,9.29677121 C92.1187812,9.77318386 91.9440792,10.1962966 91.9018033,10.9067716 C91.8558668,11.6765482 91.9941068,12.092659 92.4666063,12.6072962 C93.0489225,13.2416081 94.0030369,13.7891111 95.9037293,14.5797503 C98.2317024,15.5480798 99.3423595,16.370156 99.9462085,17.571619 C100.338391,18.3519697 100.449428,18.9752072 100.410023,20.174884 C100.38038,21.0751239 100.351454,21.2601018 100.145673,21.8644771 C99.4748575,23.8350022 97.9606773,25.1323478 95.6213637,25.7406528 C94.8290317,25.9466363 94.7159132,25.9572105 93.1403648,25.9745008 C92.2324739,25.9842177 91.3603992,25.9786448 91.2025644,25.9617831 Z M0.67538983,25.532383 C0.615744223,25.5083766 0.585670204,25.3303292 0.585670204,25.0007414 C0.585670204,24.408655 0.54784441,24.4351621 1.69819357,24.2227483 C2.58060404,24.0597763 2.89620179,23.8931605 3.28587207,23.3846679 C4.04131133,22.3986194 4.20460105,20.5002565 4.20632366,12.6834593 C4.20790273,5.34250328 4.06578684,3.79823466 3.28450833,2.66364662 C2.9378317,2.16029822 2.35364927,1.88693966 1.37513114,1.77033716 L0.621486279,1.68052752 L0.600814877,1.09480002 L0.579999924,0.509143968 L0.81614198,0.467275669 C0.946055998,0.444269539 5.50862198,0.434552664 10.955321,0.445627044 L20.8584298,0.465918165 L20.9047969,0.751708601 C20.9303491,0.908893341 20.9722661,2.52118009 20.9979618,4.33452041 L21.044616,7.63154178 L20.5340754,7.78594006 C19.7655012,8.01828769 19.7700949,8.02114559 19.4243513,7.11047437 C18.5751012,4.87359262 17.6012485,3.58467775 16.2686609,2.93379003 C15.349573,2.4848847 14.9246609,2.43065597 12.3291797,2.43065597 L10.0703984,2.43065597 L10.0314242,2.80575592 C9.95835656,3.50915763 9.84315656,8.03400616 9.84394609,10.1648597 L9.84473562,12.290426 L10.5086609,12.2866393 C10.8738556,12.2845673 11.5939095,12.2578459 12.1088283,12.2271949 C12.8827857,12.1811112 13.1128268,12.1402432 13.4366788,11.9909891 C14.2323124,11.62432 14.773573,10.8173907 15.1052485,9.50346914 L15.2764336,8.82514554 L15.8622668,8.80435428 L16.4481001,8.78356303 L16.4481001,17.3689221 L15.8620515,17.3481308 L15.2760029,17.3273396 L15.1096268,16.6485873 C14.7971154,15.3732475 14.1955633,14.4602899 13.4522541,14.1329884 C13.108951,13.9818767 12.2595573,13.8959253 10.6163244,13.8461977 L9.84473562,13.8227629 L9.84473562,15.4354783 C9.84473562,17.1928037 9.94184815,19.5702229 10.0662354,20.8604953 C10.2396455,22.6592603 10.7014504,23.6530966 11.5306751,24.0128353 C11.6890123,24.0814964 12.1900784,24.1929547 12.643988,24.260687 C13.0979693,24.3283479 13.5259678,24.412799 13.595016,24.4483799 C13.7702205,24.5384039 13.7805562,25.4700093 13.6071461,25.5361697 C13.4713465,25.5881836 0.804729643,25.584254 0.67538983,25.532383 Z M36.0572934,25.518808 C35.9918339,25.4773684 35.9704448,25.3125387 35.9855177,24.9659464 L36.0070504,24.4722434 L36.2582653,24.4190864 C36.3964336,24.3897928 36.6932261,24.331563 36.9177405,24.2898376 C37.6127446,24.1605889 38.0121046,23.7851317 38.2369061,23.0495786 C38.4200059,22.4504904 38.5006818,20.5336939 38.5048448,16.684454 C38.5100126,11.9768425 38.4114646,10.8650462 37.9332949,10.2348783 C37.6741128,9.8932873 37.4872807,9.79618999 36.858382,9.67601512 C36.5480238,9.6167136 36.2214444,9.55312523 36.1326579,9.53469175 C35.9888194,9.50489809 35.9711625,9.4582428 35.9711625,9.10807807 C35.9711625,8.76763021 35.992767,8.70611382 36.1326579,8.64881284 C36.3474108,8.56093228 43.4579424,7.14612672 43.6851124,7.14612672 L43.8623267,7.14612672 L43.8275872,8.19997896 C43.8084231,8.77956196 43.7779184,9.62357257 43.7596874,10.0754787 L43.726527,10.8971262 L43.98413,10.4347173 C44.808761,8.95446571 45.7335192,8.03550656 46.9632523,7.47457138 C47.6383027,7.16656074 48.088767,7.07467912 48.9227289,7.07467912 C49.9117981,7.07467912 50.9006519,7.39590757 50.9006519,7.71727891 C50.9006519,7.93333648 49.1580096,12.5168435 49.061902,12.5534961 C49.0150324,12.571358 48.6747438,12.441895 48.305745,12.2655623 C47.5361659,11.8979643 46.8142459,11.7182736 46.113428,11.719774 C45.2406354,11.7216316 44.2657061,12.0416455 43.8808448,12.4526121 C43.7161913,12.6283732 43.7154018,12.6389475 43.6744896,15.2640041 C43.6340081,17.8636253 43.7210003,21.0346131 43.8678534,22.3099529 C43.9929584,23.3964567 44.283004,23.9313135 44.8819723,24.1804514 C45.0817958,24.2634735 46.346053,24.435948 46.7586197,24.4363767 C46.7899139,24.4363767 46.8059917,24.6855859 46.7945076,24.9900957 L46.7735491,25.5438146 L41.4621472,25.5608192 C38.5407326,25.5703217 36.108613,25.5514595 36.0572934,25.518808 Z" id="Forbes-Copy"></path>
            </g>
            <path d="M13.0077774,146.67123 C11.4331295,146.791166 9.84749575,146.701214 8.20327039,146.701214 L8.20327039,141.232883 C9.83650983,141.232883 11.4221436,141.131687 12.9931295,141.262867 C14.4396084,141.382803 15.3880591,142.54843 15.406369,143.905206 C15.4246788,145.310706 14.4396084,146.566286 13.0077774,146.67123 Z M8.19228448,133.684412 C9.71200279,133.684412 11.1991295,133.583216 12.6672141,133.714396 C13.9891859,133.834332 14.8204535,134.936244 14.8167915,136.210564 C14.8167915,137.466143 14.0697493,138.481851 12.7221436,138.620527 C11.2573549,138.770447 9.76693237,138.654259 8.19228448,138.654259 L8.19228448,133.684412 Z M18.7497493,142.818286 C19.6689042,145.94037 17.6401718,149.002485 14.2638338,149.317317 C11.894538,149.534701 9.49960842,149.437253 7.11566476,149.482229 C5.69152392,149.512213 4.27031265,149.538449 2.84946758,149.568433 L2.84946758,146.91485 C4.55960842,146.843638 5.57763659,145.681758 5.51538307,143.875222 C5.45679152,142.203615 4.40983377,141.154175 2.84946758,141.202899 L2.84946758,138.755455 C4.34355208,138.751707 5.45312955,137.694771 5.50842532,136.225556 C5.5629887,134.688876 4.47904504,133.560728 2.84946758,133.452036 L2.84946758,130.802201 C5.86327039,130.828437 8.87341124,130.832185 11.8872141,130.899649 C12.806369,130.918389 13.7511577,130.997097 14.6336929,131.229473 C16.4943408,131.724208 17.8232704,132.874844 18.2041155,134.895016 C18.5812986,136.900196 17.9514394,138.496843 16.2412986,139.609999 C16.1973549,139.639983 16.182707,139.722439 16.1241155,139.849871 C17.3618619,140.490779 18.3322845,141.412787 18.7497493,142.818286 Z M99.4632338,149.478556 C98.4602197,149.478556 97.5007831,149.531028 96.5559943,149.440701 C96.3468957,149.422336 96.0246422,148.916356 96.0213465,148.631508 C95.9770366,146.289009 95.9990084,143.942386 95.9953465,141.599887 C95.9920507,139.640058 95.1567549,138.590618 93.5751493,138.538146 C91.8723324,138.485674 90.5756281,139.741254 90.5353465,141.599887 C90.4840788,143.807833 90.5206986,146.015405 90.5206986,148.222602 L90.5206986,149.482304 C89.5213465,149.482304 88.6604169,149.45232 87.8075436,149.493548 C87.1773183,149.523532 87.0125295,149.253301 87.0202197,148.653996 C87.0418253,146.311497 87.0312056,143.965249 87.0271774,141.62275 C87.0235155,139.576342 86.1926141,138.553138 84.5406986,138.538146 C82.8305577,138.526902 81.5821915,139.797474 81.5598535,141.663978 C81.5305577,144.208494 81.5528957,146.753386 81.5528957,149.470685 C80.4978817,149.470685 79.4871774,149.489425 78.4764732,149.448572 C78.3376845,149.444824 78.0886704,149.156228 78.0846422,148.998812 C78.0663324,144.691986 78.0699943,140.381787 78.0699943,136.098199 C80.3188112,135.588471 80.7436,135.775871 81.3035155,137.567414 C82.5376,136.281851 83.9877408,135.524755 85.7348676,135.588471 C87.4629521,135.648439 88.8768394,136.360559 89.8069803,137.979694 C91.3816281,136.139427 93.2525295,135.284883 95.6035155,135.700911 C97.6692338,136.064467 99.3497126,137.672358 99.430276,139.789978 C99.5547831,142.972029 99.4632338,146.165325 99.4632338,149.478556 Z M116.17662,141.679007 C116.257183,142.810903 116.187606,144.00614 115.909296,145.104678 C114.700845,149.883378 109.427606,151.146453 106.26,148.125566 L106.26,155.999738 L102.792113,155.999738 L102.792113,136.086617 C104.890423,135.573516 105.44338,135.802144 105.912113,137.226009 C106.922817,136.727525 107.896901,135.989544 108.977183,135.760916 C112.712394,134.962218 115.88,137.58994 116.17662,141.679007 Z M111.617465,145.854278 C113.041972,144.261379 113.052958,141.161408 111.654084,139.550143 C110.789859,138.553176 109.409296,138.144644 108.208169,138.609396 C107.018028,139.074148 106.358873,139.999903 106.24169,141.300459 C106.201408,141.772707 106.234366,142.248703 106.234366,142.724324 C106.234366,143.16284 106.194084,143.609227 106.24169,144.047743 C106.384507,145.366664 106.996056,146.352762 108.281408,146.776286 C109.577746,147.203558 110.701972,146.877107 111.617465,145.854278 Z M75.9496394,147.057573 C76.030569,147.855523 76.1144281,148.657594 76.1949915,149.43343 C74.2764845,150.231754 72.8369634,149.823222 71.4637239,148.110386 C70.1238084,149.268518 68.5894422,149.849833 66.8056957,149.767002 C64.5352732,149.65831 62.7595831,148.15911 62.4849352,146.026874 C62.2102873,143.871774 63.3967662,141.97866 65.6961183,141.450192 C67.3773295,141.064148 69.1497239,141.090384 71.0100056,140.921724 C71.215076,139.538712 70.4497239,138.3431 68.9149915,138.354344 C67.3224,138.369336 65.7294422,138.721648 63.9859774,138.94278 C63.784569,138.384328 63.5066253,137.608492 63.1843718,136.716469 C65.7660619,135.835689 68.2741465,135.123569 70.9184563,135.925641 C73.1339493,136.600281 74.3570479,138.339352 74.3749915,140.700592 C74.3896394,142.29724 74.3786535,143.893887 74.3786535,145.490535 C74.3826817,146.900158 74.5547943,147.079687 75.9496394,147.057573 Z M70.9331042,145.269403 C71.4274704,143.788943 71.1561183,143.327939 69.6766817,143.144287 C69.4496394,143.114303 69.2189352,143.084319 68.7025972,143.024351 C68.2012732,143.193011 67.3549915,143.297955 66.7438084,143.740219 C66.2824,144.074166 65.8356394,144.879611 65.8978929,145.408079 C65.9671042,145.989019 66.5240901,146.704887 67.058738,146.993857 C68.5304845,147.788433 70.3911324,146.888539 70.9331042,145.269403 Z M49.7814817,145.45313 C49.7851436,147.001054 49.1003549,148.200413 47.7783831,148.965005 C45.8228901,150.093153 43.7465521,149.872021 41.673876,149.459741 C40.8755662,149.298577 40.0992281,149.002485 39.213031,148.740125 C39.4583831,147.859345 39.6744394,147.091006 39.9088056,146.255202 C41.0183831,146.528806 42.0803549,146.869874 43.1679605,147.02729 C43.8673972,147.128486 44.6510591,147.105998 45.3028901,146.869874 C45.7276788,146.716206 46.2000732,146.101534 46.2513408,145.648026 C46.2879605,145.280722 45.8082422,144.66605 45.4164112,144.482398 C44.5521859,144.077614 43.6037352,143.856482 42.6809183,143.59787 C40.4983831,142.986946 39.333876,141.671399 39.3302141,139.763667 C39.3302141,137.732251 40.765707,136.146848 42.9848619,135.734568 C44.8341577,135.389752 47.4158479,135.73082 49.3237352,136.6116 C49.0783831,137.428663 48.8476788,138.197003 48.6169746,138.965343 C47.4012,138.732967 46.2476788,138.451867 45.0795098,138.316939 C44.5485239,138.253223 43.9259887,138.354419 43.4609183,138.605535 C43.1203549,138.785439 42.8017634,139.325151 42.7907774,139.718691 C42.7797915,140.041019 43.1642986,140.524511 43.493876,140.681927 C44.2042986,141.019247 44.9916225,141.195403 45.7459887,141.439023 C46.3465521,141.633919 46.9654253,141.776343 47.5366929,142.034955 C48.9685239,142.687106 49.7778197,143.826498 49.7814817,145.45313 Z M37.6089774,149.339843 C35.8915126,149.797099 34.2363014,150.078199 32.5994,149.369827 C31.0137662,148.683943 30.1861605,147.402127 30.1678507,145.625575 C30.1495408,143.358036 30.1641887,141.086748 30.1641887,138.688029 L27.7948929,138.688029 L27.7948929,135.959485 L30.1495408,135.959485 L30.1495408,132.061566 L33.5991183,132.061566 L33.5991183,135.895769 L37.2171465,135.895769 L37.2171465,138.669289 L33.6979915,138.669289 C33.6979915,141.030528 33.635738,143.29432 33.7309493,145.550615 C33.771231,146.483867 34.547569,146.914887 35.4374281,146.914887 C35.9903859,146.918635 36.5433436,146.809943 37.1732028,146.746227 C37.3196817,147.612015 37.4588366,148.432827 37.6089774,149.339843 Z M60.9284873,149.587286 C59.408769,149.609774 58.0135577,149.82341 56.6806,149.613147 C54.6152479,149.283323 53.4580648,147.657066 53.4397549,145.486974 C53.425107,143.616348 53.4360929,141.746471 53.4360929,139.879967 L53.4360929,138.673112 C52.8172197,138.673112 52.3228535,138.635632 51.8358112,138.684356 C51.1180648,138.755568 50.8946845,138.436988 50.9496141,137.743608 C50.9935577,137.17766 50.956938,136.607964 50.956938,135.929576 L53.4360929,135.929576 L53.4360929,132.050397 L56.8563746,132.050397 L56.8563746,135.90334 L60.5476422,135.90334 C60.5476422,136.742517 60.5915859,137.507484 60.5110225,138.257084 C60.4927126,138.421996 60.0349662,138.63938 59.7713042,138.654372 C58.8521493,138.703096 57.9329943,138.673112 56.9113042,138.673112 C56.9113042,140.996871 56.8490507,143.196947 56.9406,145.389526 C56.9772197,146.341518 57.6839803,146.892474 58.6397549,146.914962 C59.1927126,146.925831 59.7493324,146.813766 60.4231352,146.746302 C60.573276,147.59335 60.7230507,148.440023 60.9284873,149.587286 Z M2.77999997,156 L2.77999997,153.766192 L101.125915,153.766192 L101.125915,156 L2.77999997,156 Z M107.695493,156 L107.695493,153.766192 L116.209577,153.766192 L116.209577,156 L107.695493,156 Z M25.2938028,135.989432 L25.2938028,149.482229 C24.2904225,149.482229 23.3676056,149.512213 22.4447887,149.455993 C22.2433803,149.444749 21.891831,149.137413 21.891831,148.961257 C21.8625352,144.654806 21.8698591,140.348355 21.8698591,135.989432 L25.2938028,135.989432 Z M25.7295774,132.080193 C25.7405634,133.354513 24.8653521,134.254033 23.6202817,134.250285 C22.408169,134.242789 21.6025352,133.403237 21.5952112,132.132665 C21.5878873,130.768394 22.3422535,129.992558 23.6678873,130.000054 C24.9056338,130.003802 25.7222535,130.824614 25.7295774,132.080193 Z" id="Bitstamp" fill="#929497"></path>
            <path d="M58.7881297,130 C58.0193642,129.664353 57.5238838,129.470047 57.0480534,129.237355 C52.5107348,127.018157 48.0048561,124.734388 43.4258193,122.602077 C41.9795849,121.928403 41.3256959,121.094046 41.5397289,119.530669 C41.6455362,118.758502 41.5581696,117.960447 41.5581696,116.919882 C42.2256624,117.162691 42.7320258,117.298378 43.1945548,117.52244 C47.8304253,119.768716 52.4396928,122.069743 57.1027708,124.259483 C58.371249,124.8549 58.9722344,125.589276 58.8080819,126.989294 C58.7019723,127.894767 58.7881297,128.821962 58.7881297,130 Z M58.7881297,123.513264 C58.0139227,123.192792 57.5544168,123.030027 57.1193977,122.818462 C52.4780857,120.561474 47.8576328,118.262232 43.1906248,116.057912 C41.9820033,115.487193 41.3903895,114.781977 41.5391243,113.435223 C41.6400946,112.521418 41.5581696,111.587974 41.5581696,110.391488 C42.3024482,110.714637 42.7949055,110.906563 43.2680153,111.137171 C47.8621674,113.375116 52.4279028,115.67168 57.0601456,117.829581 C58.4120604,118.459514 58.9707228,119.254295 58.8056635,120.685556 C58.7101346,121.511284 58.7881297,122.356353 58.7881297,123.513264 Z M58.7881297,117.150044 C57.9682744,116.781666 57.431378,116.559091 56.9111085,116.303785 C52.3731853,114.078636 47.8633767,111.795462 43.2870606,109.650059 C41.9420989,109.01953 41.3749718,108.228617 41.5409381,106.796761 C41.6361647,105.976092 41.5581696,105.136082 41.5581696,104 C42.3027505,104.296667 42.8375308,104.472524 43.338755,104.71563 C47.9292795,106.945838 52.493201,109.230797 57.1142585,111.397328 C58.3912012,111.996017 58.9692113,112.73575 58.8077796,114.127733 C58.7028793,115.034099 58.7881297,115.961592 58.7881297,117.150044 Z M73.4064638,123.347047 C73.4064638,117.733291 73.3768378,112.541473 73.4496936,107.350847 C73.4572513,106.802147 73.9409417,106.094253 74.4191906,105.755035 C75.2121406,105.192648 76.1807307,104.869796 77.3177056,104.330916 C77.3727253,105.063805 77.4434651,105.575309 77.4440697,106.086814 C77.4531389,110.439514 77.3530754,114.795189 77.4960664,119.143425 C77.5547139,120.918664 76.9637046,121.929176 75.310088,122.471925 C74.7227064,122.664743 74.1785546,122.986703 73.4064638,123.347047 Z M71.1822436,107.371825 C71.2511695,107.906539 71.3294668,108.234449 71.3300715,108.562062 C71.3382337,113.418828 71.3185838,118.27589 71.3506283,123.13206 C71.3563721,124.034856 71.0972954,124.64277 70.2227227,125.004007 C69.3124777,125.380122 68.433975,125.829734 67.3314631,126.345702 C67.2960933,125.580379 67.2507473,125.055485 67.2501427,124.529995 C67.2447011,120.218656 67.3414392,115.904044 67.2023782,111.596871 C67.1437308,109.778485 67.6909056,108.673647 69.4551664,108.140123 C70.0068758,107.973192 70.5168669,107.672955 71.1822436,107.371825 Z M60.7240402,129.325552 L60.7240402,123.426436 C60.7240402,120.459471 60.8219875,117.488637 60.684438,114.527921 C60.6106752,112.935383 61.1348748,111.998666 62.6421751,111.502932 C63.247695,111.304162 63.8102875,110.977739 64.6340727,110.598053 C64.7069286,111.348201 64.8051782,111.902554 64.8069921,112.457205 C64.8202935,116.560847 64.8142474,120.664787 64.8142474,124.768727 C64.8142474,127.907979 64.2906525,128.526307 60.7240402,129.325552 Z" id="Bitcoin-magazine" fill="#929497"></path>
            <g id="CNN" transform="translate(32.000000, 0.000000)">
                <path d="M17.5742454,18.4258991 C18.0759944,18.375905 18.4275599,17.9762611 18.4275599,17.5272404 L18.4275599,4.74635015 C18.4275599,0.00339465875 24.5515656,-2.29324629 27.81433,3.24868843 C31.1276728,8.88999407 33.0347532,12.1852819 33.0347532,12.1852819 L33.0347532,4.74635015 C33.0347532,0.00339465875 39.1593794,-2.29324629 42.4224542,3.24868843 C44.1709254,6.22273191 45.9110732,9.20160793 47.6428773,12.1852819 L47.6428773,0.103382789 L54.971763,0.103382789 L54.971763,21.271549 C54.971763,26.7131869 48.5464598,27.5618516 45.9356276,23.2185401 C44.3798025,20.672546 40.3642595,14.0822789 40.3642595,14.0822789 L40.3642595,21.2718576 C40.4139069,26.7134955 33.9886037,27.5621602 31.3281241,23.2188487 C29.772299,20.6728546 25.8064034,14.0825875 25.8064034,14.0825875 L25.8064034,20.5728665 C25.8064034,23.9181484 23.8487447,25.6654718 20.7867419,25.6654718 L13.7088858,25.6654718 C-4.41272214,25.6654718 -4.5632158,0.103691395 13.4578561,0.103691395 L17.4737094,0.103691395 L17.4737094,7.34295549 L13.0560226,7.34295549 C5.67686883,7.34295549 4.87382228,18.4265163 13.5580818,18.4265163 L17.5742454,18.4265163 L17.5742454,18.4258991 Z" id="Shape-Copy" fill="#929497"></path>
                <path d="M51.3074753,0.103074184 L51.3074753,20.8216024 C51.3074753,22.119905 50.0523272,22.4195608 49.4003949,21.5209021 C49.4003949,21.5209021 40.8666291,7.89134718 38.7078984,4.34670623 C38.0550353,3.44804748 36.6999718,3.74770326 36.6999718,5.09569139 L36.6999718,20.8216024 C36.6999718,22.119905 35.4950917,22.4195608 34.8425388,21.5209021 C34.8425388,21.5209021 26.2588152,7.89134718 24.1003949,4.34670623 C23.447842,3.44804748 22.0924683,3.74770326 22.0924683,5.09569139 L22.0924683,20.7222315 C22.0924683,21.4209139 21.540141,22.0199169 20.7873625,22.0199169 L13.2068265,22.0199169 C0.305952045,22.0199169 0.707785614,3.74770326 12.9058392,3.74770326 L17.5742454,3.74770326" id="Shape" stroke="#FFFFFF" stroke-width="1.319"></path>
            </g>
            <g id="Bitwala" transform="translate(10.000000, 78.000000)" fill="#929497" fill-rule="nonzero">
                <path d="M0.614825594,0 C0.806713706,0.183769634 1.04657385,0.306282723 1.27272769,0.44921466 C2.83524517,1.44973822 4.4046158,2.4434555 5.97398643,3.43717277 C6.11790252,3.52565445 6.15216825,3.62094241 6.15216825,3.77748691 C6.1453151,7.24188482 6.15216825,10.7062827 6.15216825,14.1706806 C6.15216825,15.9471204 6.77580462,17.4649215 8.07104937,18.6968586 C9.07160881,19.6497382 10.2709095,20.2010471 11.6620983,20.3371728 C14.4718885,20.6162304 17.0760843,19.0099476 18.0492312,16.3963351 C19.3513291,12.9251309 17.2131473,9.07277487 13.5535669,8.33769634 C11.4085319,7.90890052 9.5376228,8.48062827 7.96139902,9.98481675 C7.92028014,10.0188482 7.90657385,10.0801047 7.87916126,10.1277487 C7.85860182,10.1141361 7.83804238,10.0937173 7.81062979,10.0801047 C7.81062979,10.0188482 7.81062979,9.95759162 7.81062979,9.89633508 C7.81062979,7.8408377 7.81062979,5.78534031 7.80377664,3.72984293 C7.80377664,3.56649215 7.85860182,3.5052356 8.0025179,3.45078534 C9.65412629,2.80418848 11.3742662,2.51151832 13.1355249,2.68848168 C17.994406,3.17853403 21.3867137,5.69005236 23.2439165,10.182199 C23.8812592,11.7136126 24.0937067,13.3335079 23.9772032,14.9874346 C23.7716088,18.1183246 22.4969235,20.752356 20.1805599,22.8759162 C18.5152452,24.4073298 16.5415389,25.3534031 14.2937067,25.7481675 C13.2177627,25.9319372 12.1349655,25.9795812 11.0590214,25.8638743 C8.81804238,25.6256545 6.79636406,24.8225131 5.02139902,23.4272251 C2.79412629,21.6712042 1.38923119,19.3979058 0.793007413,16.6413613 C0.621678741,15.8518325 0.56000042,15.0418848 0.56000042,14.2319372 C0.566853566,9.55602094 0.56000042,4.88010471 0.56000042,0.204188482 C0.56000042,0.142931937 0.566853566,0.0748691099 0.566853566,0.0136125654 C0.587413007,0 0.601119301,0 0.614825594,0 Z M98.4297906,20.1534031 C97.5183221,20.1534031 96.6000004,20.1465969 95.6885319,20.1602094 C95.5309095,20.1602094 95.4829375,20.1193717 95.4897906,19.9628272 C95.5034969,19.6565445 95.4966438,19.3434555 95.4966438,18.9963351 C95.2225179,19.2481675 94.9758046,19.4727749 94.7016787,19.6565445 C93.8998606,20.2010471 93.0020983,20.3780105 92.0426578,20.3371728 C91.309371,20.3099476 90.6172032,20.1602094 89.9867137,19.7722513 C89.068392,19.2073298 88.5955249,18.3769634 88.5269934,17.3219895 C88.4721683,16.5324607 88.602378,15.7837696 89.0820983,15.1235602 C89.6029375,14.4089005 90.329371,14.0141361 91.165455,13.8167539 C92.5497906,13.4900524 93.9272731,13.5581152 95.2841962,13.9801047 C95.5240564,14.0549738 95.5172032,14.0549738 95.5103501,13.7963351 C95.4829375,12.4146597 94.5097906,11.965445 93.5160843,11.9109948 C92.4332871,11.8497382 91.3916088,12.0267016 90.3841962,12.4146597 C90.2539864,12.4691099 90.1923081,12.4554974 90.1443361,12.3057592 C89.9318885,11.6387435 89.7125878,10.9717277 89.486434,10.3115183 C89.4453151,10.1890052 89.4727277,10.1481675 89.5892312,10.1005236 C90.9598606,9.52879581 92.378462,9.26335079 93.8655948,9.31780105 C94.5988815,9.34502618 95.318462,9.41989529 96.0037766,9.68534031 C97.2441962,10.1617801 97.9363641,11.1010471 98.258462,12.3397906 C98.3338466,12.639267 98.3749655,12.952356 98.4297906,13.265445 C98.4297906,15.5591623 98.4297906,17.8596859 98.4297906,20.1534031 Z M36.5047557,12.8366492 C37.0530074,13.0544503 37.546434,13.3198953 37.9918885,13.673822 C38.7251752,14.2591623 39.0678326,15.0282723 39.1158046,15.9403141 C39.1569235,16.682199 39.088392,17.3968586 38.7183221,18.0638743 C38.1974829,19.0031414 37.3476927,19.5136126 36.3539864,19.8198953 C35.5521683,20.0649215 34.7229375,20.1534031 33.8868536,20.1602094 C31.714406,20.1670157 29.5488116,20.1602094 27.3763641,20.1670157 C27.1913291,20.1670157 27.1433571,20.126178 27.1433571,19.9356021 C27.1502102,15.4230366 27.1502102,10.9104712 27.1433571,6.39790576 C27.1433571,6.20052356 27.1981822,6.15968586 27.3900703,6.15968586 C29.6653151,6.17329843 31.9405599,6.1460733 34.2158046,6.18691099 C35.3739864,6.20732984 36.4636368,6.52722513 37.3408396,7.34397906 C38.1563641,8.09947644 38.4099305,9.0591623 38.3276927,10.1209424 C38.2386018,11.3188482 37.6149655,12.1968586 36.5732871,12.7890052 C36.5595808,12.7890052 36.5458745,12.8026178 36.5047557,12.8366492 Z M63.1429375,13.6465969 C62.7317487,14.9329843 62.327413,16.178534 61.9299305,17.4240838 C61.6420983,18.3089005 61.3611193,19.1937173 61.0801403,20.0853403 C61.0458745,20.2010471 60.9910494,20.2486911 60.8608396,20.2486911 C60.0658745,20.2418848 59.2709095,20.2418848 58.4759445,20.2486911 C58.3183221,20.2486911 58.2703501,20.1874346 58.2360843,20.0581152 C57.3862941,17.2743455 56.5296508,14.4973822 55.6730074,11.7136126 C55.4605599,11.0125654 55.2481123,10.304712 55.0219585,9.6104712 C54.9808396,9.47434555 54.9876927,9.42670157 55.1453151,9.42670157 C56.0567836,9.43350785 56.9751053,9.43350785 57.8865738,9.42670157 C58.0167836,9.42670157 58.0647557,9.46753927 58.0990214,9.59005236 C58.6472731,11.6591623 59.202378,13.7282723 59.7506298,15.7973822 C59.7574829,15.8314136 59.7711892,15.8586387 59.7986018,15.9403141 C59.9904899,15.3209424 60.1686717,14.7560209 60.3400004,14.1979058 C60.8197207,12.6528796 61.3062941,11.1146597 61.7791613,9.56963351 C61.8202801,9.42670157 61.8819585,9.38586387 62.0258745,9.38586387 C62.7797207,9.39267016 63.5267137,9.39267016 64.2805599,9.38586387 C64.4313291,9.38586387 64.4793011,9.43350785 64.52042,9.56963351 C65.1646158,11.6387435 65.8156648,13.7078534 66.4667137,15.7769634 C66.48042,15.8246073 66.4872731,15.8722513 66.5420983,15.9198953 C66.6997207,15.334555 66.8641962,14.7628272 67.0218186,14.1842932 C67.4330074,12.6596859 67.8510494,11.1350785 68.2622382,9.60366492 C68.2965039,9.47434555 68.3444759,9.41989529 68.5020983,9.41989529 C69.3793011,9.42670157 70.2633571,9.43350785 71.1405599,9.41989529 C71.3393011,9.41989529 71.3393011,9.48115183 71.2844759,9.63089005 C70.448392,12.2921466 69.6191613,14.9602094 68.7899305,17.621466 C68.5432172,18.4246073 68.2896508,19.2209424 68.0497906,20.0308901 C68.0018186,20.1942408 67.926434,20.2418848 67.7551053,20.2418848 C66.9875529,20.2282723 66.2268536,20.2282723 65.4593011,20.2418848 C65.2742662,20.2418848 65.2057347,20.1874346 65.1577627,20.0172775 C64.5135669,17.9413613 63.8556648,15.865445 63.1977627,13.7895288 C63.1909095,13.7623037 63.1772032,13.7282723 63.1429375,13.6465969 Z M78.939441,18.9759162 C78.5967836,19.3298429 78.2541263,19.595288 77.8772032,19.8198953 C77.212448,20.2078534 76.4791613,20.3439791 75.7253151,20.3507853 C74.9029375,20.3507853 74.1011193,20.2146597 73.3952452,19.765445 C72.4700703,19.1732984 72.0040564,18.3225131 71.9629375,17.2335079 C71.9355249,16.4848168 72.0588815,15.7837696 72.5043361,15.1507853 C73.0183221,14.4225131 73.7516088,14.0209424 74.601399,13.8235602 C75.999441,13.4900524 77.3906298,13.5649215 78.7612592,14.0005236 C78.9257347,14.0549738 78.9600004,14.034555 78.9600004,13.8643979 C78.9600004,12.4554974 78.0005599,11.9858639 76.979441,11.917801 C75.8897906,11.8497382 74.8412592,12.0335079 73.8269934,12.4282723 C73.6762242,12.4895288 73.6351053,12.4418848 73.5939864,12.3125654 C73.3815389,11.652356 73.1690913,10.9921466 72.9429375,10.3387435 C72.8949655,10.2094241 72.922378,10.1617801 73.0457347,10.1073298 C74.5808396,9.4539267 76.1913291,9.22931937 77.8497906,9.35183246 C78.5625179,9.39947644 79.2615389,9.55602094 79.8988815,9.90314136 C80.9611193,10.4816754 81.5025179,11.4209424 81.7560843,12.5643979 C81.8725878,13.1020942 81.8862941,13.6534031 81.8862941,14.1979058 C81.8862941,16.1104712 81.8862941,18.0298429 81.8862941,19.9424084 C81.8862941,20.1125654 81.8588815,20.1670157 81.6738466,20.1670157 C80.8309095,20.1534031 79.9879724,20.1534031 79.1450354,20.1670157 C78.9668536,20.1670157 78.9325878,20.1125654 78.939441,19.9560209 C78.9531473,19.6429319 78.939441,19.3434555 78.939441,18.9759162 Z M53.1647557,17.3015707 C53.1647557,18.0910995 53.1647557,18.8534031 53.1647557,19.6089005 C53.1647557,19.7109948 53.1099305,19.7382199 53.041399,19.7790576 C52.4520284,20.0989529 51.8146857,20.2827225 51.1430773,20.3167539 C50.5742662,20.3507853 50.0123081,20.3303665 49.4572032,20.173822 C48.4429375,19.8879581 47.9220983,19.1596859 47.7096508,18.1795812 C47.6205599,17.7780105 47.6205599,17.3696335 47.6205599,16.9612565 C47.6205599,15.3890052 47.6137067,13.8235602 47.627413,12.2513089 C47.627413,12.0471204 47.5657347,11.9994764 47.3738466,12.013089 C47.0791613,12.0267016 46.7776228,12.013089 46.4829375,12.0198953 C46.3527277,12.0267016 46.3116088,11.9790576 46.3116088,11.8497382 C46.318462,11.0942408 46.318462,10.3455497 46.3116088,9.59005236 C46.3116088,9.44031414 46.3732871,9.41989529 46.4966438,9.41989529 C46.8050354,9.42670157 47.1202801,9.41308901 47.4355249,9.42670157 C47.5862941,9.43350785 47.627413,9.38586387 47.627413,9.23612565 C47.6205599,8.45340314 47.627413,7.67068063 47.6205599,6.8947644 C47.6205599,6.71780105 47.675385,6.67696335 47.8467137,6.67696335 C48.7102102,6.68376963 49.5737067,6.68376963 50.4440564,6.67696335 C50.615385,6.67696335 50.6702102,6.71780105 50.6702102,6.8947644 C50.6633571,7.67748691 50.6702102,8.46020942 50.6633571,9.23612565 C50.6633571,9.38586387 50.7044759,9.42670157 50.8552452,9.41989529 C51.5679724,9.41308901 52.2875529,9.41989529 53.0002801,9.41308901 C53.1579025,9.41308901 53.2195808,9.44031414 53.2127277,9.61727749 C53.1990214,10.352356 53.2058745,11.0806283 53.2127277,11.8157068 C53.2127277,11.9722513 53.178462,12.0198953 53.0139864,12.013089 C52.3081123,12.0062827 51.595385,12.013089 50.8895109,12.0062827 C50.7181822,12.0062827 50.6565039,12.0403141 50.6565039,12.2240838 C50.6633571,13.6465969 50.6565039,15.0691099 50.6633571,16.491623 C50.6633571,16.6481675 50.6770634,16.804712 50.7044759,16.9544503 C50.7867137,17.3832461 51.0951053,17.6350785 51.5611193,17.6554974 C52.0545459,17.6759162 52.527413,17.5806283 52.9797207,17.3764398 C53.0276927,17.3560209 53.0756648,17.3356021 53.1647557,17.3015707 Z M86.9918885,12.8502618 C86.9918885,15.2052356 86.9918885,17.5670157 86.9987417,19.9219895 C86.9987417,20.0989529 86.9713291,20.1602094 86.7725878,20.1534031 C85.9022382,20.1397906 85.0318885,20.1465969 84.1546857,20.1534031 C84.0039165,20.1534031 83.9490913,20.1329843 83.9490913,19.9628272 C83.9559445,15.2188482 83.9559445,10.4748691 83.9490913,5.73089005 C83.9490913,5.56753927 84.0039165,5.53350785 84.1546857,5.53350785 C85.0181822,5.54031414 85.8816787,5.54031414 86.7520284,5.53350785 C86.9439165,5.53350785 86.9987417,5.57434555 86.9987417,5.77172775 C86.9918885,8.13350785 86.9918885,10.495288 86.9918885,12.8502618 Z M44.2145459,14.8104712 C44.2145459,16.5188482 44.2145459,18.2340314 44.221399,19.9424084 C44.221399,20.1193717 44.173427,20.1602094 43.9952452,20.1602094 C43.1180424,20.1534031 42.2408396,20.1534031 41.3567836,20.1602094 C41.2060144,20.1602094 41.1511892,20.1397906 41.1511892,19.9696335 C41.1580424,16.5188482 41.1580424,13.0748691 41.1511892,9.62408377 C41.1511892,9.46753927 41.185455,9.42670157 41.3499305,9.42670157 C42.2339864,9.43350785 43.1248955,9.43350785 44.0089515,9.42670157 C44.1871333,9.42670157 44.2145459,9.48115183 44.2145459,9.63769634 C44.2145459,11.3596859 44.2145459,13.0816754 44.2145459,14.8104712 Z M42.6657347,8.23560209 C42.1928676,8.23560209 41.7131473,8.22879581 41.2402801,8.23560209 C41.1100703,8.23560209 41.0758046,8.20157068 41.0758046,8.07225131 C41.0826578,7.28272251 41.0826578,6.49319372 41.0758046,5.70366492 C41.0758046,5.56073298 41.1237766,5.53350785 41.2539864,5.53350785 C42.2065738,5.54031414 43.1523081,5.54031414 44.1048955,5.53350785 C44.2556648,5.53350785 44.2967836,5.57434555 44.2967836,5.72408377 C44.2899305,6.5 44.2899305,7.27591623 44.2967836,8.04502618 C44.2967836,8.18795812 44.2625179,8.23560209 44.1117487,8.23560209 C43.6320284,8.22879581 43.145455,8.23560209 42.6657347,8.23560209 Z M95.551469,16.2874346 C95.551469,16.2125654 95.5377627,16.1308901 95.551469,16.0560209 C95.5857347,15.865445 95.4966438,15.7837696 95.3253151,15.7225131 C94.8661543,15.5591623 94.4001403,15.4502618 93.92042,15.4230366 C93.3036368,15.382199 92.6868536,15.4230366 92.1317487,15.7361257 C91.631469,16.0219895 91.4327277,16.4780105 91.4669934,17.0293194 C91.5012592,17.5874346 91.8233571,17.9413613 92.3441962,18.1251309 C92.8239165,18.3020942 93.3173431,18.2816754 93.8107697,18.2 C94.6125878,18.0706806 95.5925878,17.5193717 95.551469,16.2874346 Z M32.3106298,17.4581152 C32.3106298,17.4513089 32.3106298,17.4513089 32.3106298,17.4581152 C32.9342662,17.4513089 33.5579025,17.4513089 34.188392,17.4445026 C34.5653151,17.4376963 34.9285319,17.3560209 35.2711892,17.1994764 C35.7646158,16.9680628 36.0318885,16.5937173 36.0661543,16.0492147 C36.1072731,15.4230366 35.8811193,14.9397906 35.305455,14.6403141 C34.9079724,14.4361257 34.469371,14.3748691 34.0307697,14.3680628 C32.7972032,14.3612565 31.5636368,14.3680628 30.3300703,14.3612565 C30.1861543,14.3612565 30.1518885,14.4020942 30.1518885,14.5382199 C30.1587417,15.4502618 30.1587417,16.3691099 30.1518885,17.2811518 C30.1450354,17.4240838 30.1930074,17.4581152 30.3300703,17.4581152 C30.9948256,17.4513089 31.6527277,17.4581152 32.3106298,17.4581152 Z M32.0159445,8.83455497 C31.3786018,8.83455497 30.8577627,8.83455497 30.3232172,8.82774869 C30.1861543,8.82774869 30.1450354,8.8617801 30.1450354,9.00471204 C30.1518885,9.88272251 30.1518885,10.7675393 30.1450354,11.6455497 C30.1450354,11.7816754 30.1861543,11.8225131 30.3232172,11.8225131 C31.2689515,11.8157068 32.2078326,11.8293194 33.1535669,11.8157068 C33.626434,11.8089005 34.092448,11.7408377 34.5310494,11.5366492 C35.0518885,11.291623 35.2780424,10.8696335 35.2780424,10.3183246 C35.2780424,9.77382199 35.0587417,9.35183246 34.558462,9.1 C34.3117487,8.97748691 34.0444759,8.90942408 33.7703501,8.87539267 C33.1535669,8.79371728 32.5299305,8.85497382 32.0159445,8.83455497 Z M76.6573431,18.247644 C76.9177627,18.2680628 77.1918885,18.2340314 77.4591613,18.1659686 C78.2130074,17.9549738 78.7886717,17.5465969 78.9668536,16.7366492 C79.0216787,16.4984293 78.987413,16.2465969 79.0011193,16.0015707 C79.0148256,15.865445 78.9600004,15.8041885 78.8366438,15.7565445 C78.1718885,15.504712 77.4865738,15.3890052 76.7806997,15.4298429 C76.3489515,15.4570681 75.9240564,15.5387435 75.5471333,15.7701571 C75.0605599,16.0628272 74.8755249,16.5120419 74.9166438,17.0565445 C74.9577627,17.5942408 75.2730074,17.934555 75.7732871,18.1251309 C76.0542662,18.2272251 76.3420983,18.2680628 76.6573431,18.247644 Z" id="Bitwala-Copy"></path>
            </g>
            <g id="coindesk" transform="translate(0.000000, 26.000000)" fill="#929497" fill-rule="nonzero">
                <path d="M1.10216807,15.2807018 C0.487673146,14.6918636 0.105269231,13.8642099 0.105269231,12.9475439 C0.105269231,11.9731063 0.537392851,11.0992545 1.22107874,10.5059374 C1.46476221,10.1817095 1.94976923,9.37444048 1.94976923,8.08508772 C1.94976923,6.85638233 1.50931575,6.06547565 1.25699139,5.71319632 C0.55256019,5.1195434 0.105269231,4.23226838 0.105269231,3.24087719 C0.105269231,1.45350934 1.55914702,0.00456140351 3.35259615,0.00456140351 C4.33633253,0.00456140351 5.21790197,0.440506818 5.8134079,1.12912463 C6.15120248,1.37625956 6.95451541,1.84052632 8.22244231,1.84052632 C9.4903692,1.84052632 10.2936821,1.37625956 10.6314767,1.12912463 C11.2269826,0.440506818 12.1085521,0.00456140351 13.0922885,0.00456140351 C14.0760248,0.00456140351 14.9575943,0.440506818 15.5531002,1.12912463 C15.8908948,1.37625956 16.6942077,1.84052632 17.9621346,1.84052632 C19.2300615,1.84052632 20.0333744,1.37625956 20.371169,1.12912463 C20.966675,0.440506818 21.8482444,0.00456140351 22.8319808,0.00456140351 C24.6254299,0.00456140351 26.0793077,1.45350934 26.0793077,3.24087719 C26.0793077,5.02824505 24.6254299,6.47719298 22.8319808,6.47719298 C21.8453167,6.47719298 20.9614286,6.03864887 20.3658598,5.34647484 C20.0250044,5.09839659 19.2234659,4.63894737 17.9621346,4.63894737 C16.7008033,4.63894737 15.8992648,5.09839659 15.5584095,5.34647484 C14.9628407,6.03864887 14.0789525,6.47719298 13.0922885,6.47719298 C12.1056244,6.47719298 11.2217363,6.03864887 10.6261675,5.34647484 C10.2853121,5.09839659 9.48377363,4.63894737 8.22244231,4.63894737 C6.96111098,4.63894737 6.15957248,5.09839659 5.81871716,5.34647484 C5.70690335,5.47642559 5.58492704,5.59743655 5.45401605,5.70828406 C5.20229314,6.05808978 4.75771154,6.85063778 4.75771154,8.08508772 C4.75771154,9.38218285 5.24856084,10.1913872 5.49076562,10.5117259 C6.17060121,11.1049305 6.59992308,11.9762705 6.59992308,12.9475439 C6.59992308,13.8642099 6.21751916,14.6918636 5.60302424,15.2807018 L5.62275,15.2807018 C5.62275,15.2807018 4.75771154,16.1359649 4.75771154,17.8578947 C4.75771154,18.972649 5.12025725,19.7270427 5.37593424,20.120457 C5.53666922,20.2482269 5.68496408,20.3908835 5.81871716,20.5463322 C6.15957248,20.7944104 6.96111098,21.2538596 8.22244231,21.2538596 C9.48377363,21.2538596 10.2853121,20.7944104 10.6261675,20.5463322 C11.2217363,19.8541582 12.1056244,19.415614 13.0922885,19.415614 C14.8857376,19.415614 16.3396154,20.864562 16.3396154,22.6519298 C16.3396154,24.4392977 14.8857376,25.8882456 13.0922885,25.8882456 C12.1085521,25.8882456 11.2269826,25.4523002 10.6314767,24.7636824 C10.2936821,24.5165475 9.4903692,24.0522807 8.22244231,24.0522807 C6.95451541,24.0522807 6.15120248,24.5165475 5.8134079,24.7636824 C5.21790197,25.4523002 4.33633253,25.8882456 3.35259615,25.8882456 C1.55914702,25.8882456 0.105269231,24.4392977 0.105269231,22.6519298 C0.105269231,21.6248879 0.585308012,20.7095849 1.33397472,20.1167148 C1.5895123,19.722269 1.94976923,18.9691246 1.94976923,17.8578947 C1.94976923,16.1359649 1.08473077,15.2807018 1.08473077,15.2807018 L1.10216807,15.2807018 Z M6.59992234,22.6542105 L9.84496227,22.6542105 C9.8449618,22.6534504 9.84496154,22.6526901 9.84496154,22.6519298 L6.59992308,22.6519298 C6.59992308,22.6526901 6.59992281,22.6534504 6.59992229,22.6542105 Z M9.84496154,3.24087719 C9.84496154,3.2401169 9.8449618,3.23935666 9.84496233,3.23859649 L6.59992234,3.23859649 C6.59992281,3.23935666 6.59992308,3.2401169 6.59992308,3.24087719 L9.84496154,3.24087719 Z M19.5846538,3.24087719 C19.5846538,3.2401169 19.5846541,3.23935666 19.5846546,3.23859649 L16.3396147,3.23859649 C16.3396151,3.23935666 16.3396154,3.2401169 16.3396154,3.24087719 L19.5846538,3.24087719 Z M13.0922885,14.1449123 C12.4287502,14.1449123 11.8908462,13.6088322 11.8908462,12.9475439 C11.8908462,12.2862555 12.4287502,11.7501754 13.0922885,11.7501754 C13.7558267,11.7501754 14.2937308,12.2862555 14.2937308,12.9475439 C14.2937308,13.6088322 13.7558267,14.1449123 13.0922885,14.1449123 Z M22.8319808,14.1449123 C22.1684425,14.1449123 21.6305385,13.6088322 21.6305385,12.9475439 C21.6305385,12.2862555 22.1684425,11.7501754 22.8319808,11.7501754 C23.495519,11.7501754 24.0334231,12.2862555 24.0334231,12.9475439 C24.0334231,13.6088322 23.495519,14.1449123 22.8319808,14.1449123 Z M22.8319808,23.8492982 C22.1684425,23.8492982 21.6305385,23.3132181 21.6305385,22.6519298 C21.6305385,21.9906415 22.1684425,21.4545614 22.8319808,21.4545614 C23.495519,21.4545614 24.0334231,21.9906415 24.0334231,22.6519298 C24.0334231,23.3132181 23.495519,23.8492982 22.8319808,23.8492982 Z" id="Combined-Shape-Copy-2"></path>
                <path d="M40.0796413,17.0389725 L40.1958321,16.8072024 L41.6794991,17.9571385 L41.5275573,18.1532516 C40.583308,19.3889311 39.0982637,20.0929691 37.5413195,20.0430691 C34.4676432,19.9219148 32.0384615,17.4014837 32.0384615,14.3335026 C32.0384615,11.2655216 34.4676432,8.74509041 37.5413195,8.62393608 C39.0723409,8.61055145 40.5212315,9.31329481 41.4560553,10.5226678 L41.5901216,10.7187809 L40.0528281,11.8687171 L39.9187618,11.636947 C39.4022516,10.8446608 38.5156171,10.3705677 37.5681327,10.3800401 C35.458823,10.3800401 33.9930316,12.020259 33.9930316,14.3379597 C33.9930316,16.6556604 35.4766986,18.2691367 37.5681327,18.2691367 C38.5601512,18.309711 39.5053473,17.8467436 40.0796413,17.0389725 Z M48.2129965,8.64176455 C49.7290763,8.60774118 51.1910733,9.20400299 52.248869,10.2877575 C53.3066648,11.371512 53.8649962,12.8451583 53.7901544,14.3557882 C53.7893345,16.6805109 52.3764698,18.7729955 50.2169404,19.6477989 C48.057411,20.5226023 45.5817674,20.0053129 43.9558991,18.3395451 C42.3300307,16.6737773 41.8780909,14.191639 42.8129178,12.0620785 C43.7477448,9.93251792 45.8829599,8.58011057 48.2129965,8.64176455 Z M48.2129965,18.2869651 L48.2129965,18.2691367 C50.2776175,18.2691367 51.7880977,16.6913174 51.7880977,14.3557882 C51.7880977,12.020259 50.3401817,10.3978685 48.2129965,10.3978685 C46.0858113,10.3978685 44.6378953,12.0380875 44.6378953,14.3557882 C44.6378953,16.6734889 46.1305001,18.2869651 48.2129965,18.2869651 Z M57.4278198,3.84590695 C58.1379892,3.86530123 58.7021129,4.44775171 58.6969808,5.15629927 C58.696671,5.69029374 58.3715094,6.17068708 57.8750494,6.37061984 C57.3785894,6.5705526 56.8101493,6.45002759 56.4381675,6.06596117 C56.0661857,5.68189475 55.9650783,5.11112062 56.182592,4.62317937 C56.4001057,4.13523813 56.8927262,3.82774396 57.4278198,3.84590695 Z M56.4357293,8.90919155 L58.3752216,8.90919155 L58.3752216,19.7934706 L56.4357293,19.7934706 L56.4357293,8.90919155 Z M66.830336,8.64176455 C67.9695771,8.59105057 69.071628,9.0523014 69.8334209,9.89867146 C70.5415811,10.838281 70.8959232,11.9963289 70.8344493,13.1701951 L70.8344493,19.7934706 L68.9396457,19.7934706 L68.9396457,13.7941915 C68.9396457,11.4140911 68.1978122,10.3978685 66.4728258,10.3978685 C65.0785364,10.3978685 63.6842469,11.5478047 63.6842469,14.2220747 L63.6842469,19.8023848 L61.7358168,19.8023848 L61.7358168,11.4497481 C61.7358168,10.8079233 61.7090035,9.8273576 61.655377,9.18553279 L61.655377,8.91810578 L63.5323051,8.91810578 L63.5323051,9.14096162 C63.5948694,9.44404556 63.5948694,9.8273576 63.5948694,10.1839269 C64.3928496,9.21951295 65.5767018,8.65523811 66.830336,8.64176455 Z M82.3999016,10.2463266 L82.3999016,2.50877193 L84.339394,2.50877193 L84.339394,19.7845564 L82.3999016,19.7845564 L82.3999016,18.4474213 C81.4892316,19.4612067 80.1895378,20.0412892 78.8248004,20.0430691 C75.7323379,20.0430691 73.4621486,17.6451403 73.4621486,14.3290455 C73.4621486,11.0129506 75.6876491,8.61502185 78.8248004,8.61502185 C80.1969077,8.61778141 81.5006684,9.21268233 82.3999016,10.2463266 Z M78.9767422,18.2691367 C79.9838594,18.2501233 80.9384782,17.8174724 81.6152174,17.0733308 C82.2919565,16.3291893 82.6308344,15.3395128 82.5518434,14.3379597 C82.5518434,12.0470017 81.0592387,10.3800401 78.9767422,10.3800401 C76.4920469,10.3800401 75.401641,12.3857426 75.401641,14.3379597 C75.401641,16.2901768 76.5367357,18.2691367 78.9767422,18.2691367 Z M92.2850564,8.64176455 C93.7144151,8.58740597 95.092615,9.17650878 96.0389126,10.2463266 C96.862312,11.3332903 97.2767166,12.6741946 97.2097583,14.0348758 C97.2097583,14.2399032 97.2097583,14.4895017 97.2097583,14.7658429 L97.2097583,14.9886988 L88.9602123,14.9886988 C89.0191299,16.5048472 90.0717246,17.8013966 91.5463698,18.1742375 C93.0210149,18.5470785 94.5657839,17.9072316 95.3417679,16.602175 L95.484772,16.3614907 L96.9773767,17.5827407 L96.8343727,17.7699396 C95.8198103,19.2288213 94.1455211,20.0904811 92.3654962,20.0698118 C90.8857924,20.0475312 89.4787398,19.4262793 88.4674355,18.3487123 C87.4561312,17.2711453 86.9274691,15.8298506 87.0028444,14.3557882 C87.0028444,11.0931787 89.2730336,8.64176455 92.2850564,8.64176455 Z M89.0585276,13.3128229 L95.3328302,13.3128229 C95.3285228,12.519205 95.001918,11.7612087 94.4275904,11.2119098 C93.8532628,10.6626109 93.0802499,10.3689099 92.2850564,10.3978685 C90.6356164,10.4421004 89.265289,11.6801002 89.0585276,13.3128229 Z M103.36787,13.3128229 C105.888316,13.8655053 107.014473,14.881728 107.005536,16.5843466 C107.005536,19.16056 104.940915,20.0519834 103.01036,20.0519834 C101.359765,20.098689 99.7993958,19.3020707 98.8721803,17.93931 L98.7470518,17.7521111 L100.302221,16.5486896 L100.445225,16.7982882 C100.97624,17.7088156 101.945465,18.2766519 103.001422,18.2958794 C103.957762,18.2958794 105.101794,18.0195381 105.101794,16.7180601 C105.101794,15.8801221 104.431463,15.4522389 102.340028,14.9352134 C101.428378,14.7123575 99.2922547,14.2666459 99.2922547,11.8954598 C99.2922547,9.52427366 101.312187,8.63285031 103.099737,8.63285031 C104.606651,8.59287713 106.021809,9.35288003 106.817843,10.6296386 L106.916158,10.8079233 L105.405678,11.9846021 L105.271611,11.7171751 C104.843596,10.8839028 103.975665,10.3679774 103.037173,10.3889543 C102.13446,10.3889543 101.169183,10.7544379 101.169183,11.7706605 C101.169183,12.555113 101.750137,12.9651678 103.36787,13.3128229 Z M113.217274,13.9189908 L119,19.8023848 L116.17567,19.8023848 L111.385034,14.6410437 L111.385034,19.8023848 L109.445542,19.8023848 L109.445542,2.50877193 L111.385034,2.50877193 L111.385034,13.3128229 L115.710907,8.90919155 L118.517361,8.90919155 L113.217274,13.9189908 Z" id="coindesk-copy"></path>
            </g>
        </g>
    </g>
</svg>