<?xml version="1.0" encoding="UTF-8"?>
<svg width="151px" height="30px" viewBox="0 0 151 30" version="1.1" xmlns="http://www.w3.org/2000/svg" xmlns:xlink="http://www.w3.org/1999/xlink">
    <!-- Generator: Sketch 49.1 (51147) - http://www.bohemiancoding.com/sketch -->
    <title>Best choice</title>
    <desc>Created with Sketch.</desc>
    <defs></defs>
    <g id="Page-1" stroke="none" stroke-width="1" fill="none" fill-rule="evenodd">
        <g id="Trezor-product-page-Copy-14" transform="translate(-1081.000000, -4519.000000)">
            <g id="Group-15" transform="translate(193.000000, 4471.000000)">
                <g id="Features-T" transform="translate(698.000000, 48.000000)">
                    <g id="Trezor-T">
                        <g id="Group-3">
                            <g id="Group-6" transform="translate(190.000000, 0.000000)">
                                <g id="Best-choice">
                                    <path d="M15.7909149,2.61064764e-15 L145,0 C148.313708,-6.08718376e-16 151,2.6862915 151,6 L151,24 C151,27.3137085 148.313708,30 145,30 L15.6872606,30 C13.9775756,30 12.3490885,29.2706384 11.2107073,27.9950558 L1.15467709,16.7270393 C0.492088014,15.9845928 0.476123283,14.8679579 1.11721609,14.1068724 L11.2019787,2.13455512 C12.3420105,0.781144721 14.0213409,1.2132439e-15 15.7909149,8.8817842e-16 Z" id="Rectangle-3" fill="#F5A623"></path>
                                    <path d="M24.8007812,15.9921875 L24.8007812,20 L22.4570312,20 L22.4570312,8.625 L26.8945312,8.625 C27.7487022,8.625 28.4999968,8.78124844 29.1484375,9.09375 C29.7968782,9.40625156 30.2955712,9.85025754 30.6445312,10.4257812 C30.9934913,11.001305 31.1679688,11.6562463 31.1679688,12.390625 C31.1679688,13.5052139 30.7864621,14.3841114 30.0234375,15.0273438 C29.2604129,15.6705761 28.2044338,15.9921875 26.8554688,15.9921875 L24.8007812,15.9921875 Z M24.8007812,14.09375 L26.8945312,14.09375 C27.514326,14.09375 27.9869775,13.9479181 28.3125,13.65625 C28.6380225,13.3645819 28.8007812,12.9479194 28.8007812,12.40625 C28.8007812,11.8489555 28.6367204,11.3984392 28.3085938,11.0546875 C27.9804671,10.7109358 27.5273466,10.5338542 26.9492188,10.5234375 L24.8007812,10.5234375 L24.8007812,14.09375 Z M37.3789062,13.6640625 C37.071613,13.6223956 36.8007824,13.6015625 36.5664062,13.6015625 C35.7122353,13.6015625 35.1523451,13.8906221 34.8867188,14.46875 L34.8867188,20 L32.6289062,20 L32.6289062,11.546875 L34.7617188,11.546875 L34.8242188,12.5546875 C35.277346,11.778642 35.9049439,11.390625 36.7070312,11.390625 C36.9570325,11.390625 37.1914052,11.4244788 37.4101562,11.4921875 L37.3789062,13.6640625 Z M42.2070312,20.15625 C40.9674417,20.15625 39.9583372,19.7760455 39.1796875,19.015625 C38.4010378,18.2552045 38.0117188,17.2421938 38.0117188,15.9765625 L38.0117188,15.7578125 C38.0117188,14.9088499 38.1757796,14.1497429 38.5039062,13.4804688 C38.8320329,12.8111946 39.296872,12.2955747 39.8984375,11.9335938 C40.500003,11.5716128 41.1861941,11.390625 41.9570312,11.390625 C43.113287,11.390625 44.0234342,11.7552047 44.6875,12.484375 C45.3515658,13.2135453 45.6835938,14.2473891 45.6835938,15.5859375 L45.6835938,16.5078125 L40.3007812,16.5078125 C40.3736983,17.0598986 40.5937482,17.5026025 40.9609375,17.8359375 C41.3281268,18.1692725 41.7929659,18.3359375 42.3554688,18.3359375 C43.2252648,18.3359375 43.9049455,18.0208365 44.3945312,17.390625 L45.5039062,18.6328125 C45.1653629,19.1119816 44.7070341,19.4856757 44.1289062,19.7539062 C43.5507784,20.0221368 42.9101598,20.15625 42.2070312,20.15625 Z M41.9492188,13.21875 C41.5012998,13.21875 41.1380222,13.3697902 40.859375,13.671875 C40.5807278,13.9739598 40.4023441,14.4062472 40.3242188,14.96875 L43.4648438,14.96875 L43.4648438,14.7890625 C43.454427,14.28906 43.3190117,13.9023451 43.0585938,13.6289062 C42.7981758,13.3554674 42.4283878,13.21875 41.9492188,13.21875 Z M49.0820312,11.546875 L49.1523438,12.4921875 C49.7513051,11.7578088 50.5611928,11.390625 51.5820312,11.390625 C52.6705784,11.390625 53.4179667,11.8203082 53.8242188,12.6796875 C54.4179717,11.8203082 55.2643174,11.390625 56.3632812,11.390625 C57.2799525,11.390625 57.9622373,11.6575494 58.4101562,12.1914062 C58.8580752,12.7252631 59.0820312,13.5286405 59.0820312,14.6015625 L59.0820312,20 L56.8164062,20 L56.8164062,14.609375 C56.8164062,14.1302059 56.7226572,13.779949 56.5351562,13.5585938 C56.3476553,13.3372385 56.0169295,13.2265625 55.5429688,13.2265625 C54.865882,13.2265625 54.3971367,13.5494759 54.1367188,14.1953125 L54.1445312,20 L51.8867188,20 L51.8867188,14.6171875 C51.8867188,14.1276017 51.7903655,13.7734386 51.5976562,13.5546875 C51.404947,13.3359364 51.0768252,13.2265625 50.6132812,13.2265625 C49.972653,13.2265625 49.509116,13.4921848 49.2226562,14.0234375 L49.2226562,20 L46.9648438,20 L46.9648438,11.546875 L49.0820312,11.546875 Z M63.1992188,20 L60.9335938,20 L60.9335938,11.546875 L63.1992188,11.546875 L63.1992188,20 Z M60.8007812,9.359375 C60.8007812,9.02083164 60.9140614,8.74218859 61.140625,8.5234375 C61.3671886,8.30468641 61.6757793,8.1953125 62.0664062,8.1953125 C62.4518248,8.1953125 62.7591134,8.30468641 62.9882812,8.5234375 C63.2174491,8.74218859 63.3320312,9.02083164 63.3320312,9.359375 C63.3320312,9.70312672 63.216147,9.98437391 62.984375,10.203125 C62.752603,10.4218761 62.4466165,10.53125 62.0664062,10.53125 C61.686196,10.53125 61.3802095,10.4218761 61.1484375,10.203125 C60.9166655,9.98437391 60.8007812,9.70312672 60.8007812,9.359375 Z M70.1210938,19.140625 C69.5637993,19.8177117 68.7929737,20.15625 67.8085938,20.15625 C66.9023392,20.15625 66.2109399,19.8958359 65.734375,19.375 C65.2578101,18.8541641 65.014323,18.0911509 65.0039062,17.0859375 L65.0039062,11.546875 L67.2617188,11.546875 L67.2617188,17.0078125 C67.2617188,17.8880252 67.6627564,18.328125 68.4648438,18.328125 C69.2304726,18.328125 69.756509,18.0625027 70.0429688,17.53125 L70.0429688,11.546875 L72.3085938,11.546875 L72.3085938,20 L70.1835938,20 L70.1210938,19.140625 Z M76.1289062,11.546875 L76.1992188,12.4921875 C76.7981801,11.7578088 77.6080678,11.390625 78.6289062,11.390625 C79.7174534,11.390625 80.4648417,11.8203082 80.8710938,12.6796875 C81.4648467,11.8203082 82.3111924,11.390625 83.4101562,11.390625 C84.3268275,11.390625 85.0091123,11.6575494 85.4570312,12.1914062 C85.9049502,12.7252631 86.1289062,13.5286405 86.1289062,14.6015625 L86.1289062,20 L83.8632812,20 L83.8632812,14.609375 C83.8632812,14.1302059 83.7695322,13.779949 83.5820312,13.5585938 C83.3945303,13.3372385 83.0638045,13.2265625 82.5898438,13.2265625 C81.912757,13.2265625 81.4440117,13.5494759 81.1835938,14.1953125 L81.1914062,20 L78.9335938,20 L78.9335938,14.6171875 C78.9335938,14.1276017 78.8372405,13.7734386 78.6445312,13.5546875 C78.451822,13.3359364 78.1237002,13.2265625 77.6601562,13.2265625 C77.019528,13.2265625 76.555991,13.4921848 76.2695312,14.0234375 L76.2695312,20 L74.0117188,20 L74.0117188,11.546875 L76.1289062,11.546875 Z M95.3632812,18.3359375 C95.77995,18.3359375 96.1184883,18.2213553 96.3789062,17.9921875 C96.6393242,17.7630197 96.7747395,17.4583352 96.7851562,17.078125 L98.9023438,17.078125 C98.8971354,17.6510445 98.740887,18.1757789 98.4335938,18.6523438 C98.1263005,19.1289086 97.7057318,19.4986966 97.171875,19.7617188 C96.6380182,20.0247409 96.0481803,20.15625 95.4023438,20.15625 C94.1940044,20.15625 93.2408889,19.7721393 92.5429688,19.0039062 C91.8450486,18.2356732 91.4960938,17.1744859 91.4960938,15.8203125 L91.4960938,15.671875 C91.4960938,14.3697852 91.8424445,13.330733 92.5351562,12.5546875 C93.227868,11.778642 94.1783794,11.390625 95.3867188,11.390625 C96.4440157,11.390625 97.2916635,11.6914032 97.9296875,12.2929688 C98.5677115,12.8945343 98.891927,13.6953075 98.9023438,14.6953125 L96.7851562,14.6953125 C96.7747395,14.2578103 96.6393242,13.9023451 96.3789062,13.6289062 C96.1184883,13.3554674 95.7747417,13.21875 95.3476562,13.21875 C94.821612,13.21875 94.4244805,13.4101543 94.15625,13.7929688 C93.8880195,14.1757832 93.7539062,14.7968707 93.7539062,15.65625 L93.7539062,15.890625 C93.7539062,16.760421 93.8867174,17.3854148 94.1523438,17.765625 C94.4179701,18.1458352 94.8216119,18.3359375 95.3632812,18.3359375 Z M102.394531,12.46875 C102.993493,11.7499964 103.746089,11.390625 104.652344,11.390625 C106.485686,11.390625 107.415364,12.4557185 107.441406,14.5859375 L107.441406,20 L105.183594,20 L105.183594,14.6484375 C105.183594,14.1640601 105.079428,13.8059907 104.871094,13.5742188 C104.662759,13.3424468 104.316409,13.2265625 103.832031,13.2265625 C103.17057,13.2265625 102.691408,13.4817683 102.394531,13.9921875 L102.394531,20 L100.136719,20 L100.136719,8 L102.394531,8 L102.394531,12.46875 Z M108.792969,15.6953125 C108.792969,14.8567666 108.954425,14.1093783 109.277344,13.453125 C109.600262,12.7968717 110.065101,12.2890643 110.671875,11.9296875 C111.278649,11.5703107 111.983069,11.390625 112.785156,11.390625 C113.925787,11.390625 114.856767,11.7395798 115.578125,12.4375 C116.299483,13.1354202 116.701822,14.0833273 116.785156,15.28125 L116.800781,15.859375 C116.800781,17.1562565 116.438806,18.1966107 115.714844,18.9804688 C114.990882,19.7643268 114.019537,20.15625 112.800781,20.15625 C111.582025,20.15625 110.609379,19.7656289 109.882812,18.984375 C109.156246,18.2031211 108.792969,17.1406317 108.792969,15.796875 L108.792969,15.6953125 Z M111.050781,15.859375 C111.050781,16.6614623 111.201821,17.2747375 111.503906,17.6992188 C111.805991,18.1237 112.238278,18.3359375 112.800781,18.3359375 C113.347659,18.3359375 113.774738,18.1263042 114.082031,17.7070312 C114.389324,17.2877583 114.542969,16.6171921 114.542969,15.6953125 C114.542969,14.9088502 114.389324,14.2994813 114.082031,13.8671875 C113.774738,13.4348937 113.342451,13.21875 112.785156,13.21875 C112.23307,13.21875 111.805991,13.4335916 111.503906,13.8632812 C111.201821,14.2929709 111.050781,14.9583288 111.050781,15.859375 Z M120.574219,20 L118.308594,20 L118.308594,11.546875 L120.574219,11.546875 L120.574219,20 Z M118.175781,9.359375 C118.175781,9.02083164 118.289061,8.74218859 118.515625,8.5234375 C118.742189,8.30468641 119.050779,8.1953125 119.441406,8.1953125 C119.826825,8.1953125 120.134113,8.30468641 120.363281,8.5234375 C120.592449,8.74218859 120.707031,9.02083164 120.707031,9.359375 C120.707031,9.70312672 120.591147,9.98437391 120.359375,10.203125 C120.127603,10.4218761 119.821616,10.53125 119.441406,10.53125 C119.061196,10.53125 118.755209,10.4218761 118.523438,10.203125 C118.291666,9.98437391 118.175781,9.70312672 118.175781,9.359375 Z M125.949219,18.3359375 C126.365887,18.3359375 126.704426,18.2213553 126.964844,17.9921875 C127.225262,17.7630197 127.360677,17.4583352 127.371094,17.078125 L129.488281,17.078125 C129.483073,17.6510445 129.326824,18.1757789 129.019531,18.6523438 C128.712238,19.1289086 128.291669,19.4986966 127.757812,19.7617188 C127.223956,20.0247409 126.634118,20.15625 125.988281,20.15625 C124.779942,20.15625 123.826826,19.7721393 123.128906,19.0039062 C122.430986,18.2356732 122.082031,17.1744859 122.082031,15.8203125 L122.082031,15.671875 C122.082031,14.3697852 122.428382,13.330733 123.121094,12.5546875 C123.813806,11.778642 124.764317,11.390625 125.972656,11.390625 C127.029953,11.390625 127.877601,11.6914032 128.515625,12.2929688 C129.153649,12.8945343 129.477865,13.6953075 129.488281,14.6953125 L127.371094,14.6953125 C127.360677,14.2578103 127.225262,13.9023451 126.964844,13.6289062 C126.704426,13.3554674 126.360679,13.21875 125.933594,13.21875 C125.407549,13.21875 125.010418,13.4101543 124.742188,13.7929688 C124.473957,14.1757832 124.339844,14.7968707 124.339844,15.65625 L124.339844,15.890625 C124.339844,16.760421 124.472655,17.3854148 124.738281,17.765625 C125.003908,18.1458352 125.407549,18.3359375 125.949219,18.3359375 Z M134.667969,20.15625 C133.428379,20.15625 132.419275,19.7760455 131.640625,19.015625 C130.861975,18.2552045 130.472656,17.2421938 130.472656,15.9765625 L130.472656,15.7578125 C130.472656,14.9088499 130.636717,14.1497429 130.964844,13.4804688 C131.29297,12.8111946 131.757809,12.2955747 132.359375,11.9335938 C132.960941,11.5716128 133.647132,11.390625 134.417969,11.390625 C135.574225,11.390625 136.484372,11.7552047 137.148438,12.484375 C137.812503,13.2135453 138.144531,14.2473891 138.144531,15.5859375 L138.144531,16.5078125 L132.761719,16.5078125 C132.834636,17.0598986 133.054686,17.5026025 133.421875,17.8359375 C133.789064,18.1692725 134.253903,18.3359375 134.816406,18.3359375 C135.686202,18.3359375 136.365883,18.0208365 136.855469,17.390625 L137.964844,18.6328125 C137.6263,19.1119816 137.167972,19.4856757 136.589844,19.7539062 C136.011716,20.0221368 135.371097,20.15625 134.667969,20.15625 Z M134.410156,13.21875 C133.962237,13.21875 133.59896,13.3697902 133.320312,13.671875 C133.041665,13.9739598 132.863282,14.4062472 132.785156,14.96875 L135.925781,14.96875 L135.925781,14.7890625 C135.915365,14.28906 135.779949,13.9023451 135.519531,13.6289062 C135.259113,13.3554674 134.889325,13.21875 134.410156,13.21875 Z" id="Premium-choice" fill="#FFFFFF"></path>
                                </g>
                            </g>
                        </g>
                    </g>
                </g>
            </g>
        </g>
    </g>
</svg>