<?xml version="1.0" encoding="UTF-8"?>
<svg width="92px" height="15px" viewBox="0 0 92 15" version="1.1" xmlns="http://www.w3.org/2000/svg" xmlns:xlink="http://www.w3.org/1999/xlink">
    <!-- Generator: Sketch 49.3 (51167) - http://www.bohemiancoding.com/sketch -->
    <title>Scroll down</title>
    <desc>Created with Sketch.</desc>
    <defs></defs>
    <g id="Page-1" stroke="none" stroke-width="1" fill="none" fill-rule="evenodd">
        <g id="Trezor-product-page-Copy-14" transform="translate(-665.000000, -675.000000)">
            <g id="Scroll-down" transform="translate(666.000000, 674.000000)">
                <path d="M24.2138672,12.4365234 C24.2138672,11.9990213 24.0600601,11.661785 23.7524414,11.4248047 C23.4448227,11.1878243 22.889978,10.9485689 22.0878906,10.7070312 C21.2858033,10.4654936 20.6477888,10.1966161 20.1738281,9.90039062 C19.2669225,9.33072632 18.8134766,8.58789521 18.8134766,7.671875 C18.8134766,6.86978766 19.140459,6.20898697 19.7944336,5.68945312 C20.4484082,5.16991928 21.2971953,4.91015625 22.3408203,4.91015625 C23.0335321,4.91015625 23.651039,5.03775914 24.1933594,5.29296875 C24.7356798,5.54817836 25.1617823,5.91161874 25.4716797,6.38330078 C25.7815771,6.85498283 25.9365234,7.37792682 25.9365234,7.95214844 L24.2138672,7.95214844 C24.2138672,7.43261459 24.0509456,7.02588038 23.7250977,6.73193359 C23.3992497,6.43798681 22.9332713,6.29101562 22.3271484,6.29101562 C21.7620414,6.29101562 21.3234065,6.41178265 21.0112305,6.65332031 C20.6990544,6.89485798 20.5429688,7.23209419 20.5429688,7.66503906 C20.5429688,8.02962422 20.7115869,8.3338204 21.0488281,8.57763672 C21.3860694,8.82145304 21.9420534,9.05842984 22.7167969,9.28857422 C23.4915403,9.5187186 24.1136044,9.78076025 24.5830078,10.074707 C25.0524112,10.3686538 25.3964833,10.70589 25.6152344,11.0864258 C25.8339855,11.4669615 25.9433594,11.9124323 25.9433594,12.4228516 C25.9433594,13.2522828 25.6254915,13.9119442 24.9897461,14.4018555 C24.3540007,14.8917668 23.4915419,15.1367188 22.4023438,15.1367188 C21.6822881,15.1367188 21.0203481,15.0034193 20.4165039,14.7368164 C19.8126597,14.4702135 19.3432634,14.1022159 19.0083008,13.6328125 C18.6733382,13.1634091 18.5058594,12.6165396 18.5058594,11.9921875 L20.2353516,11.9921875 C20.2353516,12.5572945 20.4221987,12.9947901 20.7958984,13.3046875 C21.1695982,13.6145849 21.7050746,13.7695312 22.4023438,13.7695312 C23.0039093,13.7695312 23.4562159,13.6476249 23.7592773,13.4038086 C24.0623388,13.1599923 24.2138672,12.8375671 24.2138672,12.4365234 Z M30.3388672,13.8105469 C30.7535828,13.8105469 31.0976549,13.6897799 31.3710938,13.4482422 C31.6445326,13.2067045 31.7903645,12.9082049 31.8085938,12.5527344 L33.3740234,12.5527344 C33.3557942,13.0130231 33.2122409,13.4425436 32.9433594,13.8413086 C32.6744778,14.2400736 32.3098981,14.5556629 31.8496094,14.7880859 C31.3893206,15.020509 30.8925808,15.1367188 30.359375,15.1367188 C29.3248646,15.1367188 28.5045603,14.8017612 27.8984375,14.1318359 C27.2923147,13.4619107 26.9892578,12.5367898 26.9892578,11.3564453 L26.9892578,11.1855469 C26.9892578,10.0598902 27.2900361,9.15869479 27.8916016,8.48193359 C28.4931671,7.8051724 29.3134714,7.46679688 30.3525391,7.46679688 C31.2321008,7.46679688 31.9487277,7.72314197 32.5024414,8.23583984 C33.0561551,8.74853772 33.3466796,9.42187083 33.3740234,10.2558594 L31.8085938,10.2558594 C31.7903645,9.83202913 31.6456719,9.4833998 31.3745117,9.20996094 C31.1033515,8.93652207 30.7581401,8.79980469 30.3388672,8.79980469 C29.8011041,8.79980469 29.3863947,8.99462696 29.0947266,9.38427734 C28.8030584,9.77392773 28.6549479,10.3652304 28.6503906,11.1582031 L28.6503906,11.4248047 C28.6503906,12.226892 28.7950832,12.8250306 29.0844727,13.2192383 C29.3738621,13.613446 29.7919895,13.8105469 30.3388672,13.8105469 Z M38.5009766,9.12109375 C38.2822255,9.08463523 38.0566418,9.06640625 37.8242188,9.06640625 C37.0631472,9.06640625 36.5504571,9.35807 36.2861328,9.94140625 L36.2861328,15 L34.625,15 L34.625,7.60351562 L36.2109375,7.60351562 L36.2519531,8.43066406 C36.6529968,7.78808272 37.2089808,7.46679688 37.9199219,7.46679688 C38.1569022,7.46679688 38.3528638,7.4986976 38.5078125,7.5625 L38.5009766,9.12109375 Z M38.9931641,11.2333984 C38.9931641,10.5087854 39.1367173,9.85595994 39.4238281,9.27490234 C39.7109389,8.69384475 40.1142552,8.24723463 40.6337891,7.93505859 C41.1533229,7.62288255 41.7503221,7.46679688 42.4248047,7.46679688 C43.4228566,7.46679688 44.232907,7.78808272 44.8549805,8.43066406 C45.4770539,9.0732454 45.8131508,9.92545042 45.8632812,10.9873047 L45.8701172,11.3769531 C45.8701172,12.1061234 45.7299819,12.7578096 45.449707,13.3320312 C45.1694322,13.9062529 44.7683945,14.3505844 44.246582,14.6650391 C43.7247695,14.9794938 43.1220737,15.1367188 42.4384766,15.1367188 C41.3948516,15.1367188 40.5597362,14.7892287 39.9331055,14.0942383 C39.3064747,13.3992478 38.9931641,12.4729876 38.9931641,11.3154297 L38.9931641,11.2333984 Z M40.6542969,11.3769531 C40.6542969,12.1380246 40.8115219,12.7338846 41.1259766,13.1645508 C41.4404313,13.595217 41.8779269,13.8105469 42.4384766,13.8105469 C42.9990262,13.8105469 43.4353826,13.5917991 43.7475586,13.1542969 C44.0597346,12.7167947 44.2158203,12.0765016 44.2158203,11.2333984 C44.2158203,10.4859989 44.0551774,9.89355687 43.7338867,9.45605469 C43.412596,9.0185525 42.9762397,8.79980469 42.4248047,8.79980469 C41.8824843,8.79980469 41.4518245,9.01513457 41.1328125,9.44580078 C40.8138005,9.876467 40.6542969,10.520178 40.6542969,11.3769531 Z M49.0419922,15 L47.3808594,15 L47.3808594,4.5 L49.0419922,4.5 L49.0419922,15 Z M52.6171875,15 L50.9560547,15 L50.9560547,4.5 L52.6171875,4.5 L52.6171875,15 Z M57.6005859,11.2470703 C57.6005859,10.1077417 57.8649062,9.19287455 58.3935547,8.50244141 C58.9222032,7.81200827 59.6308549,7.46679688 60.5195313,7.46679688 C61.3033893,7.46679688 61.9368465,7.74023164 62.4199219,8.28710938 L62.4199219,4.5 L64.0810547,4.5 L64.0810547,15 L62.5771484,15 L62.4951172,14.234375 C61.9983699,14.8359405 61.3352906,15.1367188 60.5058594,15.1367188 C59.6399696,15.1367188 58.939293,14.7880894 58.4038086,14.0908203 C57.8683241,13.3935512 57.6005859,12.445644 57.6005859,11.2470703 Z M59.2617188,11.390625 C59.2617188,12.1425819 59.4064113,12.7293273 59.6958008,13.1508789 C59.9851902,13.5724305 60.3964817,13.7832031 60.9296875,13.7832031 C61.6087274,13.7832031 62.1054672,13.4801463 62.4199219,12.8740234 L62.4199219,9.71582031 C62.1145818,9.12336943 61.6223992,8.82714844 60.9433594,8.82714844 C60.4055963,8.82714844 59.9908869,9.04019969 59.6992188,9.46630859 C59.4075506,9.8924175 59.2617188,10.5338499 59.2617188,11.390625 Z M65.5029297,11.2333984 C65.5029297,10.5087854 65.6464829,9.85595994 65.9335938,9.27490234 C66.2207046,8.69384475 66.6240208,8.24723463 67.1435547,7.93505859 C67.6630885,7.62288255 68.2600878,7.46679688 68.9345703,7.46679688 C69.9326222,7.46679688 70.7426727,7.78808272 71.3647461,8.43066406 C71.9868195,9.0732454 72.3229164,9.92545042 72.3730469,10.9873047 L72.3798828,11.3769531 C72.3798828,12.1061234 72.2397475,12.7578096 71.9594727,13.3320312 C71.6791978,13.9062529 71.2781602,14.3505844 70.7563477,14.6650391 C70.2345352,14.9794938 69.6318394,15.1367188 68.9482422,15.1367188 C67.9046172,15.1367188 67.0695018,14.7892287 66.4428711,14.0942383 C65.8162404,13.3992478 65.5029297,12.4729876 65.5029297,11.3154297 L65.5029297,11.2333984 Z M67.1640625,11.3769531 C67.1640625,12.1380246 67.3212875,12.7338846 67.6357422,13.1645508 C67.9501969,13.595217 68.3876925,13.8105469 68.9482422,13.8105469 C69.5087919,13.8105469 69.9451482,13.5917991 70.2573242,13.1542969 C70.5695003,12.7167947 70.7255859,12.0765016 70.7255859,11.2333984 C70.7255859,10.4859989 70.564943,9.89355687 70.2436523,9.45605469 C69.9223617,9.0185525 69.4860054,8.79980469 68.9345703,8.79980469 C68.3922499,8.79980469 67.9615901,9.01513457 67.6425781,9.44580078 C67.3235661,9.876467 67.1640625,10.520178 67.1640625,11.3769531 Z M80.2822266,12.7099609 L81.4580078,7.60351562 L83.078125,7.60351562 L81.0615234,15 L79.6943359,15 L78.1083984,9.92089844 L76.5498047,15 L75.1826172,15 L73.1591797,7.60351562 L74.7792969,7.60351562 L75.9755859,12.6552734 L77.4931641,7.60351562 L78.7441406,7.60351562 L80.2822266,12.7099609 Z M85.7304688,7.60351562 L85.7783203,8.45800781 C86.325198,7.79719722 87.0429643,7.46679688 87.9316406,7.46679688 C89.4720129,7.46679688 90.2558592,8.34862399 90.2832031,10.1123047 L90.2832031,15 L88.6220703,15 L88.6220703,10.2080078 C88.6220703,9.73860442 88.5206716,9.39111441 88.3178711,9.16552734 C88.1150706,8.93994028 87.7835309,8.82714844 87.3232422,8.82714844 C86.653317,8.82714844 86.1542985,9.1302053 85.8261719,9.73632812 L85.8261719,15 L84.1650391,15 L84.1650391,7.60351562 L85.7304688,7.60351562 Z" fill="#929497"></path>
                <g id="arrow-down" transform="translate(0.000000, 2.000000)" stroke="#929497" stroke-linecap="round" stroke-linejoin="round" stroke-width="2">
                    <path d="M4,0 L4,12" id="Shape"></path>
                    <polyline id="Shape" points="8 8 4 13 0 8"></polyline>
                </g>
            </g>
        </g>
    </g>
</svg>