<?xml version="1.0" encoding="UTF-8"?>
<svg width="457px" height="188px" viewBox="0 0 457 188" version="1.1" xmlns="http://www.w3.org/2000/svg" xmlns:xlink="http://www.w3.org/1999/xlink">
    <!-- Generator: Sketch 49.3 (51167) - http://www.bohemiancoding.com/sketch -->
    <title>Group 32</title>
    <desc>Created with Sketch.</desc>
    <defs>
        <linearGradient x1="47.4575433%" y1="108.373297%" x2="103.338652%" y2="26.5383497%" id="linearGradient-1">
            <stop stop-color="#EFEFEF" offset="0%"></stop>
            <stop stop-color="#FFFFFF" offset="100%"></stop>
        </linearGradient>
        <linearGradient x1="50.0000001%" y1="16.4874434%" x2="49.9999999%" y2="112.54055%" id="linearGradient-2">
            <stop stop-color="#FFFFFF" stop-opacity="0.409278759" offset="0%"></stop>
            <stop stop-color="#EEEEEE" offset="100%"></stop>
        </linearGradient>
        <linearGradient x1="100%" y1="0%" x2="26.8860246%" y2="91.7243014%" id="linearGradient-3">
            <stop stop-color="#FFFFFF" offset="0%"></stop>
            <stop stop-color="#FFFFFF" stop-opacity="0" offset="100%"></stop>
        </linearGradient>
        <linearGradient x1="87.8317646%" y1="112.009052%" x2="33.1501909%" y2="102.566618%" id="linearGradient-4">
            <stop stop-color="#FDFDFD" offset="2.86759393%"></stop>
            <stop stop-color="#F2F2F2" offset="56.6993316%"></stop>
            <stop stop-color="#FFFFFF" stop-opacity="0" offset="100%"></stop>
        </linearGradient>
        <linearGradient x1="23.1549876%" y1="82.466394%" x2="5.4162518%" y2="12.5003116%" id="linearGradient-5">
            <stop stop-color="#FAFAFA" offset="0%"></stop>
            <stop stop-color="#D0D0D0" stop-opacity="0" offset="100%"></stop>
        </linearGradient>
        <radialGradient cx="44.413682%" cy="30.3098%" fx="44.413682%" fy="30.3098%" r="63.3183815%" gradientTransform="translate(0.444137,0.303098),scale(0.981823,1.000000),rotate(115.118013),scale(1.000000,0.706718),translate(-0.444137,-0.303098)" id="radialGradient-6">
            <stop stop-color="#DFDFDF" offset="0%"></stop>
            <stop stop-color="#FFFFFF" stop-opacity="0" offset="100%"></stop>
        </radialGradient>
        <radialGradient cx="43.401385%" cy="29.8438436%" fx="43.401385%" fy="29.8438436%" r="79.778502%" gradientTransform="translate(0.434014,0.298438),scale(0.746440,1.000000),rotate(-161.038123),scale(1.000000,0.706718),translate(-0.434014,-0.298438)" id="radialGradient-7">
            <stop stop-color="#E3E3E3" stop-opacity="0.444604846" offset="0%"></stop>
            <stop stop-color="#FFFFFF" stop-opacity="0" offset="100%"></stop>
        </radialGradient>
        <radialGradient cx="44.413682%" cy="30.3098%" fx="44.413682%" fy="30.3098%" r="63.3183815%" gradientTransform="translate(0.444137,0.303098),scale(0.981823,1.000000),rotate(115.118013),scale(1.000000,0.706718),translate(-0.444137,-0.303098)" id="radialGradient-8">
            <stop stop-color="#DBDBDB" stop-opacity="0.341145833" offset="0%"></stop>
            <stop stop-color="#DFDFDF" stop-opacity="0" offset="100%"></stop>
        </radialGradient>
        <linearGradient x1="37.7480795%" y1="0.696997733%" x2="100%" y2="52.6768526%" id="linearGradient-9">
            <stop stop-color="#E7E7E7" offset="0%"></stop>
            <stop stop-color="#FDFDFD" stop-opacity="0.0493093297" offset="100%"></stop>
        </linearGradient>
        <linearGradient x1="114.972534%" y1="84.4681844%" x2="0%" y2="0%" id="linearGradient-10">
            <stop stop-color="#E8E8E8" offset="0%"></stop>
            <stop stop-color="#FFFFFF" stop-opacity="0" offset="100%"></stop>
        </linearGradient>
        <linearGradient x1="0%" y1="66.4874433%" x2="100%" y2="66.4874434%" id="linearGradient-11">
            <stop stop-color="#EFEFEF" stop-opacity="0.62890625" offset="0%"></stop>
            <stop stop-color="#F1F1F1" offset="100%"></stop>
        </linearGradient>
        <path d="M0,126.880196 C0,102.439694 15.105311,81.4630991 36.649897,72.458927 C39.9164739,51.7659231 58.1399307,35.9266504 80.1313365,35.9266504 C86.7012617,35.9266504 92.9348923,37.3403271 98.5338887,39.8747636 C112.650106,16.0308892 138.949899,0 169.063224,0 C212.677581,0 248.292325,33.6278514 250.477832,75.9161541 C275.851105,81.4694539 294.818472,103.705433 294.818472,130.290954 C294.818472,161.05821 269.414931,186 238.078075,186 C237.923534,186 60.2142991,186 60.2142991,186 C26.95886,186 0,159.531162 0,126.880196 Z" id="path-12"></path>
        <linearGradient x1="43.0115458%" y1="74.0742345%" x2="10.8052098%" y2="-18.0723889%" id="linearGradient-14">
            <stop stop-color="#FBDA00" offset="0%"></stop>
            <stop stop-color="#F5B300" offset="100%"></stop>
        </linearGradient>
        <path d="M25.9330013,36.225281 L32.5872674,36.225281 L37.2247128,39.5470992 L42.2250539,36.225281 L46.582305,39.5470992 L50.7434052,36.225281 L54.9513515,39.5470992 L59.3994412,36.225281 L65.7601707,41.2646062 L62.0171796,46.1907355 L25.9330013,46.1907355 C23.8079622,53.5937023 17.0677723,59.0034628 9.08159224,59.0034628 C-0.610232847,59.0034628 -8.46700944,51.0361664 -8.46700944,41.2080083 C-8.46700944,31.3798501 -0.610232847,23.4125537 9.08159224,23.4125537 C17.0677723,23.4125537 23.8079622,28.8223142 25.9330013,36.225281 Z M2.62370682,45.4789173 C4.94974484,45.4789173 6.83537122,43.5667662 6.83537122,41.2080083 C6.83537122,38.8492503 4.94974484,36.9370992 2.62370682,36.9370992 C0.297668802,36.9370992 -1.58795758,38.8492503 -1.58795758,41.2080083 C-1.58795758,43.5667662 0.297668802,45.4789173 2.62370682,45.4789173 Z" id="path-15"></path>
        <linearGradient x1="50%" y1="0%" x2="50%" y2="96.8366149%" id="linearGradient-17">
            <stop stop-color="#696EA1" offset="0%"></stop>
            <stop stop-color="#A1A7D0" offset="100%"></stop>
        </linearGradient>
        <path d="M36.8382611,34.2802597 L43.4925272,34.2802597 L48.1299727,37.6020779 L53.1303138,34.2802597 L57.4875648,37.6020779 L61.648665,34.2802597 L65.8566113,37.6020779 L70.3047011,34.2802597 L76.6654306,39.3195849 L72.9224394,44.2457143 L36.8382611,44.2457143 C34.7132221,51.6486811 27.9730322,57.0584416 19.9868521,57.0584416 C10.295027,57.0584416 2.4382504,49.0911452 2.4382504,39.262987 C2.4382504,29.4348289 10.295027,21.4675325 19.9868521,21.4675325 C27.9730322,21.4675325 34.7132221,26.8772929 36.8382611,34.2802597 Z M13.5289667,43.5338961 C15.8550047,43.5338961 17.7406311,41.621745 17.7406311,39.262987 C17.7406311,36.9042291 15.8550047,34.9920779 13.5289667,34.9920779 C11.2029286,34.9920779 9.31730226,36.9042291 9.31730226,39.262987 C9.31730226,41.621745 11.2029286,43.5338961 13.5289667,43.5338961 Z" id="path-18"></path>
        <radialGradient cx="56.8236589%" cy="50%" fx="56.8236589%" fy="50%" r="42.5661217%" gradientTransform="translate(0.568237,0.500000),scale(0.981823,1.000000),rotate(90.000000),scale(1.000000,1.056137),translate(-0.568237,-0.500000)" id="radialGradient-20">
            <stop stop-color="#E0E0E0" stop-opacity="0.710456295" offset="0%"></stop>
            <stop stop-color="#F5F5F5" stop-opacity="0.186197917" offset="63.0441655%"></stop>
            <stop stop-color="#FEEAE4" stop-opacity="0" offset="100%"></stop>
        </radialGradient>
    </defs>
    <g id="Page-1" stroke="none" stroke-width="1" fill="none" fill-rule="evenodd">
        <g id="Trezor-product-page-Copy-14" transform="translate(-142.000000, -1142.000000)">
            <g id="Group-32" transform="translate(0.000000, 730.000000)">
                <g transform="translate(142.000000, 412.000000)">
                    <g id="Group-28" transform="translate(23.000000, 16.000000)">
                        <g id="Group-14">
                            <g id="Group-48" transform="translate(52.000000, 0.000000)">
                                <g id="Icon">
                                    <path d="M169.063224,160.07824 C214.085973,160.07824 250.584122,124.243505 250.584122,80.0391198 C250.584122,35.8347345 214.085973,0 169.063224,0 C124.040476,0 87.5423272,35.8347345 87.5423272,80.0391198 C87.5423272,124.243505 124.040476,160.07824 169.063224,160.07824 Z" id="Big-Oval" fill="url(#linearGradient-1)"></path>
                                    <g id="Background">
                                        <path d="M60.2142991,186 C26.95886,186 0,159.531162 0,126.880196 C0,102.439694 15.105311,81.4630991 36.649897,72.458927 C39.9164739,51.7659231 58.1399307,35.9266504 80.1313365,35.9266504 C86.7012617,35.9266504 92.9348923,37.3403271 98.5338887,39.8747636 C112.650106,16.0308892 138.949899,0 169.063224,0 C212.677581,0 248.292325,33.6278514 250.477832,75.9161541 C275.851105,81.4694539 294.818472,103.705433 294.818472,130.290954 C294.818472,161.05821 269.414931,186 238.078075,186 C237.923534,186 237.769138,185.999393 237.614888,185.998182 L60.2142991,186 L60.2142991,186 Z" id="White-Background" fill="#FFFFFF"></path>
                                        <path d="M60.2142991,186 C26.95886,186 0,159.531162 0,126.880196 C0,102.439694 15.105311,81.4630991 36.649897,72.458927 C39.9164739,51.7659231 58.1399307,35.9266504 80.1313365,35.9266504 C86.7012617,35.9266504 92.9348923,37.3403271 98.5338887,39.8747636 C112.650106,16.0308892 138.949899,0 169.063224,0 C212.677581,0 248.292325,33.6278514 250.477832,75.9161541 C275.851105,81.4694539 294.818472,103.705433 294.818472,130.290954 C294.818472,161.05821 269.414931,186 238.078075,186 C237.923534,186 237.769138,185.999393 237.614888,185.998182 L60.2142991,186 L60.2142991,186 Z" id="Blue-Background" fill="url(#linearGradient-2)"></path>
                                    </g>
                                    <path d="M188.693364,157.742458 C224.233845,149.11602 250.584122,117.598855 250.584122,80.0391198 C250.584122,78.6563275 250.548406,77.2817254 250.477832,75.9161541 C246.486775,75.0426549 242.337228,74.5819071 238.078075,74.5819071 C206.741219,74.5819071 181.337678,99.5236968 181.337678,130.290954 C181.337678,140.272076 184.011148,149.640125 188.693364,157.742458 L188.693364,157.742458 Z" id="Overlay-2" fill="url(#linearGradient-3)" opacity="0.120685634"></path>
                                    <path d="M238.078075,186 C269.414931,186 294.818472,161.05821 294.818472,130.290954 C294.818472,99.5236968 269.414931,74.5819071 238.078075,74.5819071 C206.741219,74.5819071 181.337678,99.5236968 181.337678,130.290954 C181.337678,161.05821 206.741219,186 238.078075,186 Z" id="Oval-Right" fill="url(#linearGradient-4)"></path>
                                    <path d="M115.887286,104.315742 C106.855801,82.8588076 85.3309048,67.7603912 60.2142991,67.7603912 C51.8518325,67.7603912 43.8875172,69.4340938 36.649897,72.458927 C36.3066789,74.6331336 36.1285795,76.8609383 36.1285795,79.1295844 C36.1285795,102.989906 55.8292848,122.332518 80.1313365,122.332518 C94.8611133,122.332518 107.900483,115.226578 115.887286,104.315742 L115.887286,104.315742 Z" id="Overlay-1" fill="url(#linearGradient-5)"></path>
                                    <g id="White-Shade" transform="translate(36.128579, 0.000000)">
                                        <path d="M201.949495,186 C233.286352,186 258.689893,161.05821 258.689893,130.290954 C258.689893,99.5236968 233.286352,74.5819071 201.949495,74.5819071 C170.612639,74.5819071 145.209098,99.5236968 145.209098,130.290954 C145.209098,161.05821 170.612639,186 201.949495,186 L201.949495,186 L201.949495,186 L201.949495,186 L201.949495,186 L201.949495,186 Z M152.564784,157.742458 C188.105266,149.11602 214.455542,117.598855 214.455542,80.0391198 C214.455542,78.6563275 214.419827,77.2817254 214.349253,75.9161541 C210.358196,75.0426549 206.208648,74.5819071 201.949495,74.5819071 C170.612639,74.5819071 145.209098,99.5236968 145.209098,130.290954 C145.209098,140.272076 147.882569,149.640125 152.564784,157.742458 L152.564784,157.742458 L152.564784,157.742458 L152.564784,157.742458 L152.564784,157.742458 L152.564784,157.742458 L152.564784,157.742458 Z" fill="url(#radialGradient-6)"></path>
                                        <path d="M61.5672701,118.753333 C56.1869173,121.055642 50.246713,122.332518 44.002757,122.332518 C19.7007054,122.332518 0,102.989906 0,79.1295844 C0,55.2692628 19.7007054,35.9266504 44.002757,35.9266504 C50.5726822,35.9266504 56.8063128,37.3403271 62.4053092,39.8747636 C76.5215308,16.0308868 102.821322,0 132.934645,0 C177.957393,0 214.455542,35.8347345 214.455542,80.0391198 C214.455542,124.243505 177.957393,160.07824 132.934645,160.07824 C102.214814,160.07824 75.4636778,143.395099 61.5672701,118.753333 Z M61.5672701,118.753333 C77.1277459,112.094846 88.0055141,96.8594442 88.0055141,79.1295844 C88.0055141,61.7197687 77.5169138,46.7151687 62.4053092,39.8747636 C55.4162229,51.6801119 51.4137477,65.4006978 51.4137477,80.0391198 C51.4137477,94.0820584 55.0972091,107.280316 61.5672701,118.753333 Z" fill="url(#radialGradient-7)"></path>
                                        <ellipse fill="url(#radialGradient-8)" cx="54.6560561" cy="88.4523227" rx="43.7711636" ry="42.9755501"></ellipse>
                                    </g>
                                    <path d="M87.5423272,80.0391198 C87.5423272,94.0820584 91.2257885,107.280316 97.6958496,118.753333 C113.256325,112.094846 124.134094,96.8594442 124.134094,79.1295844 C124.134094,61.7197687 113.645493,46.7151687 98.5338887,39.8747636 C91.5448024,51.6801119 87.5423272,65.4006978 87.5423272,80.0391198 Z" id="Overlay-3" fill="url(#linearGradient-9)"></path>
                                    <path d="M120.428598,126.880196 C120.428598,103.970638 107.1564,84.1046223 87.7494074,74.2898188 C87.6121338,76.1887131 87.5423272,78.1059125 87.5423272,80.0391198 C87.5423272,105.383995 99.5406474,127.97745 118.264722,142.642757 C119.675126,137.624549 120.428598,132.338764 120.428598,126.880196 Z" id="Overlay-4" fill="url(#linearGradient-10)"></path>
                                    <g id="Blue-Shade">
                                        <mask id="mask-13" fill="white">
                                            <use xlink:href="#path-12"></use>
                                        </mask>
                                        <use id="Mask" fill="url(#linearGradient-11)" xlink:href="#path-12"></use>
                                        <g id="Group-49" mask="url(#mask-13)">
                                            <g transform="translate(51.553299, 74.750000)">
                                                <g id="Group-43" transform="translate(0.000000, 0.750000)">
                                                    <g id="Group-42">
                                                        <g id="Group">
                                                            <g id="Keys">
                                                                <g id="whitekey" transform="translate(48.429061, 49.918780) rotate(40.000000) translate(-48.429061, -49.918780) translate(19.880838, 8.668780)">
                                                                    <mask id="mask-16" fill="white">
                                                                        <use xlink:href="#path-15"></use>
                                                                    </mask>
                                                                    <use id="Mask" fill="url(#linearGradient-14)" transform="translate(28.646581, 41.208008) rotate(-252.000000) translate(-28.646581, -41.208008) " xlink:href="#path-15"></use>
                                                                    <polygon id="Path-2-Copy" fill="url(#linearGradient-14)" points="28.7844962 37.2826539 16.2570713 75.1805411 17.1211987 76.4735002 23.9431626 71.8910263 22.1310695 66.6309465 26.4579743 63.7047183 24.610479 58.8130755 29.2594501 55.6169312 27.6964258 49.9493188 32.1630597 46.5774006 34.31633 40.1841737"></polygon>
                                                                </g>
                                                            </g>
                                                        </g>
                                                    </g>
                                                </g>
                                                <g id="Bitcoin" transform="translate(55.878173, 30.000000)">
                                                    <g id="Group">
                                                        <ellipse id="Oval" fill="#F5B300" fill-rule="nonzero" cx="9.90625" cy="9.88175676" rx="9.90625" ry="9.63851351"></ellipse>
                                                        <path d="M7.21875,4.95608108 C7.5625,5.0472973 7.90625,5.10810811 8.25,5.19932432 C8.59375,5.29054054 8.9375,5.35135135 9.28125,5.44256757 C9.375,5.47297297 9.40625,5.44256757 9.4375,5.35135135 C9.5625,4.83445946 9.6875,4.34797297 9.8125,3.83108108 C9.84375,3.73986486 9.875,3.70945946 9.96875,3.73986486 C10.28125,3.83108108 10.5625,3.89189189 10.875,3.9527027 C10.96875,3.98310811 10.96875,4.01351351 10.9375,4.07432432 C10.8125,4.56081081 10.6875,5.0777027 10.5625,5.56418919 C10.5625,5.59459459 10.5625,5.625 10.53125,5.68581081 C10.78125,5.74662162 11.0625,5.80743243 11.3125,5.86824324 C11.34375,5.86824324 11.375,5.80743243 11.40625,5.77702703 C11.5,5.38175676 11.59375,5.01689189 11.71875,4.62162162 C11.75,4.5 11.78125,4.37837838 11.8125,4.25675676 C11.8125,4.19594595 11.84375,4.16554054 11.90625,4.19594595 C12.21875,4.28716216 12.53125,4.34797297 12.875,4.43918919 C12.90625,4.43918919 12.90625,4.46959459 12.9375,4.46959459 C12.84375,4.86486486 12.75,5.22972973 12.65625,5.59459459 C12.625,5.74662162 12.59375,5.89864865 12.53125,6.05067568 C12.5,6.14189189 12.53125,6.1722973 12.625,6.2027027 C12.96875,6.35472973 13.3125,6.50675676 13.65625,6.65878378 C13.96875,6.84121622 14.25,7.08445946 14.46875,7.38851351 C14.75,7.84459459 14.78125,8.33108108 14.65625,8.81756757 C14.5625,9.15202703 14.4375,9.45608108 14.1875,9.69932432 C14,9.88175676 13.75,10.0033784 13.5,10.0945946 C13.46875,10.0945946 13.4375,10.125 13.375,10.125 C13.5,10.2162162 13.625,10.277027 13.75,10.3682432 C14.125,10.6418919 14.375,10.9763514 14.5,11.402027 C14.5625,11.7364865 14.53125,12.1013514 14.4375,12.4358108 C14.3125,12.8614865 14.15625,13.2263514 13.875,13.5608108 C13.53125,13.9560811 13.09375,14.1689189 12.59375,14.2297297 C11.9375,14.3209459 11.3125,14.2601351 10.6875,14.1689189 C10.59375,14.1385135 10.53125,14.1689189 10.5,14.2601351 C10.375,14.7466216 10.25,15.2635135 10.125,15.75 C10.09375,15.8716216 10.09375,15.902027 9.9375,15.8412162 C9.65625,15.7804054 9.34375,15.6891892 9.0625,15.6283784 C8.96875,15.597973 8.96875,15.5675676 9,15.5067568 C9.125,14.9898649 9.25,14.472973 9.40625,13.9864865 C9.40625,13.9256757 9.4375,13.8952703 9.375,13.8648649 C9.125,13.8040541 8.875,13.7432432 8.59375,13.6824324 C8.53125,13.9560811 8.4375,14.2297297 8.375,14.5033784 C8.3125,14.777027 8.21875,15.0506757 8.15625,15.3243243 C8.125,15.3851351 8.125,15.4155405 8.03125,15.3851351 C7.71875,15.2939189 7.40625,15.2331081 7.09375,15.1722973 C7,15.1418919 7,15.1114865 7.03125,15.0506757 C7.15625,14.5337838 7.28125,14.0168919 7.4375,13.5304054 C7.4375,13.5 7.46875,13.4695946 7.46875,13.4087838 C6.75,13.2263514 6.03125,13.0439189 5.28125,12.8614865 C5.34375,12.7398649 5.375,12.6486486 5.4375,12.527027 C5.5625,12.2533784 5.6875,11.9797297 5.78125,11.7364865 C5.8125,11.6452703 5.84375,11.6452703 5.9375,11.6452703 C6.15625,11.7060811 6.40625,11.7668919 6.625,11.7972973 C6.875,11.8581081 7.0625,11.7364865 7.09375,11.5236486 C7.5,9.97297297 7.90625,8.4222973 8.28125,6.84121622 C8.34375,6.59797297 8.1875,6.32432432 7.90625,6.23310811 C7.625,6.14189189 7.34375,6.08108108 7.09375,6.02027027 C7.03125,6.02027027 7,5.98986486 7.03125,5.92905405 C7.125,5.59459459 7.21875,5.22972973 7.3125,4.89527027 C7.1875,4.98648649 7.1875,4.98648649 7.21875,4.95608108 Z M8.8125,12.4662162 C8.84375,12.4662162 8.875,12.4966216 8.875,12.4966216 C9.375,12.6182432 9.90625,12.7702703 10.4375,12.8006757 C10.8125,12.8310811 11.15625,12.8310811 11.5,12.7094595 C12.09375,12.527027 12.34375,11.7668919 12,11.2804054 C11.84375,11.0371622 11.59375,10.8851351 11.34375,10.7331081 C10.78125,10.4290541 10.125,10.3074324 9.5,10.1858108 C9.40625,10.1554054 9.40625,10.1858108 9.375,10.277027 C9.3125,10.5810811 9.21875,10.8547297 9.15625,11.1587838 C9.03125,11.5844595 8.9375,12.0101351 8.8125,12.4662162 Z M11.4375,9.36486486 C11.5,9.36486486 11.65625,9.33445946 11.78125,9.30405405 C12.375,9.18243243 12.6875,8.51351351 12.375,7.99662162 C12.21875,7.72297297 11.9375,7.54054054 11.65625,7.41891892 C11.21875,7.23648649 10.78125,7.14527027 10.3125,7.02364865 C10.21875,6.99324324 10.1875,7.02364865 10.15625,7.11486486 C10,7.75337838 9.84375,8.36148649 9.65625,9 C9.625,9.06081081 9.65625,9.09121622 9.71875,9.12162162 C9.84375,9.15202703 9.9375,9.18243243 10.0625,9.21283784 C10.53125,9.27364865 10.9375,9.36486486 11.4375,9.36486486 Z" id="Shape" fill="#FFFFFF" fill-rule="nonzero"></path>
                                                    </g>
                                                </g>
                                            </g>
                                        </g>
                                        <g id="Group-39" mask="url(#mask-13)">
                                            <g transform="translate(141.233503, 47.250000)">
                                                <g id="green-key" transform="translate(0.289340, 0.250000)">
                                                    <mask id="mask-19" fill="white">
                                                        <use xlink:href="#path-18"></use>
                                                    </mask>
                                                    <use id="Mask" fill="url(#linearGradient-17)" transform="translate(39.551840, 39.262987) rotate(-315.000000) translate(-39.551840, -39.262987) " xlink:href="#path-18"></use>
                                                    <polygon id="Path-3-Copy" fill="url(#linearGradient-17)" points="37.1756043 37.6835235 34.2073063 40.7845618 59.5831965 66.3655451 65.6339457 65.4244324"></polygon>
                                                </g>
                                                <g id="Group-37" transform="translate(15.522843, 15.000000)">
                                                    <ellipse id="Oval-6" fill="#ACB2DE" cx="10.142132" cy="10.125" rx="10.142132" ry="10.125"></ellipse>
                                                    <g id="Etherium" transform="translate(6.197970, 3.937500)">
                                                        <g id="Group">
                                                            <path d="M3.9326087,0.158108108 C3.9326087,0.158108108 3.9326087,0.158108108 3.9326087,0.158108108 C3.9326087,0.197635135 3.9326087,0.237162162 3.9326087,0.276689189 C3.9326087,1.73918919 3.9326087,3.2214527 3.9326087,4.6839527 C3.9326087,4.70371622 3.9326087,4.74324324 3.9326087,4.76300676 C3.9326087,4.78277027 3.91304348,4.80253378 3.89347826,4.80253378 C3.75652174,4.86182432 3.63913043,4.92111486 3.50217391,4.98040541 C3.32608696,5.05945946 3.13043478,5.13851351 2.95434783,5.23733108 C2.73913043,5.33614865 2.52391304,5.43496622 2.30869565,5.53378378 C2.1326087,5.61283784 1.95652174,5.69189189 1.78043478,5.77094595 C1.56521739,5.86976351 1.35,5.96858108 1.13478261,6.06739865 C0.958695652,6.1464527 0.782608696,6.22550676 0.586956522,6.32432432 C0.45,6.38361486 0.293478261,6.46266892 0.156521739,6.52195946 C0.136956522,6.52195946 0.136956522,6.54172297 0.117391304,6.52195946 C0.117391304,6.52195946 0.117391304,6.52195946 0.097826087,6.52195946 C0.156521739,6.42314189 0.215217391,6.34408784 0.273913043,6.24527027 C0.586956522,5.71165541 0.919565217,5.17804054 1.2326087,4.64442568 C1.56521739,4.07128378 1.9173913,3.49814189 2.25,2.925 C2.56304348,2.39138514 2.87608696,1.85777027 3.18913043,1.34391892 C3.42391304,0.948648649 3.65869565,0.573141892 3.87391304,0.177871622 C3.91304348,0.177871622 3.91304348,0.158108108 3.9326087,0.158108108 C3.91304348,0.158108108 3.9326087,0.158108108 3.9326087,0.158108108 C3.9326087,0.158108108 3.9326087,0.158108108 3.9326087,0.158108108 Z" id="Shape" fill="#8A92B2" fill-rule="nonzero"></path>
                                                            <path d="M7.72826087,6.52195946 C7.72826087,6.52195946 7.72826087,6.52195946 7.72826087,6.52195946 C7.43478261,6.71959459 7.12173913,6.89746622 6.82826087,7.07533784 C5.86956522,7.64847973 4.93043478,8.20185811 3.97173913,8.775 C3.95217391,8.775 3.95217391,8.79476351 3.9326087,8.79476351 C3.91304348,8.79476351 3.91304348,8.775 3.91304348,8.775 C3.91304348,8.75523649 3.91304348,8.73547297 3.91304348,8.71570946 C3.91304348,7.43108108 3.91304348,6.1464527 3.91304348,4.86182432 C3.91304348,4.84206081 3.91304348,4.8222973 3.91304348,4.80253378 C3.91304348,4.78277027 3.9326087,4.78277027 3.95217391,4.78277027 C4.03043478,4.8222973 4.10869565,4.86182432 4.20652174,4.90135135 C4.44130435,5.01993243 4.69565217,5.11875 4.93043478,5.23733108 C5.14565217,5.33614865 5.34130435,5.43496622 5.55652174,5.51402027 C5.77173913,5.61283784 5.9673913,5.71165541 6.1826087,5.81047297 C6.35869565,5.88952703 6.55434783,5.96858108 6.73043478,6.06739865 C6.90652174,6.1464527 7.10217391,6.22550676 7.27826087,6.32432432 C7.41521739,6.38361486 7.55217391,6.46266892 7.70869565,6.52195946 C7.70869565,6.50219595 7.70869565,6.52195946 7.72826087,6.52195946 Z" id="Shape" fill="#454A75" fill-rule="nonzero"></path>
                                                            <path d="M3.9326087,12.6684122 C3.9326087,12.6684122 3.9326087,12.6684122 3.9326087,12.6684122 C3.9326087,12.6684122 3.91304348,12.6684122 3.9326087,12.6684122 C3.91304348,12.6684122 3.91304348,12.6684122 3.89347826,12.6486486 C3.50217391,12.0952703 3.13043478,11.5616554 2.73913043,11.008277 C2.34782609,10.4548986 1.95652174,9.90152027 1.56521739,9.34814189 C1.19347826,8.81452703 0.802173913,8.28091216 0.430434783,7.72753378 C0.332608696,7.58918919 0.234782609,7.45084459 0.136956522,7.3125 C0.136956522,7.29273649 0.117391304,7.29273649 0.117391304,7.27297297 C0.136956522,7.27297297 0.136956522,7.29273649 0.156521739,7.29273649 C0.684782609,7.6089527 1.2326087,7.92516892 1.76086957,8.24138514 C2.3673913,8.61689189 2.99347826,8.97263514 3.6,9.34814189 C3.69782609,9.40743243 3.81521739,9.46672297 3.91304348,9.52601351 C3.9326087,9.52601351 3.9326087,9.54577703 3.9326087,9.56554054 C3.9326087,9.58530405 3.9326087,9.60506757 3.9326087,9.62483108 C3.9326087,10.6130068 3.9326087,11.5814189 3.9326087,12.5695946 C3.9326087,12.5893581 3.9326087,12.6288851 3.9326087,12.6684122 Z" id="Shape" fill="#8A92B2" fill-rule="nonzero"></path>
                                                            <path d="M0.136956522,6.54172297 C0.136956522,6.52195946 0.136956522,6.52195946 0.136956522,6.54172297 C0.332608696,6.44290541 0.52826087,6.36385135 0.723913043,6.26503378 C0.97826087,6.1464527 1.2326087,6.02787162 1.48695652,5.90929054 C1.6826087,5.81047297 1.87826087,5.73141892 2.07391304,5.63260135 C2.34782609,5.49425676 2.64130435,5.37567568 2.91521739,5.23733108 C3.11086957,5.15827703 3.30652174,5.05945946 3.50217391,4.98040541 C3.63913043,4.92111486 3.77608696,4.86182432 3.91304348,4.78277027 C3.9326087,4.78277027 3.9326087,4.76300676 3.95217391,4.76300676 C3.95217391,4.76300676 3.95217391,4.76300676 3.95217391,4.78277027 C3.95217391,4.80253378 3.95217391,4.80253378 3.95217391,4.8222973 C3.95217391,6.12668919 3.95217391,7.43108108 3.95217391,8.73547297 C3.95217391,8.75523649 3.95217391,8.775 3.95217391,8.79476351 C3.9326087,8.81452703 3.9326087,8.79476351 3.91304348,8.79476351 C3.85434783,8.75523649 3.79565217,8.73547297 3.75652174,8.69594595 C2.56304348,7.98445946 1.36956522,7.27297297 0.176086957,6.56148649 C0.156521739,6.54172297 0.136956522,6.54172297 0.136956522,6.54172297 Z" id="Shape" fill="#62688F" fill-rule="nonzero"></path>
                                                            <path d="M7.70869565,7.27297297 C7.70869565,7.27297297 7.70869565,7.27297297 7.70869565,7.27297297 C7.70869565,7.29273649 7.70869565,7.29273649 7.68913043,7.3125 C6.55434783,8.93310811 5.41956522,10.5339527 4.28478261,12.1545608 C4.1673913,12.3324324 4.05,12.4905405 3.9326087,12.6684122 C3.9326087,12.6684122 3.9326087,12.6684122 3.9326087,12.6486486 C3.9326087,12.6288851 3.9326087,12.6288851 3.9326087,12.6091216 C3.9326087,11.6011824 3.9326087,10.5932432 3.9326087,9.58530405 C3.9326087,9.56554054 3.9326087,9.54577703 3.9326087,9.52601351 C4.18695652,9.36790541 4.44130435,9.2097973 4.69565217,9.0714527 C5.69347826,8.4785473 6.69130435,7.88564189 7.68913043,7.29273649 C7.68913043,7.27297297 7.70869565,7.27297297 7.70869565,7.27297297 Z" id="Shape" fill="#62688F" fill-rule="nonzero"></path>
                                                            <path d="M3.9326087,4.78277027 C3.9326087,4.78277027 3.9326087,4.78277027 3.9326087,4.78277027 C3.9326087,4.76300676 3.9326087,4.74324324 3.9326087,4.74324324 C3.9326087,3.24121622 3.9326087,1.71942568 3.9326087,0.217398649 C3.9326087,0.197635135 3.9326087,0.177871622 3.9326087,0.177871622 C5.18478261,2.27280405 6.43695652,4.36773649 7.68913043,6.46266892 C7.70869565,6.48243243 7.72826087,6.50219595 7.72826087,6.52195946 C7.65,6.48243243 7.57173913,6.44290541 7.47391304,6.40337838 C7.37608696,6.36385135 7.27826087,6.30456081 7.18043478,6.26503378 C7.12173913,6.24527027 7.06304348,6.20574324 6.98478261,6.18597973 C6.88695652,6.1464527 6.76956522,6.08716216 6.67173913,6.04763514 C6.61304348,6.02787162 6.55434783,5.98834459 6.49565217,5.96858108 C6.35869565,5.90929054 6.22173913,5.85 6.08478261,5.79070946 C6.00652174,5.75118243 5.94782609,5.73141892 5.86956522,5.69189189 C5.77173913,5.65236486 5.67391304,5.59307432 5.57608696,5.5535473 C5.5173913,5.53378378 5.45869565,5.49425676 5.4,5.47449324 C5.26304348,5.4152027 5.12608696,5.35591216 4.98913043,5.29662162 C4.91086957,5.25709459 4.85217391,5.23733108 4.77391304,5.19780405 C4.67608696,5.15827703 4.57826087,5.09898649 4.48043478,5.05945946 C4.42173913,5.01993243 4.34347826,5.00016892 4.28478261,4.96064189 C4.1673913,4.90135135 4.05,4.84206081 3.9326087,4.78277027 C3.9326087,4.78277027 3.9326087,4.78277027 3.9326087,4.78277027 Z" id="Shape" fill="#62688F" fill-rule="nonzero"></path>
                                                        </g>
                                                    </g>
                                                </g>
                                            </g>
                                        </g>
                                        <path d="M152.620089,321.672983 C221.433267,321.672983 277.217369,266.902849 277.217369,199.340465 C277.217369,131.77808 221.433267,77.0079462 152.620089,77.0079462 C83.806911,77.0079462 28.0228084,131.77808 28.0228084,199.340465 C28.0228084,266.902849 83.806911,321.672983 152.620089,321.672983 Z" id="Oval-163" fill="url(#radialGradient-20)" mask="url(#mask-13)"></path>
                                    </g>
                                </g>
                            </g>
                            <path d="M10.6662947,12 L10.6662947,15.5000687 L3.55561756,15.5000687 L3.55561756,19.0001373 L0,19.0001373 L0,29.499794 L7.11123511,29.499794 L7.11123511,32.9998627 L3.55561756,32.9998627 L3.55561756,36.4999313 L0,36.4999313 L0,40 L3.55561756,40 L3.55561756,36.4999313 L7.11123511,36.4999313 L7.11123511,32.9998627 L10.6662947,32.9998627 L10.6662947,29.499794 L21.3331473,29.499794 L21.3331473,32.9998627 L10.6662947,32.9998627 L10.6662947,36.4999313 L21.3331473,36.4999313 L21.3331473,32.9998627 L24.8887649,32.9998627 L24.8887649,29.499794 L32,29.499794 L32,19.0001373 L28.4443824,19.0001373 L28.4443824,15.5000687 L21.3331473,15.5000687 L21.3331473,12 L10.6662947,12 Z M21.3331473,25.9997254 L28.4443824,25.9997254 L28.4443824,22.500206 L21.3331473,22.500206 L21.3331473,25.9997254 Z M3.55561756,25.9997254 L10.6662947,25.9997254 L10.6662947,22.500206 L3.55561756,22.500206 L3.55561756,25.9997254 Z M24.8887649,36.4999313 L28.4443824,36.4999313 L28.4443824,32.9998627 L24.8887649,32.9998627 L24.8887649,36.4999313 Z M28.4443824,40 L32,40 L32,36.4999313 L28.4443824,36.4999313 L28.4443824,40 Z" id="Page-1" fill="#DDDDDD"></path>
                            <path d="M426.2,108 L426.2,110.5 L423.6,110.5 L423.6,113 L418.4,113 L418.4,110.5 L415.8,110.5 L415.8,113 L413.2,113 L413.2,115.500392 L410.6,115.500392 L410.6,118.000392 L408,118.000392 L408,123 L410.6,123 L410.6,120.5 L413.2,120.5 L413.2,123 L415.8,123 L415.8,125.5 L418.4,125.5 L418.4,123 L423.6,123 L423.6,125.5 L426.2,125.5 L426.2,123 L428.8,123 L428.8,120.5 L431.4,120.5 L431.4,123 L434,123 L434,118.000392 L431.4,118.000392 L431.4,115.500392 L428.8,115.500392 L428.8,113 L426.2,113 L426.2,110.5 L428.8,110.5 L428.8,108 L426.2,108 Z M423.6,118.000392 L426.2,118.000392 L426.2,115.500392 L423.6,115.500392 L423.6,118.000392 Z M415.8,118.000392 L418.4,118.000392 L418.4,115.500392 L415.8,115.500392 L415.8,118.000392 Z M413.2,110.5 L415.8,110.5 L415.8,108 L413.2,108 L413.2,110.5 Z M426.2,128 L428.8,128 L428.8,125.5 L426.2,125.5 L426.2,128 Z M413.2,128 L415.8,128 L415.8,125.5 L413.2,125.5 L413.2,128 Z" id="Fill-2-Copy" fill="#DDDDDD"></path>
                        </g>
                    </g>
                    <path d="M375,0 L375,3.14292761 L368.600502,3.14292761 L368.600502,6.28536197 L365.4,6.28536197 L365.4,9.42828958 L362.2,9.42828958 L362.2,12.5712172 L359,12.5712172 L359,15.7141448 L365.4,15.7141448 L365.4,18.8570724 L368.600502,18.8570724 L368.600502,22 L371.800502,22 L371.800502,18.8570724 L375,18.8570724 L375,15.7141448 L378.2,15.7141448 L378.2,18.8570724 L387.8,18.8570724 L387.8,15.7141448 L391,15.7141448 L391,18.8570724 L394.2,18.8570724 L394.2,22 L397.4,22 L397.4,18.8570724 L400.6,18.8570724 L400.6,15.7141448 L407,15.7141448 L407,12.5712172 L403.8,12.5712172 L403.8,9.42828958 L400.6,9.42828958 L400.6,6.28536197 L397.4,6.28536197 L397.4,3.14292761 L391,3.14292761 L391,0 L375,0 Z M394.2,12.5712172 L397.4,12.5712172 L397.4,9.42828958 L394.2,9.42828958 L394.2,12.5712172 Z M387.8,12.5712172 L391,12.5712172 L391,9.42828958 L387.8,9.42828958 L387.8,12.5712172 Z M381.4,12.5712172 L384.6,12.5712172 L384.6,9.42828958 L381.4,9.42828958 L381.4,12.5712172 Z M375,12.5712172 L378.2,12.5712172 L378.2,9.42828958 L375,9.42828958 L375,12.5712172 Z M368.600502,12.5712172 L371.800502,12.5712172 L371.800502,9.42828958 L368.600502,9.42828958 L368.600502,12.5712172 Z" id="Fill-1" fill="#DDDDDD"></path>
                    <path d="M7.55539087,166 L7.55539087,167.888889 L5.66646904,167.888889 L5.66646904,169.777778 L3.77754721,169.777778 L3.77754721,171.666667 L1.88862539,171.666667 L1.88862539,173.555556 L0,173.555556 L0,177.333333 L3.77754721,177.333333 L3.77754721,179.222222 L13.2221563,179.222222 L13.2221563,177.333333 L17,177.333333 L17,173.555556 L15.1110782,173.555556 L15.1110782,171.666667 L13.2221563,171.666667 L13.2221563,169.777778 L11.333531,169.777778 L11.333531,167.888889 L9.44460913,167.888889 L9.44460913,166 L7.55539087,166 Z M9.44460913,175.444444 L13.2221563,175.444444 L13.2221563,173.555556 L9.44460913,173.555556 L9.44460913,175.444444 Z M3.77754721,175.444444 L7.55539087,175.444444 L7.55539087,173.555556 L3.77754721,173.555556 L3.77754721,175.444444 Z M13.2221563,179.222222 L13.2221563,181.111111 L15.1110782,181.111111 L15.1110782,183 L17,183 L17,181.111111 L15.1110782,181.111111 L15.1110782,179.222222 L13.2221563,179.222222 Z M7.55539087,179.222222 L7.55539087,181.111111 L9.44460913,181.111111 L9.44460913,183 L11.333531,183 L11.333531,181.111111 L9.44460913,181.111111 L9.44460913,179.222222 L7.55539087,179.222222 Z M1.88862539,181.111111 L3.77754721,181.111111 L3.77754721,179.222222 L1.88862539,179.222222 L1.88862539,181.111111 Z M5.66646904,183 L7.55539087,183 L7.55539087,181.111111 L5.66646904,181.111111 L5.66646904,183 Z M0,183 L1.88862539,183 L1.88862539,181.111111 L0,181.111111 L0,183 Z" id="Fill-5" fill="#DDDDDD"></path>
                </g>
            </g>
        </g>
    </g>
</svg>