<?xml version="1.0" encoding="UTF-8"?>
<svg width="22px" height="23px" viewBox="0 0 22 23" version="1.1" xmlns="http://www.w3.org/2000/svg" xmlns:xlink="http://www.w3.org/1999/xlink">
    <!-- Generator: Sketch 49.1 (51147) - http://www.bohemiancoding.com/sketch -->
    <title>Bitcoin</title>
    <desc>Created with Sketch.</desc>
    <defs></defs>
    <g id="Product-page" stroke="none" stroke-width="1" fill="none" fill-rule="evenodd">
        <g id="Trezor-product-page-Copy-15" transform="translate(-209.000000, -169.000000)">
            <g id="Group-15" transform="translate(201.000000, 94.000000)">
                <g id="Group-4" transform="translate(8.000000, 75.000000)">
                    <g id="Bitcoin">
                        <g id="Group">
                            <ellipse id="Oval" fill="#F5B300" fill-rule="nonzero" cx="10.896875" cy="11.5" rx="10.896875" ry="11.2169231"></ellipse>
                            <path d="M7.940625,5.76769231 C8.31875,5.87384615 8.696875,5.94461538 9.075,6.05076923 C9.453125,6.15692308 9.83125,6.22769231 10.209375,6.33384615 C10.3125,6.36923077 10.346875,6.33384615 10.38125,6.22769231 C10.51875,5.62615385 10.65625,5.06 10.79375,4.45846154 C10.828125,4.35230769 10.8625,4.31692308 10.965625,4.35230769 C11.309375,4.45846154 11.61875,4.52923077 11.9625,4.6 C12.065625,4.63538462 12.065625,4.67076923 12.03125,4.74153846 C11.89375,5.30769231 11.75625,5.90923077 11.61875,6.47538462 C11.61875,6.51076923 11.61875,6.54615385 11.584375,6.61692308 C11.859375,6.68769231 12.16875,6.75846154 12.44375,6.82923077 C12.478125,6.82923077 12.5125,6.75846154 12.546875,6.72307692 C12.65,6.26307692 12.753125,5.83846154 12.890625,5.37846154 C12.925,5.23692308 12.959375,5.09538462 12.99375,4.95384615 C12.99375,4.88307692 13.028125,4.84769231 13.096875,4.88307692 C13.440625,4.98923077 13.784375,5.06 14.1625,5.16615385 C14.196875,5.16615385 14.196875,5.20153846 14.23125,5.20153846 C14.128125,5.66153846 14.025,6.08615385 13.921875,6.51076923 C13.8875,6.68769231 13.853125,6.86461538 13.784375,7.04153846 C13.75,7.14769231 13.784375,7.18307692 13.8875,7.21846154 C14.265625,7.39538462 14.64375,7.57230769 15.021875,7.74923077 C15.365625,7.96153846 15.675,8.24461538 15.915625,8.59846154 C16.225,9.12923077 16.259375,9.69538462 16.121875,10.2615385 C16.01875,10.6507692 15.88125,11.0046154 15.60625,11.2876923 C15.4,11.5 15.125,11.6415385 14.85,11.7476923 C14.815625,11.7476923 14.78125,11.7830769 14.7125,11.7830769 C14.85,11.8892308 14.9875,11.96 15.125,12.0661538 C15.5375,12.3846154 15.8125,12.7738462 15.95,13.2692308 C16.01875,13.6584615 15.984375,14.0830769 15.88125,14.4723077 C15.74375,14.9676923 15.571875,15.3923077 15.2625,15.7815385 C14.884375,16.2415385 14.403125,16.4892308 13.853125,16.56 C13.13125,16.6661538 12.44375,16.5953846 11.75625,16.4892308 C11.653125,16.4538462 11.584375,16.4892308 11.55,16.5953846 C11.4125,17.1615385 11.275,17.7630769 11.1375,18.3292308 C11.103125,18.4707692 11.103125,18.5061538 10.93125,18.4353846 C10.621875,18.3646154 10.278125,18.2584615 9.96875,18.1876923 C9.865625,18.1523077 9.865625,18.1169231 9.9,18.0461538 C10.0375,17.4446154 10.175,16.8430769 10.346875,16.2769231 C10.346875,16.2061538 10.38125,16.1707692 10.3125,16.1353846 C10.0375,16.0646154 9.7625,15.9938462 9.453125,15.9230769 C9.384375,16.2415385 9.28125,16.56 9.2125,16.8784615 C9.14375,17.1969231 9.040625,17.5153846 8.971875,17.8338462 C8.9375,17.9046154 8.9375,17.94 8.834375,17.9046154 C8.490625,17.7984615 8.146875,17.7276923 7.803125,17.6569231 C7.7,17.6215385 7.7,17.5861538 7.734375,17.5153846 C7.871875,16.9138462 8.009375,16.3123077 8.18125,15.7461538 C8.18125,15.7107692 8.215625,15.6753846 8.215625,15.6046154 C7.425,15.3923077 6.634375,15.18 5.809375,14.9676923 C5.878125,14.8261538 5.9125,14.72 5.98125,14.5784615 C6.11875,14.26 6.25625,13.9415385 6.359375,13.6584615 C6.39375,13.5523077 6.428125,13.5523077 6.53125,13.5523077 C6.771875,13.6230769 7.046875,13.6938462 7.2875,13.7292308 C7.5625,13.8 7.76875,13.6584615 7.803125,13.4107692 C8.25,11.6061538 8.696875,9.80153846 9.109375,7.96153846 C9.178125,7.67846154 9.00625,7.36 8.696875,7.25384615 C8.3875,7.14769231 8.078125,7.07692308 7.803125,7.00615385 C7.734375,7.00615385 7.7,6.97076923 7.734375,6.9 C7.8375,6.51076923 7.940625,6.08615385 8.04375,5.69692308 C7.90625,5.80307692 7.90625,5.80307692 7.940625,5.76769231 Z M9.69375,14.5076923 C9.728125,14.5076923 9.7625,14.5430769 9.7625,14.5430769 C10.3125,14.6846154 10.896875,14.8615385 11.48125,14.8969231 C11.89375,14.9323077 12.271875,14.9323077 12.65,14.7907692 C13.303125,14.5784615 13.578125,13.6938462 13.2,13.1276923 C13.028125,12.8446154 12.753125,12.6676923 12.478125,12.4907692 C11.859375,12.1369231 11.1375,11.9953846 10.45,11.8538462 C10.346875,11.8184615 10.346875,11.8538462 10.3125,11.96 C10.24375,12.3138462 10.140625,12.6323077 10.071875,12.9861538 C9.934375,13.4815385 9.83125,13.9769231 9.69375,14.5076923 Z M12.58125,10.8984615 C12.65,10.8984615 12.821875,10.8630769 12.959375,10.8276923 C13.6125,10.6861538 13.95625,9.90769231 13.6125,9.30615385 C13.440625,8.98769231 13.13125,8.77538462 12.821875,8.63384615 C12.340625,8.42153846 11.859375,8.31538462 11.34375,8.17384615 C11.240625,8.13846154 11.20625,8.17384615 11.171875,8.28 C11,9.02307692 10.828125,9.73076923 10.621875,10.4738462 C10.5875,10.5446154 10.621875,10.58 10.690625,10.6153846 C10.828125,10.6507692 10.93125,10.6861538 11.06875,10.7215385 C11.584375,10.7923077 12.03125,10.8984615 12.58125,10.8984615 Z" id="Shape" fill="#FFFFFF" fill-rule="nonzero"></path>
                        </g>
                    </g>
                </g>
            </g>
        </g>
    </g>
</svg>