<?xml version="1.0" encoding="UTF-8"?>
<svg width="16px" height="15px" viewBox="0 0 16 15" version="1.1" xmlns="http://www.w3.org/2000/svg" xmlns:xlink="http://www.w3.org/1999/xlink">
    <!-- Generator: Sketch 49.1 (51147) - http://www.bohemiancoding.com/sketch -->
    <title>Fill 1 Copy 9</title>
    <desc>Created with Sketch.</desc>
    <defs></defs>
    <g id="Product-page" stroke="none" stroke-width="1" fill="none" fill-rule="evenodd">
        <g id="Trezor-product-page-Copy-15" transform="translate(-563.000000, -174.000000)" fill="#01B757">
            <g id="Group-15" transform="translate(201.000000, 94.000000)">
                <g id="Group" transform="translate(360.000000, 5.000000)">
                    <g id="Group-2">
                        <path d="M17.5528628,75.4803143 L17.4768628,75.4043143 C17.2088628,75.1373143 16.8458628,74.9923143 16.4688628,75.0003143 C16.0918628,75.0073143 15.7348628,75.1693143 15.4788628,75.4473143 L7.74786279,83.8803143 L7.59586279,83.9453143 L7.44786279,83.8763143 L5.52986279,81.6363143 C5.25186279,81.3143143 4.85386279,81.1213143 4.42786279,81.1043143 C4.00186279,81.0873143 3.58786279,81.2503143 3.28686279,81.5503143 C2.80686279,82.0313143 2.74386279,82.7883143 3.13886279,83.3403143 L7.09586279,88.8813143 C7.32086279,89.1973143 7.68386279,89.3823143 8.07086279,89.3823143 L8.41586279,89.3823143 C9.06686279,89.3823143 9.67586279,89.0643143 10.0448628,88.5303143 L17.7288628,77.4323143 C18.1488628,76.8253143 18.0738628,76.0033143 17.5528628,75.4803143" id="Fill-1-Copy-9"></path>
                    </g>
                </g>
            </g>
        </g>
    </g>
</svg>