<?xml version="1.0" encoding="UTF-8"?>
<svg width="14px" height="23px" viewBox="0 0 14 23" version="1.1" xmlns="http://www.w3.org/2000/svg" xmlns:xlink="http://www.w3.org/1999/xlink">
    <!-- Generator: Sketch 49.1 (51147) - http://www.bohemiancoding.com/sketch -->
    <title>Etherium</title>
    <desc>Created with Sketch.</desc>
    <defs></defs>
    <g id="Product-page" stroke="none" stroke-width="1" fill="none" fill-rule="evenodd">
        <g id="Trezor-product-page-Copy-15" transform="translate(-213.000000, -215.000000)">
            <g id="Group-15" transform="translate(201.000000, 94.000000)">
                <g id="Group-4" transform="translate(8.000000, 75.000000)">
                    <g id="Etherium" transform="translate(4.000000, 46.000000)">
                        <g id="Group">
                            <path d="M7.035,0.283076923 C7.035,0.283076923 7.035,0.283076923 7.035,0.283076923 C7.035,0.353846154 7.035,0.424615385 7.035,0.495384615 C7.035,3.11384615 7.035,5.76769231 7.035,8.38615385 C7.035,8.42153846 7.035,8.49230769 7.035,8.52769231 C7.035,8.56307692 7,8.59846154 6.965,8.59846154 C6.72,8.70461538 6.51,8.81076923 6.265,8.91692308 C5.95,9.05846154 5.6,9.2 5.285,9.37692308 C4.9,9.55384615 4.515,9.73076923 4.13,9.90769231 C3.815,10.0492308 3.5,10.1907692 3.185,10.3323077 C2.8,10.5092308 2.415,10.6861538 2.03,10.8630769 C1.715,11.0046154 1.4,11.1461538 1.05,11.3230769 C0.805,11.4292308 0.525,11.5707692 0.28,11.6769231 C0.245,11.6769231 0.245,11.7123077 0.21,11.6769231 C0.21,11.6769231 0.21,11.6769231 0.175,11.6769231 C0.28,11.5 0.385,11.3584615 0.49,11.1815385 C1.05,10.2261538 1.645,9.27076923 2.205,8.31538462 C2.8,7.28923077 3.43,6.26307692 4.025,5.23692308 C4.585,4.28153846 5.145,3.32615385 5.705,2.40615385 C6.125,1.69846154 6.545,1.02615385 6.93,0.318461538 C7,0.318461538 7,0.283076923 7.035,0.283076923 C7,0.283076923 7.035,0.283076923 7.035,0.283076923 C7.035,0.283076923 7.035,0.283076923 7.035,0.283076923 Z" id="Shape" fill="#8A92B2" fill-rule="nonzero"></path>
                            <path d="M13.825,11.6769231 C13.825,11.6769231 13.825,11.6769231 13.825,11.6769231 C13.3,12.0307692 12.74,12.3492308 12.215,12.6676923 C10.5,13.6938462 8.82,14.6846154 7.105,15.7107692 C7.07,15.7107692 7.07,15.7461538 7.035,15.7461538 C7,15.7461538 7,15.7107692 7,15.7107692 C7,15.6753846 7,15.64 7,15.6046154 C7,13.3046154 7,11.0046154 7,8.70461538 C7,8.66923077 7,8.63384615 7,8.59846154 C7,8.56307692 7.035,8.56307692 7.07,8.56307692 C7.21,8.63384615 7.35,8.70461538 7.525,8.77538462 C7.945,8.98769231 8.4,9.16461538 8.82,9.37692308 C9.205,9.55384615 9.555,9.73076923 9.94,9.87230769 C10.325,10.0492308 10.675,10.2261538 11.06,10.4030769 C11.375,10.5446154 11.725,10.6861538 12.04,10.8630769 C12.355,11.0046154 12.705,11.1461538 13.02,11.3230769 C13.265,11.4292308 13.51,11.5707692 13.79,11.6769231 C13.79,11.6415385 13.79,11.6769231 13.825,11.6769231 Z" id="Shape" fill="#454A75" fill-rule="nonzero"></path>
                            <path d="M7.035,22.6815385 C7.035,22.6815385 7.035,22.6815385 7.035,22.6815385 C7.035,22.6815385 7,22.6815385 7.035,22.6815385 C7,22.6815385 7,22.6815385 6.965,22.6461538 C6.265,21.6553846 5.6,20.7 4.9,19.7092308 C4.2,18.7184615 3.5,17.7276923 2.8,16.7369231 C2.135,15.7815385 1.435,14.8261538 0.77,13.8353846 C0.595,13.5876923 0.42,13.34 0.245,13.0923077 C0.245,13.0569231 0.21,13.0569231 0.21,13.0215385 C0.245,13.0215385 0.245,13.0569231 0.28,13.0569231 C1.225,13.6230769 2.205,14.1892308 3.15,14.7553846 C4.235,15.4276923 5.355,16.0646154 6.44,16.7369231 C6.615,16.8430769 6.825,16.9492308 7,17.0553846 C7.035,17.0553846 7.035,17.0907692 7.035,17.1261538 C7.035,17.1615385 7.035,17.1969231 7.035,17.2323077 C7.035,19.0015385 7.035,20.7353846 7.035,22.5046154 C7.035,22.54 7.035,22.6107692 7.035,22.6815385 Z" id="Shape" fill="#8A92B2" fill-rule="nonzero"></path>
                            <path d="M0.245,11.7123077 C0.245,11.6769231 0.245,11.6769231 0.245,11.7123077 C0.595,11.5353846 0.945,11.3938462 1.295,11.2169231 C1.75,11.0046154 2.205,10.7923077 2.66,10.58 C3.01,10.4030769 3.36,10.2615385 3.71,10.0846154 C4.2,9.83692308 4.725,9.62461538 5.215,9.37692308 C5.565,9.23538462 5.915,9.05846154 6.265,8.91692308 C6.51,8.81076923 6.755,8.70461538 7,8.56307692 C7.035,8.56307692 7.035,8.52769231 7.07,8.52769231 C7.07,8.52769231 7.07,8.52769231 7.07,8.56307692 C7.07,8.59846154 7.07,8.59846154 7.07,8.63384615 C7.07,10.9692308 7.07,13.3046154 7.07,15.64 C7.07,15.6753846 7.07,15.7107692 7.07,15.7461538 C7.035,15.7815385 7.035,15.7461538 7,15.7461538 C6.895,15.6753846 6.79,15.64 6.72,15.5692308 C4.585,14.2953846 2.45,13.0215385 0.315,11.7476923 C0.28,11.7123077 0.245,11.7123077 0.245,11.7123077 Z" id="Shape" fill="#62688F" fill-rule="nonzero"></path>
                            <path d="M13.79,13.0215385 C13.79,13.0215385 13.79,13.0215385 13.79,13.0215385 C13.79,13.0569231 13.79,13.0569231 13.755,13.0923077 C11.725,15.9938462 9.695,18.86 7.665,21.7615385 C7.455,22.08 7.245,22.3630769 7.035,22.6815385 C7.035,22.6815385 7.035,22.6815385 7.035,22.6461538 C7.035,22.6107692 7.035,22.6107692 7.035,22.5753846 C7.035,20.7707692 7.035,18.9661538 7.035,17.1615385 C7.035,17.1261538 7.035,17.0907692 7.035,17.0553846 C7.49,16.7723077 7.945,16.4892308 8.4,16.2415385 C10.185,15.18 11.97,14.1184615 13.755,13.0569231 C13.755,13.0215385 13.79,13.0215385 13.79,13.0215385 Z" id="Shape" fill="#62688F" fill-rule="nonzero"></path>
                            <path d="M7.035,8.56307692 C7.035,8.56307692 7.035,8.56307692 7.035,8.56307692 C7.035,8.52769231 7.035,8.49230769 7.035,8.49230769 C7.035,5.80307692 7.035,3.07846154 7.035,0.389230769 C7.035,0.353846154 7.035,0.318461538 7.035,0.318461538 C9.275,4.06923077 11.515,7.82 13.755,11.5707692 C13.79,11.6061538 13.825,11.6415385 13.825,11.6769231 C13.685,11.6061538 13.545,11.5353846 13.37,11.4646154 C13.195,11.3938462 13.02,11.2876923 12.845,11.2169231 C12.74,11.1815385 12.635,11.1107692 12.495,11.0753846 C12.32,11.0046154 12.11,10.8984615 11.935,10.8276923 C11.83,10.7923077 11.725,10.7215385 11.62,10.6861538 C11.375,10.58 11.13,10.4738462 10.885,10.3676923 C10.745,10.2969231 10.64,10.2615385 10.5,10.1907692 C10.325,10.12 10.15,10.0138462 9.975,9.94307692 C9.87,9.90769231 9.765,9.83692308 9.66,9.80153846 C9.415,9.69538462 9.17,9.58923077 8.925,9.48307692 C8.785,9.41230769 8.68,9.37692308 8.54,9.30615385 C8.365,9.23538462 8.19,9.12923077 8.015,9.05846154 C7.91,8.98769231 7.77,8.95230769 7.665,8.88153846 C7.455,8.77538462 7.245,8.66923077 7.035,8.56307692 C7.035,8.56307692 7.035,8.56307692 7.035,8.56307692 Z" id="Shape" fill="#62688F" fill-rule="nonzero"></path>
                        </g>
                    </g>
                </g>
            </g>
        </g>
    </g>
</svg>