<?xml version="1.0" encoding="UTF-8"?>
<svg width="22px" height="23px" viewBox="0 0 22 23" version="1.1" xmlns="http://www.w3.org/2000/svg" xmlns:xlink="http://www.w3.org/1999/xlink">
    <!-- Generator: Sketch 49.1 (51147) - http://www.bohemiancoding.com/sketch -->
    <title>Litecoin</title>
    <desc>Created with Sketch.</desc>
    <defs></defs>
    <g id="Product-page" stroke="none" stroke-width="1" fill="none" fill-rule="evenodd">
        <g id="Trezor-product-page-Copy-15" transform="translate(-209.000000, -267.000000)">
            <g id="Group-15" transform="translate(201.000000, 94.000000)">
                <g id="Group-4" transform="translate(8.000000, 75.000000)">
                    <g id="Litecoin" transform="translate(0.000000, 98.000000)">
                        <g id="Group">
                            <path d="M11.06875,22.6815385 C5.01875,22.6461538 0.171875,17.6569231 0.20625,11.4646154 C0.20625,5.23692308 5.121875,0.247692308 11.1375,0.283076923 C17.1875,0.318461538 22.034375,5.34307692 22,11.5353846 C21.93125,17.7276923 17.05,22.7169231 11.06875,22.6815385 Z M20.934375,11.5 C20.934375,5.87384615 16.534375,1.34461538 11.06875,1.34461538 C5.6375,1.34461538 1.2375,5.87384615 1.2375,11.4646154 C1.2375,17.0907692 5.6375,21.62 11.103125,21.62 C16.534375,21.62 20.934375,17.0907692 20.934375,11.5 Z" id="Shape" fill="#C0C0C0" fill-rule="nonzero"></path>
                            <path d="M19.45625,11.5 C19.3875,16.2769231 15.640625,20.1338462 11.034375,20.0984615 C6.359375,20.0276923 2.646875,16.1353846 2.715625,11.3938462 C2.784375,6.61692308 6.53125,2.83076923 11.103125,2.86615385 C15.74375,2.90153846 19.45625,6.75846154 19.45625,11.5 Z M10.553125,14.5784615 C10.553125,14.5430769 10.553125,14.5076923 10.553125,14.4723077 C10.79375,13.5169231 11,12.5969231 11.240625,11.6415385 C11.275,11.5707692 11.34375,11.4646154 11.446875,11.4292308 C11.6875,11.3230769 11.928125,11.2169231 12.16875,11.1461538 C12.71875,11.0046154 13.028125,10.6861538 13.096875,10.12 C13.13125,9.87230769 13.234375,9.62461538 13.303125,9.34153846 C12.71875,9.58923077 12.203125,9.80153846 11.653125,10.0138462 C12.03125,8.49230769 12.375,7.07692308 12.753125,5.59076923 C12.65,5.59076923 12.58125,5.59076923 12.5125,5.59076923 C11.55,5.59076923 10.5875,5.59076923 9.625,5.59076923 C9.41875,5.59076923 9.35,5.66153846 9.28125,5.87384615 C8.8,7.71384615 8.31875,9.55384615 7.8375,11.3938462 C7.803125,11.5 7.7,11.6061538 7.63125,11.6415385 C7.321875,11.7830769 6.978125,11.8892308 6.66875,12.0307692 C6.6,12.0661538 6.496875,12.1015385 6.496875,12.1369231 C6.359375,12.5969231 6.221875,13.0923077 6.05,13.6230769 C6.53125,13.4107692 6.94375,13.2338462 7.425,13.0569231 C7.115625,14.2953846 6.80625,15.4984615 6.496875,16.7015385 C7.184375,16.7015385 7.8375,16.7015385 8.490625,16.7015385 C10.79375,16.7015385 13.0625,16.7015385 15.365625,16.7015385 C15.5375,16.7015385 15.60625,16.6661538 15.640625,16.4892308 C15.709375,16.1353846 15.8125,15.7815385 15.915625,15.4630769 C15.984375,15.2153846 16.01875,14.9676923 16.0875,14.6846154 C14.23125,14.6492308 12.409375,14.6138462 10.553125,14.5784615 Z" id="Shape" fill="#C0C0C0" fill-rule="nonzero"></path>
                            <path d="M10.553125,14.5784615 C12.409375,14.6138462 14.23125,14.6492308 16.0875,14.72 C16.01875,15.0030769 15.95,15.2507692 15.915625,15.4984615 C15.8125,15.8523077 15.709375,16.1707692 15.640625,16.5246154 C15.60625,16.7015385 15.5375,16.7369231 15.365625,16.7369231 C13.0625,16.7369231 10.79375,16.7369231 8.490625,16.7369231 C7.8375,16.7369231 7.184375,16.7369231 6.496875,16.7369231 C6.80625,15.4984615 7.115625,14.3307692 7.425,13.0923077 C6.94375,13.2692308 6.53125,13.4461538 6.05,13.6584615 C6.1875,13.1276923 6.325,12.6676923 6.496875,12.1723077 C6.496875,12.1015385 6.6,12.0661538 6.66875,12.0661538 C6.978125,11.9246154 7.321875,11.8184615 7.63125,11.6769231 C7.734375,11.6415385 7.8375,11.5353846 7.8375,11.4292308 C8.31875,9.58923077 8.8,7.74923077 9.28125,5.90923077 C9.315625,5.69692308 9.384375,5.62615385 9.625,5.62615385 C10.5875,5.62615385 11.55,5.62615385 12.5125,5.62615385 C12.58125,5.62615385 12.65,5.62615385 12.753125,5.62615385 C12.375,7.07692308 12.03125,8.52769231 11.653125,10.0492308 C12.203125,9.80153846 12.71875,9.58923077 13.303125,9.37692308 C13.234375,9.66 13.13125,9.90769231 13.096875,10.1553846 C13.028125,10.7215385 12.71875,11.04 12.16875,11.1815385 C11.928125,11.2523077 11.6875,11.3584615 11.446875,11.4646154 C11.378125,11.5 11.275,11.6061538 11.240625,11.6769231 C11,12.6323077 10.759375,13.5523077 10.553125,14.5076923 C10.553125,14.5076923 10.553125,14.5430769 10.553125,14.5784615 Z" id="Shape" fill="#FFFFFF" fill-rule="nonzero"></path>
                        </g>
                    </g>
                </g>
            </g>
        </g>
    </g>
</svg>