<?xml version="1.0" encoding="UTF-8"?>
<svg width="62px" height="61px" viewBox="0 0 62 61" version="1.1" xmlns="http://www.w3.org/2000/svg" xmlns:xlink="http://www.w3.org/1999/xlink">
    <!-- Generator: Sketch 49.3 (51167) - http://www.bohemiancoding.com/sketch -->
    <title>NEM (Xem)</title>
    <desc>Created with Sketch.</desc>
    <defs></defs>
    <g id="NEM-(Xem)" stroke="none" stroke-width="1" fill="none" fill-rule="evenodd">
        <g id="XEM">
            <path d="M2.29441801,21.9111421 C2.09702092,21.1169939 1.91520912,20.3190798 1.74908664,19.5178563 C1.01834936,15.9607713 0.595268476,12.3477687 0.484499266,8.7186034 C0.477983358,8.49385828 0.498533529,8.44840982 0.571210964,8.32405085 C0.604291728,8.26561712 0.633863926,8.21567376 1.06541752,7.98693317 C10.2428233,3.11695607 20.5915888,0.542875267 30.9914792,0.542875267 C33.2314479,0.542875267 35.4999863,0.665735935 37.7645149,0.909958968 C32.176372,4.1353012 28.6953735,10.0610809 28.6953735,16.7020496 L28.6958747,16.7385082 C28.6748233,21.5625374 26.1797318,25.9260889 22.0065433,28.4217586 C19.879518,29.6852944 17.4492041,30.3522662 14.9728713,30.3520695 C9.49449633,30.3520695 4.40757709,26.9624136 2.29441801,21.9111421 Z" id="Path" fill="#FABE00"></path>
            <path d="M41.9026177,52.6163202 C41.3067051,53.1884896 40.6994362,53.7487983 40.0811708,54.2969143 C37.5518079,56.5311949 34.8478416,58.561154 31.994929,60.3675298 C31.7222633,60.5388355 31.5879354,60.5942726 31.0340832,60.5942726 C30.4220891,60.5942726 30.2486657,60.5243519 29.9975526,60.3650326 C19.5124542,53.7340526 11.0573118,43.9266749 5.95786197,32.5460813 C8.70857758,34.0993198 11.8266902,34.9353717 14.9733725,34.9353717 C18.0859716,34.9353717 21.1599765,34.14327 23.8550563,32.6494641 C24.0375017,32.5515751 24.2204484,32.4456952 24.3587861,32.3597926 C26.3681919,31.2450568 28.6632952,30.6557251 30.9974939,30.6557251 C33.3186608,30.6557251 35.6132628,31.2450568 37.587583,32.3328232 L37.7138913,32.4057405 C37.8176446,32.4636748 37.9224004,32.5236068 38.0366794,32.5940269 C42.1572394,35.0517397 44.7164875,39.5491393 44.7164875,44.3307167 C44.7159863,47.2983512 43.7175487,50.2380174 41.9026177,52.6163202 Z" id="Path" fill="#2AB8B0"></path>
            <path d="M49.3152149,44.1474245 C49.250557,37.8315872 45.8517592,31.9132989 40.4174919,28.670976 C40.2744009,28.5841574 40.1291684,28.5008928 39.9819285,28.4212592 L39.9222829,28.3843011 C35.7756593,25.883637 33.2991131,21.5100969 33.2976094,16.6855683 L33.2976094,16.5107665 C33.3888321,9.04922845 39.5082721,3.00708068 47.016603,3.00708068 C47.7097954,3.00708068 48.4150171,3.06101951 49.1157279,3.1678983 C49.8956319,3.39763776 50.6620029,3.63936362 51.3942907,3.88558439 C54.6792137,4.99117299 57.8677884,6.36287056 60.9280666,7.98693317 C61.3606226,8.21617319 61.390696,8.26811429 61.4232756,8.32355142 C61.4969555,8.45140642 61.5149995,8.49036224 61.5084836,8.7141085 C61.1250475,21.3722532 56.8160274,33.8486042 49.3152149,44.1474245 Z" id="Path" fill="#86C0EA"></path>
        </g>
    </g>
</svg>