<?xml version="1.0" encoding="UTF-8"?>
<svg width="18px" height="19px" viewBox="0 0 18 19" version="1.1" xmlns="http://www.w3.org/2000/svg" xmlns:xlink="http://www.w3.org/1999/xlink">
    <!-- Generator: Sketch 49.1 (51147) - http://www.bohemiancoding.com/sketch -->
    <title>Facebook-color</title>
    <desc>Created with Sketch.</desc>
    <defs>
        <filter x="-0.1%" y="-0.5%" width="100.2%" height="100.9%" filterUnits="objectBoundingBox" id="filter-1">
            <feOffset dx="0" dy="0" in="SourceAlpha" result="shadowOffsetOuter1"></feOffset>
            <feGaussianBlur stdDeviation="0.5" in="shadowOffsetOuter1" result="shadowBlurOuter1"></feGaussianBlur>
            <feColorMatrix values="0 0 0 0 0   0 0 0 0 0   0 0 0 0 0  0 0 0 0.5 0" type="matrix" in="shadowBlurOuter1" result="shadowMatrixOuter1"></feColorMatrix>
            <feMerge>
                <feMergeNode in="shadowMatrixOuter1"></feMergeNode>
                <feMergeNode in="SourceGraphic"></feMergeNode>
            </feMerge>
        </filter>
    </defs>
    <g id="Product-page" stroke="none" stroke-width="1" fill="none" fill-rule="evenodd">
        <g id="Trezor-product-page-Copy-15" transform="translate(-1065.000000, -859.000000)" fill="#929497">
            <g id="Footer" filter="url(#filter-1)" transform="translate(0.000000, 586.000000)">
                <g id="Group-5">
                    <g>
                        <g id="Group-31" transform="translate(953.000000, 274.867769)">
                            <path d="M113.880651,16 C113.394138,16 113,15.6045305 113,15.1168676 L113,0.883070321 C113,0.395283235 113.3942,0 113.880651,0 L128.075455,0 C128.561782,0 128.956044,0.395283235 128.956044,0.883070321 L128.956044,15.1168676 C128.956044,15.6045926 128.56172,16 128.075455,16 L124.009439,16 L124.009439,9.80391822 L126.083464,9.80391822 L126.39402,7.38919521 L124.009439,7.38919521 L124.009439,5.84754713 C124.009439,5.1484291 124.203041,4.67200323 125.202813,4.67200323 L126.477974,4.67144448 L126.477974,2.51169685 C126.25744,2.48226945 125.500491,2.41652342 124.61984,2.41652342 C122.781332,2.41652342 121.52264,3.54184208 121.52264,5.60840295 L121.52264,7.38919521 L119.44329,7.38919521 L119.44329,9.80391822 L121.52264,9.80391822 L121.52264,16 L113.880651,16 Z" id="Facebook"></path>
                        </g>
                    </g>
                </g>
            </g>
        </g>
    </g>
</svg>