<?xml version="1.0" encoding="UTF-8"?>
<svg width="24px" height="25px" viewBox="0 0 24 25" version="1.1" xmlns="http://www.w3.org/2000/svg" xmlns:xlink="http://www.w3.org/1999/xlink">
    <!-- Generator: Sketch 49.1 (51147) - http://www.bohemiancoding.com/sketch -->
    <title>Facebook-color</title>
    <desc>Created with Sketch.</desc>
    <defs></defs>
    <g id="Page-1" stroke="none" stroke-width="1" fill="none" fill-rule="evenodd">
        <g id="Trezor-product-page-Copy-14" transform="translate(-1026.000000, -7119.000000)" fill="#929497">
            <g id="Footer" transform="translate(0.000000, 6845.000000)">
                <g id="Group-5">
                    <g>
                        <g id="Group-31" transform="translate(913.000000, 274.867769)">
                            <path d="M114.320977,24 C113.591208,24 113,23.4067958 113,22.6753014 L113,1.32460548 C113,0.592924852 113.591301,0 114.320977,0 L135.613182,0 C136.342673,0 136.934066,0.592924852 136.934066,1.32460548 L136.934066,22.6753014 C136.934066,23.4068889 136.34258,24 135.613182,24 L129.514159,24 L129.514159,14.7058773 L132.625197,14.7058773 L133.09103,11.0837928 L129.514159,11.0837928 L129.514159,8.7713207 C129.514159,7.72264365 129.804562,7.00800484 131.30422,7.00800484 L133.216962,7.00716672 L133.216962,3.76754527 C132.88616,3.72340417 131.750737,3.62478513 130.42976,3.62478513 C127.671998,3.62478513 125.78396,5.31276313 125.78396,8.41260443 L125.78396,11.0837928 L122.664936,11.0837928 L122.664936,14.7058773 L125.78396,14.7058773 L125.78396,24 L114.320977,24 Z" id="Facebook"></path>
                        </g>
                    </g>
                </g>
            </g>
        </g>
    </g>
</svg>