<?xml version="1.0" encoding="UTF-8"?>
<svg width="24px" height="25px" viewBox="0 0 24 25" version="1.1" xmlns="http://www.w3.org/2000/svg" xmlns:xlink="http://www.w3.org/1999/xlink">
    <!-- Generator: Sketch 49.1 (51147) - http://www.bohemiancoding.com/sketch -->
    <title>Github Copy-color</title>
    <desc>Created with Sketch.</desc>
    <defs></defs>
    <g id="Page-1" stroke="none" stroke-width="1" fill="none" fill-rule="evenodd">
        <g id="Trezor-product-page-Copy-14" transform="translate(-1170.000000, -7119.000000)" fill="#929497">
            <g id="Footer" transform="translate(0.000000, 6845.000000)">
                <g id="Group-5">
                    <g>
                        <g id="Group-31" transform="translate(913.000000, 274.867769)">
                            <path d="M268.966285,0 C262.358239,0 257,5.50830235 257,12.3046693 C257,17.7399172 260.428555,22.3515728 265.184703,23.9787636 C265.783054,24.0918057 266.001453,23.7119228 266.001453,23.3858694 C266.001453,23.0936518 265.990981,22.3200441 265.984998,21.2934374 C262.655919,22.0370544 261.953604,19.6439458 261.953604,19.6439458 C261.409852,18.2228453 260.625263,17.8445004 260.625263,17.8445004 C259.538507,17.0808895 260.707536,17.0962694 260.707536,17.0962694 C261.907979,17.1831657 262.539988,18.3643401 262.539988,18.3643401 C263.608046,20.2445299 265.341022,19.7016203 266.023143,19.3863329 C266.131594,18.5911933 266.441241,18.0490527 266.783049,17.7414552 C264.12562,17.4307817 261.332066,16.3757223 261.332066,11.6610215 C261.332066,10.3175894 261.798032,9.21946627 262.563922,8.35896224 C262.440512,8.04751977 262.029894,6.7971359 262.680601,5.10304263 C262.680601,5.10304263 263.685832,4.77237532 265.971535,6.36419241 C266.926654,6.09119962 267.949835,5.95508773 268.967781,5.94970477 C269.984231,5.95508773 271.00816,6.09119962 271.964027,6.36419241 C274.248234,4.77237532 275.251221,5.10304263 275.251221,5.10304263 C275.904172,6.7971359 275.493554,8.04751977 275.370144,8.35896224 C276.13753,9.21946627 276.600504,10.3175894 276.600504,11.6610215 C276.600504,16.3872572 273.802462,17.4277057 271.136806,17.7322273 C271.566123,18.1121102 271.949068,18.8626481 271.949068,20.0107558 C271.949068,21.6556335 271.934109,22.9821477 271.934109,23.3858694 C271.934109,23.7149988 272.149516,24.0979577 272.756843,23.9772256 C277.508503,22.3469589 280.934066,17.7383792 280.934066,12.3046693 C280.934066,5.50830235 275.575827,0 268.966285,0" id="Github-Copy"></path>
                        </g>
                    </g>
                </g>
            </g>
        </g>
    </g>
</svg>