<?xml version="1.0" encoding="UTF-8"?>
<svg width="18px" height="19px" viewBox="0 0 18 19" version="1.1" xmlns="http://www.w3.org/2000/svg" xmlns:xlink="http://www.w3.org/1999/xlink">
    <!-- Generator: Sketch 49.1 (51147) - http://www.bohemiancoding.com/sketch -->
    <title>Github Copy-color</title>
    <desc>Created with Sketch.</desc>
    <defs>
        <filter x="-0.1%" y="-0.5%" width="100.2%" height="100.9%" filterUnits="objectBoundingBox" id="filter-1">
            <feOffset dx="0" dy="0" in="SourceAlpha" result="shadowOffsetOuter1"></feOffset>
            <feGaussianBlur stdDeviation="0.5" in="shadowOffsetOuter1" result="shadowBlurOuter1"></feGaussianBlur>
            <feColorMatrix values="0 0 0 0 0   0 0 0 0 0   0 0 0 0 0  0 0 0 0.5 0" type="matrix" in="shadowBlurOuter1" result="shadowMatrixOuter1"></feColorMatrix>
            <feMerge>
                <feMergeNode in="shadowMatrixOuter1"></feMergeNode>
                <feMergeNode in="SourceGraphic"></feMergeNode>
            </feMerge>
        </filter>
    </defs>
    <g id="Product-page" stroke="none" stroke-width="1" fill="none" fill-rule="evenodd">
        <g id="Trezor-product-page-Copy-15" transform="translate(-1179.000000, -859.000000)" fill="#929497">
            <g id="Footer" filter="url(#filter-1)" transform="translate(0.000000, 586.000000)">
                <g id="Group-5">
                    <g>
                        <g id="Group-31" transform="translate(953.000000, 274.867769)">
                            <path d="M234.977523,0 C230.572159,0 227,3.67220157 227,8.20311284 C227,11.8266115 229.285703,14.9010485 232.456468,15.9858424 C232.85537,16.0612038 233.000968,15.8079485 233.000968,15.5905796 C233.000968,15.3957679 232.993988,14.8800294 232.989999,14.1956249 C230.770613,14.6913696 230.302402,13.0959638 230.302402,13.0959638 C229.939901,12.1485635 229.416842,11.8963336 229.416842,11.8963336 C228.692338,11.3872597 229.471691,11.3975129 229.471691,11.3975129 C230.271986,11.4554438 230.693326,12.2428934 230.693326,12.2428934 C231.405364,13.4963533 232.560681,13.1344135 233.015429,12.9242219 C233.087729,12.3941289 233.294161,12.0327018 233.522033,11.8276368 C231.750413,11.6205211 229.888044,10.9171482 229.888044,7.77401432 C229.888044,6.87839291 230.198688,6.14631084 230.709282,5.57264149 C230.627008,5.36501318 230.353262,4.53142393 230.787067,3.40202842 C230.787067,3.40202842 231.457221,3.18158354 232.981023,4.24279494 C233.617769,4.06079975 234.29989,3.97005849 234.978521,3.96646985 C235.656154,3.97005849 236.338773,4.06079975 236.976018,4.24279494 C238.498823,3.18158354 239.167481,3.40202842 239.167481,3.40202842 C239.602782,4.53142393 239.329036,5.36501318 239.246762,5.57264149 C239.758353,6.14631084 240.067003,6.87839291 240.067003,7.77401432 C240.067003,10.9248381 238.201641,11.6184705 236.424537,11.8214848 C236.710749,12.0747401 236.966045,12.5750987 236.966045,13.3405039 C236.966045,14.437089 236.956073,15.3214318 236.956073,15.5905796 C236.956073,15.8099992 237.099677,16.0653051 237.504562,15.9848171 C240.672335,14.8979726 242.956044,11.8255861 242.956044,8.20311284 C242.956044,3.67220157 239.383885,0 234.977523,0" id="Github-Copy"></path>
                        </g>
                    </g>
                </g>
            </g>
        </g>
    </g>
</svg>