<?xml version="1.0" encoding="UTF-8"?>
<svg width="30px" height="25px" viewBox="0 0 30 25" version="1.1" xmlns="http://www.w3.org/2000/svg" xmlns:xlink="http://www.w3.org/1999/xlink">
    <!-- Generator: Sketch 49.1 (51147) - http://www.bohemiancoding.com/sketch -->
    <title>Shape</title>
    <desc>Created with Sketch.</desc>
    <defs></defs>
    <g id="Page-1" stroke="none" stroke-width="1" fill="none" fill-rule="evenodd">
        <g id="Trezor-product-page-Copy-14" transform="translate(-1070.000000, -7119.000000)" fill="#929497">
            <g id="Footer" transform="translate(0.000000, 6845.000000)">
                <g id="Group-5">
                    <g>
                        <g id="Group-31" transform="translate(903.000000, 274.867769)">
                            <path d="M170.5575,4.89623681 C170.595,4.52464179 170.45375,4.15808534 170.17875,3.9086758 L167.37875,0.507636593 L167.37875,0 L176.07625,0 L182.79875,14.8575028 L188.70875,5.59394376e-16 L197,0 L197,0.507636593 L194.605,2.8216029 C194.39875,2.98031806 194.29625,3.2410644 194.33875,3.49929145 L194.33875,20.5019682 C194.29625,20.7589356 194.39875,21.0196819 194.605,21.1783971 L196.94375,23.4923634 L196.94375,24 L185.17875,24 L185.17875,23.4923634 L187.6025,21.1217131 C187.84,20.8823807 187.84,20.8118407 187.84,20.4452842 L187.84,6.70256652 L181.10375,23.9445757 L180.19375,23.9445757 L172.35,6.70256652 L172.35,18.258542 C172.285,18.743505 172.445,19.2335065 172.78375,19.5836876 L175.935,23.4356794 L175.935,23.9445757 L167,23.9445757 L167,23.4356794 L170.15125,19.5836876 C170.48875,19.2322469 170.63875,18.739726 170.5575,18.258542 L170.5575,4.89623681 Z" id="Shape"></path>
                        </g>
                    </g>
                </g>
            </g>
        </g>
    </g>
</svg>