<?xml version="1.0" encoding="UTF-8"?>
<svg width="22px" height="19px" viewBox="0 0 22 19" version="1.1" xmlns="http://www.w3.org/2000/svg" xmlns:xlink="http://www.w3.org/1999/xlink">
    <!-- Generator: Sketch 49.1 (51147) - http://www.bohemiancoding.com/sketch -->
    <title>Reddit-color</title>
    <desc>Created with Sketch.</desc>
    <defs>
        <filter x="-0.1%" y="-0.5%" width="100.2%" height="100.9%" filterUnits="objectBoundingBox" id="filter-1">
            <feOffset dx="0" dy="0" in="SourceAlpha" result="shadowOffsetOuter1"></feOffset>
            <feGaussianBlur stdDeviation="0.5" in="shadowOffsetOuter1" result="shadowBlurOuter1"></feGaussianBlur>
            <feColorMatrix values="0 0 0 0 0   0 0 0 0 0   0 0 0 0 0  0 0 0 0.5 0" type="matrix" in="shadowBlurOuter1" result="shadowMatrixOuter1"></feColorMatrix>
            <feMerge>
                <feMergeNode in="shadowMatrixOuter1"></feMergeNode>
                <feMergeNode in="SourceGraphic"></feMergeNode>
            </feMerge>
        </filter>
    </defs>
    <g id="Product-page" stroke="none" stroke-width="1" fill="none" fill-rule="evenodd">
        <g id="Trezor-product-page-Copy-15" transform="translate(-1139.000000, -859.000000)" fill="#929497">
            <g id="Footer" filter="url(#filter-1)" transform="translate(0.000000, 586.000000)">
                <g id="Group-5">
                    <g>
                        <g id="Group-31" transform="translate(953.000000, 274.867769)">
                            <path d="M199.508043,10.530321 C198.787444,10.530321 198.181925,9.95362663 198.181925,9.24256837 C198.181925,8.53151011 198.787444,7.93579073 199.508043,7.93579073 C200.228641,7.93579073 200.813072,8.53151011 200.813072,9.24256837 C200.813072,9.95362663 200.228641,10.530321 199.508043,10.530321 M199.814116,13.0297265 C199.142923,13.6914388 198.107817,14.0130797 196.64975,14.0130797 C196.646737,14.0130797 196.643122,14.0124851 196.639507,14.0124851 C196.636495,14.0124851 196.63288,14.0130797 196.629265,14.0130797 C195.171198,14.0130797 194.136694,13.6914388 193.466104,13.0297265 C193.260046,12.8263971 193.260046,12.4976219 193.466104,12.294887 C193.671559,12.0921522 194.004745,12.0921522 194.210802,12.294887 C194.673527,12.7514863 195.464619,12.9738407 196.629265,12.9738407 C196.63288,12.9738407 196.636495,12.9744352 196.639507,12.9744352 C196.643122,12.9744352 196.646737,12.9738407 196.64975,12.9738407 C197.814396,12.9738407 198.60609,12.7514863 199.069418,12.294887 C199.275475,12.0915577 199.608661,12.0921522 199.814116,12.294887 C200.019571,12.4982164 200.019571,12.8269917 199.814116,13.0297265 M192.467147,9.24256837 C192.467147,8.53210464 193.071462,7.93579073 193.791457,7.93579073 C194.512056,7.93579073 195.096487,8.53210464 195.096487,9.24256837 C195.096487,9.95362663 194.512056,10.530321 193.791457,10.530321 C193.071462,10.530321 192.467147,9.95362663 192.467147,9.24256837 M203.065243,1.039239 C203.553274,1.039239 203.950326,1.43103448 203.950326,1.91200951 C203.950326,2.39357907 203.553274,2.78537455 203.065243,2.78537455 C202.577213,2.78537455 202.180161,2.39357907 202.180161,1.91200951 C202.180161,1.43103448 202.577213,1.039239 203.065243,1.039239 M206.28022,7.82818074 C206.28022,6.56718193 205.240895,5.54161712 203.962978,5.54161712 C203.409877,5.54161712 202.901964,5.73424495 202.503104,6.05469679 C201.090226,5.1783591 199.297165,4.65041617 197.375168,4.53864447 L198.37774,1.41082045 L201.133004,2.05112961 C201.205304,3.04102259 202.043994,3.82461356 203.065243,3.82461356 C204.133488,3.82461356 205.002905,2.9667063 205.002905,1.91200951 C205.002905,0.857907253 204.133488,0 203.065243,0 C202.318135,0 201.668632,0.419738407 201.345086,1.03269917 L198.143365,0.288941736 C197.875249,0.226516052 197.604121,0.378715815 197.520975,0.637931034 L196.276196,4.52021403 C194.20538,4.57015458 192.25868,5.09988109 190.74217,6.02734839 C190.348733,5.7235434 189.854075,5.54161712 189.317241,5.54161712 C188.039324,5.54161712 187,6.56718193 187,7.82818074 C187,8.60760999 187.397655,9.29667063 188.003174,9.70927467 C187.977869,9.89060642 187.964613,10.0731272 187.964613,10.2580262 C187.964613,11.834126 188.893077,13.3002378 190.578891,14.3858502 C192.194814,15.4268728 194.333714,16 196.600947,16 C198.86818,16 201.00708,15.4268728 202.623003,14.3858502 C204.308817,13.3002378 205.23728,11.834126 205.23728,10.2580262 C205.23728,10.0897741 205.225833,9.92271106 205.204745,9.7568371 C205.850632,9.35077289 206.28022,8.63793103 206.28022,7.82818074" id="Reddit"></path>
                        </g>
                    </g>
                </g>
            </g>
        </g>
    </g>
</svg>