<?xml version="1.0" encoding="UTF-8"?>
<svg width="29px" height="25px" viewBox="0 0 29 25" version="1.1" xmlns="http://www.w3.org/2000/svg" xmlns:xlink="http://www.w3.org/1999/xlink">
    <!-- Generator: Sketch 49.1 (51147) - http://www.bohemiancoding.com/sketch -->
    <title>Reddit-color</title>
    <desc>Created with Sketch.</desc>
    <defs></defs>
    <g id="Page-1" stroke="none" stroke-width="1" fill="none" fill-rule="evenodd">
        <g id="Trezor-product-page-Copy-14" transform="translate(-1121.000000, -7119.000000)" fill="#929497">
            <g id="Footer" transform="translate(0.000000, 6845.000000)">
                <g id="Group-5">
                    <g>
                        <g id="Group-31" transform="translate(913.000000, 274.867769)">
                            <path d="M226.762064,15.7954816 C225.681167,15.7954816 224.772887,14.93044 224.772887,13.8638526 C224.772887,12.7972652 225.681167,11.9036861 226.762064,11.9036861 C227.842961,11.9036861 228.719609,12.7972652 228.719609,13.8638526 C228.719609,14.93044 227.842961,15.7954816 226.762064,15.7954816 M227.221174,19.5445898 C226.214385,20.5371581 224.661725,21.0196195 222.474625,21.0196195 C222.470106,21.0196195 222.464684,21.0187277 222.459261,21.0187277 C222.454742,21.0187277 222.44932,21.0196195 222.443897,21.0196195 C220.256797,21.0196195 218.705041,20.5371581 217.699156,19.5445898 C217.39007,19.2395957 217.39007,18.7464328 217.699156,18.4423306 C218.007338,18.1382283 218.507117,18.1382283 218.816203,18.4423306 C219.510291,19.1272295 220.696928,19.460761 222.443897,19.460761 C222.44932,19.460761 222.454742,19.4616528 222.459261,19.4616528 C222.464684,19.4616528 222.470106,19.460761 222.474625,19.460761 C224.221594,19.460761 225.409135,19.1272295 226.104126,18.4423306 C226.413212,18.1373365 226.912992,18.1382283 227.221174,18.4423306 C227.529356,18.7473246 227.529356,19.2404875 227.221174,19.5445898 M216.200721,13.8638526 C216.200721,12.798157 217.107193,11.9036861 218.187186,11.9036861 C219.268083,11.9036861 220.144731,12.798157 220.144731,13.8638526 C220.144731,14.93044 219.268083,15.7954816 218.187186,15.7954816 C217.107193,15.7954816 216.200721,14.93044 216.200721,13.8638526 M232.097865,1.5588585 C232.829911,1.5588585 233.425489,2.14655172 233.425489,2.86801427 C233.425489,3.59036861 232.829911,4.17806183 232.097865,4.17806183 C231.365819,4.17806183 230.770241,3.59036861 230.770241,2.86801427 C230.770241,2.14655172 231.365819,1.5588585 232.097865,1.5588585 M236.92033,11.7422711 C236.92033,9.85077289 235.361343,8.31242568 233.444468,8.31242568 C232.614816,8.31242568 231.852946,8.60136742 231.254656,9.08204518 C229.135338,7.76753864 226.445748,6.97562426 223.562752,6.80796671 L225.06661,2.11623068 L229.199505,3.07669441 C229.307957,4.56153389 230.565991,5.73692033 232.097865,5.73692033 C233.700232,5.73692033 235.004358,4.45005945 235.004358,2.86801427 C235.004358,1.28686088 233.700232,0 232.097865,0 C230.977202,0 230.002948,0.62960761 229.517629,1.54904875 L224.715047,0.433412604 C224.312873,0.339774078 223.906181,0.568073722 223.781462,0.956896552 L221.914294,6.78032105 C218.808069,6.85523187 215.88802,7.64982164 213.613255,9.04102259 C213.0231,8.5853151 212.281113,8.31242568 211.475862,8.31242568 C209.558987,8.31242568 208,9.85077289 208,11.7422711 C208,12.911415 208.596482,13.9450059 209.504761,14.563912 C209.466803,14.8359096 209.44692,15.1096908 209.44692,15.3870392 C209.44692,17.7511891 210.839615,19.9503567 213.368336,21.5787753 C215.792221,23.1403092 219.00057,24 222.40142,24 C225.80227,24 229.01062,23.1403092 231.434505,21.5787753 C233.963226,19.9503567 235.355921,17.7511891 235.355921,15.3870392 C235.355921,15.1346611 235.338749,14.8840666 235.307118,14.6352556 C236.275949,14.0261593 236.92033,12.9568966 236.92033,11.7422711" id="Reddit"></path>
                        </g>
                    </g>
                </g>
            </g>
        </g>
    </g>
</svg>