<?xml version="1.0" encoding="UTF-8"?>
<svg width="29px" height="24px" viewBox="0 0 29 24" version="1.1" xmlns="http://www.w3.org/2000/svg" xmlns:xlink="http://www.w3.org/1999/xlink">
    <!-- Generator: Sketch 49.1 (51147) - http://www.bohemiancoding.com/sketch -->
    <title>Twitter-color</title>
    <desc>Created with Sketch.</desc>
    <defs></defs>
    <g id="Page-1" stroke="none" stroke-width="1" fill="none" fill-rule="evenodd">
        <g id="Trezor-product-page-Copy-14" transform="translate(-1214.000000, -7120.000000)" fill="#929497">
            <g id="Footer" transform="translate(0.000000, 6845.000000)">
                <g id="Group-5">
                    <g>
                        <g id="Group-31" transform="translate(913.000000, 274.867769)">
                            <path d="M329.8,2.9734015 C328.741786,3.45530833 327.60243,3.78120215 326.40729,3.92681429 C327.627787,3.17795188 328.564289,1.9905196 329.005494,0.576001719 C327.862758,1.26939284 326.6,1.77383487 325.25103,2.04425741 C324.175911,0.867225988 322.639303,0.132231405 320.938722,0.132231405 C317.677866,0.132231405 315.03233,2.84512415 315.03233,6.19073628 C315.03233,6.66570919 315.083043,7.12681429 315.184469,7.5705846 C310.273745,7.31749684 305.920866,4.90796272 303.00486,1.23819023 C302.496038,2.13613173 302.205283,3.17795188 302.205283,4.28737767 C302.205283,6.38835275 303.248283,8.24317398 304.833914,9.33006456 C303.866984,9.30059544 302.954147,9.02497247 302.15626,8.57426824 L302.15626,8.64880779 C302.15626,11.5853192 304.193238,14.0347233 306.89794,14.5894362 C306.402641,14.7315814 305.880296,14.8026539 305.341046,14.8026539 C304.960697,14.8026539 304.588801,14.7662509 304.228737,14.6951783 C304.980983,17.1012455 307.161648,18.8537915 309.748019,18.9005954 C307.726255,20.5265976 305.177073,21.4956117 302.409826,21.4956117 C301.933122,21.4956117 301.46149,21.467876 301,21.4124048 C303.615108,23.1285478 306.722134,24.1322314 310.057369,24.1322314 C320.926889,24.1322314 326.86878,14.9014622 326.86878,6.89452826 C326.86878,6.63103964 326.863708,6.36755101 326.853566,6.10926282 C328.008135,5.25465827 329.010565,4.18856943 329.8,2.9734015" id="Twitter"></path>
                        </g>
                    </g>
                </g>
            </g>
        </g>
    </g>
</svg>